<?xml version="1.0" encoding="UTF-8"?>
<svg id="Capa_2" data-name="Capa 2" xmlns="http://www.w3.org/2000/svg" viewBox="0 0 73.46 106.23">
  <defs>
    <style>
      .cls-1 {
        fill: #fff;
      }

      .cls-2 {
        fill: #1a1a1a;
      }

      .cls-3 {
        fill: #ffa800;
      }
    </style>
  </defs>
  <g id="Layer_1" data-name="Layer 1">
    <g>
      <path class="cls-2" d="M2.94,106.23H73.46c-1.89-2.29-3.65-4.52-5.26-6.69-2.99-4.04-5.45-7.9-7.29-11.58-1.7-3.42-2.88-6.71-3.48-9.83-1.11-5.71-.25-11.02,1.72-15.64,1.85-4.34,4.59-8.16,7.12-11.7,4.41-6.16,7.57-11.84,5.25-16.25-2.4-4.55-8.96-7.97-15.23-11.29-5.67-3-10.62-5.59-11.15-8.27-.42-2.17,2.91-4.1,6.08-5.72,2.9-1.49,5.38-3.09,4.69-4.41-.87-1.65-4.31-2.78-7.75-4.05-5.47-.26-11-.52-16.58-.79,2.97,1.26,6.05,2.51,6.14,4.03,.08,1.52-3.35,2.91-7.17,4.38-4.18,1.62-8.6,3.28-9.34,5.71-.73,2.42,3.14,5.3,7.62,8.33,4.97,3.36,10.25,7.08,10.49,11.47,.12,2.31-1.19,4.86-3.43,7.4-2.61,2.94-6.35,5.94-10.51,9.28-4.55,3.66-9.45,7.59-13.77,12.16-4.5,4.77-8.27,10.27-10.15,16.46C.46,82.5-.03,86.01,0,89.69c.03,3.91,.66,8.06,1.77,12.44,.34,1.34,.74,2.71,1.17,4.1Z"/>
      <path class="cls-3" d="M7.55,101.91c.42,1.41,.9,2.86,1.42,4.32h1.75c-.55-1.49-1.05-2.95-1.49-4.39-1.34-4.34-2.18-8.46-2.42-12.34-.23-3.66,.07-7.14,.88-10.39,1.53-6.14,4.97-11.62,9.18-16.37,4.04-4.55,8.69-8.47,13.02-12.11,3.95-3.33,7.51-6.32,9.94-9.25,2.1-2.53,3.26-5.08,3.02-7.38-.47-4.42-5.91-8.1-11.02-11.45-4.61-3.03-8.62-5.87-8.01-8.32,.6-2.41,4.91-4.1,8.98-5.72,3.72-1.48,7.05-2.89,6.89-4.39-.17-1.54-3.29-2.77-6.31-4.04-.13,0-.27-.01-.4-.02,3.01,1.26,6.13,2.5,6.27,4.03,.14,1.5-3.21,2.91-6.96,4.39-4.09,1.62-8.43,3.3-9.06,5.72-.63,2.44,3.34,5.3,7.92,8.33,5.08,3.35,10.48,7.04,10.9,11.46,.22,2.3-.98,4.85-3.11,7.39-2.47,2.93-6.07,5.92-10.07,9.25-4.37,3.65-9.09,7.56-13.19,12.12-4.28,4.76-7.79,10.24-9.4,16.39-.85,3.26-1.19,6.75-1.01,10.41,.2,3.89,.99,8.01,2.28,12.36Z"/>
      <path class="cls-3" d="M53.06,23.15c6.12,3.33,12.54,6.77,14.69,11.31,2.09,4.45-1.44,10.12-6.24,16.3-2.76,3.55-5.74,7.38-7.87,11.75-2.26,4.64-3.45,9.98-2.66,15.74,.43,3.14,1.42,6.46,2.94,9.91,1.64,3.71,3.9,7.6,6.69,11.68,1.42,2.08,2.98,4.21,4.66,6.39h1.64c-1.72-2.2-3.32-4.35-4.77-6.45-2.83-4.07-5.13-7.95-6.81-11.66-1.56-3.44-2.59-6.75-3.05-9.89-.85-5.75,.27-11.08,2.47-15.72,2.07-4.36,5-8.2,7.72-11.74,4.73-6.17,8.18-11.84,6.04-16.29-2.2-4.55-8.65-7.99-14.8-11.31-5.56-3.01-10.42-5.62-10.82-8.27-.32-2.2,3.12-4.1,6.38-5.72,2.99-1.48,5.56-3.07,4.92-4.41-.79-1.64-4.21-2.78-7.6-4.05-.13,0-.26-.01-.39-.02,3.38,1.27,6.79,2.41,7.56,4.05,.63,1.34-1.97,2.92-4.98,4.41-3.29,1.62-6.76,3.52-6.46,5.72,.37,2.65,5.21,5.27,10.74,8.27Z"/>
      <g>
        <path class="cls-1" d="M45.04,2.56c.84,.47,1.53,.96,1.88,1.5-.14,0-.29-.01-.43-.02-.34-.54-1.03-1.03-1.87-1.5,.14,0,.28,.01,.42,.02Zm1.82,3.03c-.4,.55-1.15,1.07-2.08,1.58-.16,0-.31-.01-.47-.02,.93-.51,1.7-1.02,2.1-1.58,.15,0,.3,.01,.45,.02Zm-5.62,3.25c-1.33,.59-2.67,1.18-3.91,1.85-.17,0-.35-.01-.52-.02,1.24-.66,2.6-1.26,3.93-1.85l.5,.02Zm-6.84,3.94c-.65,.72-.95,1.58-.76,2.42-.19,0-.39-.01-.58-.02-.18-.83,.14-1.69,.79-2.42,.18,0,.37,.01,.55,.02Zm1.24,5.19c1.2,1.05,2.76,2.08,4.52,3.16-.21,0-.43-.01-.64-.02-1.75-1.08-3.3-2.11-4.49-3.16,.2,0,.41,.01,.61,.02Zm10.45,6.71c2.04,1.25,4.01,2.54,5.71,3.96-.24,0-.48-.01-.71-.02-1.68-1.41-3.64-2.71-5.67-3.96,.23,0,.45,.01,.68,.02Zm9.47,8.38c.76,1.56,.95,3.28,.52,5-.27,0-.55,0-.82-.01,.45-1.72,.28-3.45-.46-5.01,.25,0,.51,.01,.76,.01Zm-2.66,10.79c-1.72,2.19-3.91,4.44-6.26,6.87-.33,0-.66,0-.98,0,2.39-2.43,4.6-4.68,6.35-6.88,.3,0,.59,0,.89,0Zm-13.84,15.21c-2.52,3.13-4.76,6.55-6.26,10.3-.41,0-.82,0-1.23,.01,1.55-3.75,3.84-7.17,6.4-10.31,.37,0,.73,0,1.1,0Zm-8.22,23.17c.38,5.03,2.06,10.5,4.81,16.33-.52,.02-1.05,.04-1.57,.06-2.69-5.84-4.3-11.32-4.62-16.35,.46-.01,.93-.02,1.39-.03Z"/>
        <path class="cls-1" d="M40.13,.41c.58,.23,1.16,.46,1.74,.69-.13,0-.27-.01-.4-.02-.57-.24-1.15-.47-1.73-.69l.4,.02Z"/>
      </g>
    </g>
  </g>
</svg>