<?xml version="1.0" standalone="no"?>
<!DOCTYPE svg PUBLIC "-//W3C//DTD SVG 20010904//EN"
 "http://www.w3.org/TR/2001/REC-SVG-20010904/DTD/svg10.dtd">
<svg version="1.0" xmlns="http://www.w3.org/2000/svg"
 width="1280.000000pt" height="1279.000000pt" viewBox="0 0 1280.000000 1279.000000"
 preserveAspectRatio="xMidYMid meet">
<metadata>
Created by potrace 1.15, written by Peter Selinger 2001-2017
</metadata>
<g transform="translate(0.000000,1279.000000) scale(0.100000,-0.100000)"
fill="#000000" stroke="none">
<path d="M7480 12725 c-341 -51 -450 -64 -551 -64 -115 -1 -127 -3 -132 -20
-4 -15 -22 -20 -103 -31 -55 -7 -104 -17 -110 -21 -7 -6 -15 5 -23 31 l-12 40
-57 -5 c-31 -3 -293 -15 -582 -26 -289 -11 -527 -22 -529 -25 -4 -4 -3 -16 54
-494 19 -162 35 -310 35 -328 l0 -33 -93 7 -94 7 -18 -112 -18 -111 -306 0
-306 1 -200 40 c-252 51 -304 54 -1245 68 -721 11 -1507 24 -2385 40 -253 5
-463 5 -466 2 -7 -8 -64 -1209 -57 -1216 4 -5 679 -54 753 -55 l30 -1 -25 -13
c-14 -7 -166 -66 -338 -131 l-312 -119 0 -636 0 -636 358 -68 c342 -65 428
-83 390 -85 -57 -3 -734 -93 -739 -99 -14 -17 -128 -367 -122 -373 5 -4 93
-44 198 -89 104 -45 191 -83 193 -85 3 -2 -73 -54 -167 -116 l-171 -111 2
-696 3 -696 415 -72 c228 -40 413 -73 410 -74 -3 0 -211 -23 -463 -49 -252
-27 -462 -53 -466 -57 -9 -10 -237 -2291 -230 -2298 2 -2 150 7 329 20 1607
119 3016 174 4448 174 l772 0 0 -50 c0 -141 -104 -1388 -175 -2101 -61 -606
-198 -1812 -219 -1931 l-5 -28 974 0 c643 0 975 3 975 10 0 6 133 10 380 10
l380 0 0 28 c0 15 -5 131 -10 257 -32 778 -56 1820 -66 2953 l-7 742 37 0 c44
0 525 -42 811 -70 980 -99 1931 -240 2844 -425 124 -25 226 -45 228 -45 1 0 0
14 -3 30 -6 30 -6 30 41 30 62 0 819 31 822 34 3 3 -287 1740 -292 1744 -2 2
-144 6 -317 9 -172 3 -328 8 -346 12 -30 5 0 21 309 160 293 133 347 154 385
152 l44 -2 0 764 0 764 -61 7 c-34 3 -88 6 -121 6 l-59 0 3 107 3 108 165 27
c91 15 166 27 166 27 2 1 12 186 44 841 29 600 41 820 45 870 3 30 12 150 20
265 8 116 18 236 21 268 l6 57 -200 -6 -200 -7 24 133 c13 73 26 135 28 138 3
2 94 -18 203 -46 108 -28 199 -49 202 -47 3 4 40 506 37 511 -1 1 -64 10 -141
19 -77 10 -143 21 -147 24 -5 4 51 48 123 99 128 90 132 92 167 82 20 -5 38
-7 41 -4 6 6 92 1210 88 1243 -2 20 -47 46 -327 190 -300 153 -325 168 -322
190 3 20 0 23 -20 18 -22 -6 -306 -64 -1408 -292 -256 -53 -814 -168 -1240
-256 l-775 -160 -370 20 c-203 12 -376 21 -383 21 -9 0 -11 19 -7 78 2 42 9
262 15 487 6 226 13 456 16 513 l5 102 -38 -1 c-21 -1 -229 -30 -463 -64z"/>
</g>
</svg>
