<?xml version="1.0" standalone="no"?>
<!DOCTYPE svg PUBLIC "-//W3C//DTD SVG 20010904//EN"
 "http://www.w3.org/TR/2001/REC-SVG-20010904/DTD/svg10.dtd">
<svg version="1.0" xmlns="http://www.w3.org/2000/svg"
 width="828.000000pt" height="1280.000000pt" viewBox="0 0 828.000000 1280.000000"
 preserveAspectRatio="xMidYMid meet">
<metadata>
Created by potrace 1.15, written by Peter Selinger 2001-2017
</metadata>
<g transform="translate(0.000000,1280.000000) scale(0.100000,-0.100000)"
fill="#000000" stroke="none">
<path d="M2380 12790 c-82 -17 -143 -62 -187 -138 -18 -30 -39 -50 -67 -63
-45 -20 -91 -25 -101 -9 -3 5 -22 14 -41 19 -76 21 -201 -55 -250 -151 -39
-77 -41 -130 -8 -213 26 -64 28 -81 28 -205 0 -149 -12 -219 -55 -326 -37 -91
-36 -105 1 -69 26 25 30 26 36 11 4 -10 3 -48 -2 -84 -11 -83 -11 -288 -1
-324 8 -29 37 -39 37 -13 0 23 11 18 47 -21 30 -33 37 -36 71 -31 20 3 45 8
56 13 31 12 14 -19 -20 -36 -20 -10 -64 -16 -139 -17 -60 0 -116 -2 -122 -2
-7 -1 -13 -11 -13 -23 0 -20 -1 -20 -18 -4 -16 13 -27 15 -68 7 -57 -11 -206
-73 -298 -125 -81 -45 -117 -83 -228 -236 -129 -178 -168 -216 -237 -231 -42
-9 -70 -24 -111 -59 -30 -25 -132 -108 -227 -183 -263 -208 -361 -315 -435
-473 -26 -55 -30 -73 -25 -115 14 -116 104 -271 299 -516 126 -157 134 -171
119 -186 -12 -12 -14 -46 -5 -71 5 -12 15 -14 48 -10 52 8 55 5 141 -125 97
-148 94 -133 40 -240 -25 -51 -45 -103 -43 -114 2 -13 16 -28 33 -35 17 -8
103 -54 192 -103 89 -49 219 -116 288 -149 l126 -60 27 33 c67 81 80 90 123
84 22 -3 43 -8 47 -11 3 -4 -5 -30 -17 -59 -41 -93 -61 -169 -82 -307 -11 -74
-25 -160 -30 -190 -29 -173 -19 -406 32 -760 38 -255 41 -269 94 -355 44 -71
95 -183 95 -208 0 -7 13 -31 29 -53 29 -40 81 -160 81 -187 0 -12 -22 -16
-112 -19 -175 -6 -248 -51 -248 -154 0 -74 45 -82 80 -13 11 21 24 40 30 44
13 8 46 -11 54 -32 6 -16 6 -16 -12 0 -25 23 -32 21 -32 -8 0 -14 9 -30 20
-37 25 -16 25 -24 1 -31 -23 -6 -46 -76 -35 -110 9 -31 1 -21 -40 51 -48 81
-71 84 -62 7 3 -31 15 -79 26 -108 27 -72 25 -94 -14 -157 l-34 -54 -37 79
c-20 44 -44 98 -52 120 -22 56 -38 72 -81 79 -27 4 -50 19 -86 56 -56 59 -206
137 -376 196 -99 34 -111 36 -210 32 -91 -3 -113 -7 -163 -31 -122 -61 -173
-212 -166 -494 l4 -128 46 -95 c50 -103 118 -186 206 -251 50 -38 55 -39 130
-39 43 0 118 9 167 20 50 11 93 17 98 12 23 -23 58 -147 58 -207 0 -78 -12
-111 -42 -120 -55 -17 -76 -66 -63 -150 4 -31 17 -58 38 -82 38 -43 38 -42 17
-343 -16 -237 -17 -908 -1 -1014 10 -72 31 -105 82 -131 16 -9 97 -18 220 -25
250 -14 239 -11 239 -58 0 -49 26 -136 45 -152 19 -16 19 -30 0 -30 -28 0 -37
-40 -33 -155 3 -125 9 -137 78 -176 19 -11 43 -33 52 -48 10 -18 28 -32 47
-36 17 -3 34 -11 37 -17 4 -6 17 -53 29 -105 l22 -93 -23 0 c-12 0 -30 3 -39
6 -22 9 -51 69 -60 124 -11 77 -25 108 -61 140 -60 53 -67 26 -33 -141 12 -57
28 -116 35 -131 8 -15 21 -65 29 -111 8 -46 28 -120 44 -165 16 -45 34 -106
41 -135 31 -139 124 -339 268 -581 59 -99 126 -199 149 -222 23 -24 44 -53 48
-65 10 -29 175 -200 290 -299 123 -106 260 -207 320 -237 28 -14 67 -41 89
-59 75 -64 290 -134 521 -170 119 -18 352 -15 470 6 113 21 434 137 570 207
78 40 165 102 165 118 0 8 30 38 67 68 142 113 288 292 417 509 140 236 303
699 341 973 15 104 27 126 69 124 17 0 16 -2 -6 -11 -35 -12 -36 -40 -3 -67
37 -29 71 -33 155 -18 l75 13 3 39 c6 65 -8 123 -35 156 -25 30 -26 31 -7 49
18 17 271 201 364 264 43 30 49 31 145 30 139 -1 169 -17 316 -163 152 -152
171 -182 174 -269 1 -37 3 -69 4 -72 1 -3 13 9 27 25 l25 30 -6 -35 c-5 -29
-2 -39 15 -55 20 -18 39 -20 204 -23 167 -2 184 -1 214 18 37 23 40 46 13 107
-25 53 -51 70 -139 88 -39 8 -82 19 -97 25 -60 23 -629 618 -604 633 60 36
137 68 184 76 231 43 281 54 351 77 118 39 237 97 343 168 53 35 107 67 120
71 14 4 88 8 165 9 170 2 200 13 252 90 149 225 177 610 94 1266 -26 201 -49
317 -115 580 -87 350 -134 481 -214 598 -41 61 -103 178 -115 219 -6 19 -3 22
26 25 29 3 33 7 36 33 5 51 -118 221 -202 282 l-30 21 49 53 c111 124 175 268
175 397 0 130 -85 472 -224 900 -41 125 -77 244 -81 264 -8 43 -18 36 135 86
127 41 307 65 438 60 114 -5 136 2 145 49 11 61 -30 90 -95 67 -26 -9 -93 -18
-168 -21 l-125 -6 28 26 c21 20 27 35 27 67 0 50 -23 106 -57 143 -34 34 -55
34 -101 -2 -68 -54 -119 -65 -307 -66 -93 -1 -179 -4 -190 -8 -22 -8 -93 -113
-104 -155 -5 -18 -27 -40 -67 -66 -32 -22 -99 -81 -149 -133 -62 -64 -97 -93
-113 -93 -12 0 -56 10 -96 22 -72 21 -76 21 -142 4 -125 -30 -289 -121 -324
-179 l-18 -30 -26 51 c-41 81 -54 81 -67 2 -6 -38 -18 -62 -48 -96 -22 -25
-43 -59 -46 -75 -12 -52 -39 -56 -189 -31 -89 15 -172 22 -259 22 -115 0 -129
2 -144 20 -21 24 -61 25 -153 5 -36 -8 -82 -14 -103 -15 -55 0 -74 -14 -82
-59 -7 -44 -34 -73 -87 -96 -74 -30 -108 -20 -413 123 -94 44 -203 91 -242
105 -115 42 -302 124 -319 141 -8 9 -33 19 -55 22 -44 7 -93 40 -83 56 4 5 21
7 41 3 64 -12 80 31 43 114 -24 52 -24 48 0 54 25 6 113 -35 214 -101 43 -29
82 -52 86 -52 5 0 29 28 54 62 25 35 50 68 56 75 5 7 10 16 10 21 0 18 63 92
83 97 13 3 60 -10 112 -31 74 -30 97 -35 135 -30 62 8 132 -26 209 -101 47
-46 61 -66 66 -98 17 -115 85 -126 191 -33 19 17 45 32 57 33 26 2 47 38 47
80 1 51 13 60 92 65 73 5 73 5 76 36 4 40 -15 55 -80 65 -63 10 -77 24 -111
114 -15 39 -46 101 -70 139 l-42 69 -205 53 c-113 29 -235 64 -272 78 -37 14
-104 30 -148 36 -90 12 -232 52 -267 75 -22 15 -32 33 -61 107 -9 21 -16 25
-33 21 -19 -5 -21 -3 -14 13 17 41 15 61 -8 114 -39 87 -47 149 -47 348 0 103
-7 273 -15 377 -30 395 -58 506 -145 575 -49 38 -56 53 -104 194 -44 128 -82
215 -129 294 -19 31 -38 67 -41 79 -7 22 -6 22 73 16 l81 -6 0 26 c0 14 -4 29
-10 32 -20 12 -9 26 35 46 59 26 62 35 15 43 -46 7 -63 31 -58 84 2 29 7 36
21 34 36 -6 12 49 -66 148 l-59 75 47 6 c30 3 53 12 61 23 12 17 9 22 -24 48
-45 36 -73 51 -146 79 -62 23 -76 44 -22 33 59 -10 63 6 10 39 -27 16 -51 31
-52 32 -2 2 5 12 16 23 41 41 34 465 -9 540 -11 19 -30 74 -43 123 -32 118
-62 167 -170 274 -50 50 -122 125 -161 166 -89 97 -125 119 -190 118 -27 -1
-66 -5 -85 -9z m180 -101 c-7 -11 -14 -19 -16 -16 -7 7 7 37 17 37 6 0 5 -9
-1 -21z m138 -191 c18 -18 14 -38 -7 -38 -23 0 -35 15 -27 35 7 18 18 19 34 3z
m-301 -4 c-3 -3 -12 -4 -19 -1 -8 3 -5 6 6 6 11 1 17 -2 13 -5z m178 -14 c4
-6 -7 -10 -27 -10 -25 0 -29 3 -18 10 19 13 37 13 45 0z m205 -29 c0 -27 -16
-51 -34 -51 -6 0 -5 5 2 12 7 7 12 27 12 46 0 19 4 31 10 27 6 -3 10 -19 10
-34z m-492 -92 c13 -5 56 -9 95 -9 65 0 80 -4 154 -42 46 -23 79 -46 74 -51
-4 -4 -47 -12 -94 -17 -47 -5 -94 -13 -104 -18 -29 -16 -56 -50 -48 -61 10
-17 77 -13 140 9 76 26 82 26 138 -10 26 -16 52 -30 57 -30 18 0 10 37 -15 74
-30 44 -17 48 19 5 17 -20 26 -42 26 -66 0 -27 8 -43 34 -67 45 -44 54 -63 66
-147 13 -91 46 -164 100 -223 39 -42 45 -66 16 -66 -7 0 -23 11 -36 25 -12 13
-26 22 -31 20 -7 -5 -23 -93 -34 -195 -21 -183 -75 -491 -95 -538 -10 -23 -10
-23 -41 -5 -16 10 -55 37 -85 61 -43 33 -54 48 -54 71 0 30 -17 49 -65 74
l-30 15 87 42 c48 23 97 53 109 66 22 23 22 24 4 44 -23 25 -46 25 -110 1
-114 -43 -289 -50 -345 -14 -36 24 -46 37 -101 148 -46 92 -48 101 -32 112 9
7 24 13 33 13 9 0 19 3 23 6 9 9 -21 85 -59 147 -41 66 -42 100 -1 38 28 -42
57 -54 57 -24 0 15 1 15 19 -1 16 -15 25 -15 85 -4 79 15 82 27 16 73 -38 27
-89 93 -90 117 0 4 12 13 27 20 43 21 59 62 44 118 -20 75 -76 112 -133 86
-45 -20 -48 123 -3 166 50 48 116 61 183 37z m-90 -301 c19 -19 14 -38 -8 -38
-26 0 -80 27 -80 40 0 14 74 12 88 -2z m-381 -20 c-3 -8 -6 -5 -6 6 -1 11 2
17 5 13 3 -3 4 -12 1 -19z m1164 -96 c-5 -9 -19 -26 -32 -37 -26 -23 -17 -2
14 33 25 27 31 28 18 4z m17 -89 c29 -56 20 -143 -13 -143 -19 0 -19 4 0 40
14 27 14 34 0 66 -8 20 -15 40 -15 45 0 16 19 10 28 -8z m-806 -67 c28 -54 0
-32 -32 26 -18 33 -20 40 -6 29 10 -8 27 -33 38 -55z m748 -11 c0 -8 -4 -15
-10 -15 -5 0 -10 7 -10 15 0 8 5 15 10 15 6 0 10 -7 10 -15z m-686 -581 c56
-15 109 -31 119 -36 18 -9 18 -11 -4 -34 -31 -33 -54 -30 -79 11 -12 19 -23
35 -25 35 -2 0 -10 3 -19 6 -24 9 -19 -10 14 -63 33 -51 35 -67 20 -109 -9
-24 -13 -26 -25 -13 -17 17 -125 207 -125 220 0 13 14 12 124 -17z m163 -123
c-25 -25 -53 -62 -63 -81 -18 -37 -31 -27 -20 15 8 30 104 128 118 119 5 -4
-9 -26 -35 -53z m-414 -18 c-7 -2 -21 -2 -30 0 -10 3 -4 5 12 5 17 0 24 -2 18
-5z m-547 -28 c-11 -8 -25 -15 -30 -15 -6 0 -2 7 8 15 11 8 25 15 30 15 6 0 2
-7 -8 -15z m454 -10 c67 -21 87 -34 68 -46 -7 -5 -25 -9 -40 -9 -18 0 -42 -13
-67 -35 -36 -33 -60 -66 -151 -213 -61 -99 -41 -44 29 80 39 68 71 133 71 144
0 12 -16 30 -42 47 -44 28 -86 35 -105 16 -7 -7 -36 -10 -77 -7 -63 4 -66 3
-66 -18 0 -29 -13 -37 -35 -20 -26 19 0 53 55 71 61 20 283 14 360 -10z m710
-66 c62 -41 107 -86 97 -95 -9 -10 -44 15 -117 85 -70 67 -66 69 20 10z m-411
15 c17 -14 31 -31 31 -37 0 -6 -12 1 -27 16 l-27 27 -29 -28 -29 -27 -20 25
c-19 23 -19 25 -2 37 28 20 70 15 103 -13z m-789 -14 c44 -23 65 -46 31 -35
-13 4 -28 1 -37 -6 -23 -19 -74 -126 -152 -315 -38 -93 -78 -187 -90 -209 -42
-80 -20 -8 54 179 151 379 159 431 53 338 -24 -22 -54 -44 -65 -50 -12 -6 -33
-36 -47 -65 -14 -30 -40 -65 -57 -77 -17 -12 -55 -55 -85 -96 -58 -78 -124
-134 -159 -134 -16 0 -13 4 14 18 24 13 75 72 160 185 181 240 230 287 303
287 21 0 55 -9 77 -20z m1163 -55 c26 -21 53 -48 59 -59 11 -21 -97 68 -123
101 -17 22 -9 16 64 -42z m283 18 c-8 -15 -15 -22 -16 -15 0 17 20 55 27 49 2
-3 -2 -18 -11 -34z m-889 -40 c-3 -10 -5 -4 -5 12 0 17 2 24 5 18 2 -7 2 -21
0 -30z m999 -98 c6 -24 0 -44 -10 -34 -11 11 -17 59 -7 59 6 0 13 -11 17 -25z
m-232 -94 c9 -25 20 -77 26 -116 6 -38 19 -87 29 -107 14 -29 15 -38 5 -38
-28 0 -114 212 -142 350 -4 24 -3 24 31 -9 21 -20 43 -54 51 -80z m335 -11
l31 -85 -65 -130 c-46 -92 -69 -153 -80 -210 -9 -44 -18 -82 -21 -84 -11 -11
-21 24 -27 87 -3 37 -17 114 -31 172 -37 157 -38 215 -1 232 37 17 55 -4 55
-63 0 -26 5 -51 10 -54 13 -8 28 31 52 134 29 128 30 128 77 1z m-1098 -19
c-24 -39 -50 -76 -59 -83 -17 -13 2 21 62 114 47 73 44 47 -3 -31z m609 19 c0
-16 -4 -30 -10 -30 -5 0 -10 14 -10 30 0 17 5 30 10 30 6 0 10 -13 10 -30z
m-106 -47 c8 -19 2 -16 -25 13 -23 25 -23 26 -2 13 13 -7 25 -19 27 -26z
m-830 -27 c-3 -9 -10 -16 -15 -16 -6 0 -5 9 1 21 13 24 24 20 14 -5z m-147
-38 c-3 -8 -6 -5 -6 6 -1 11 2 17 5 13 3 -3 4 -12 1 -19z m1018 -63 c17 -75
48 -136 89 -174 14 -14 26 -29 26 -33 0 -15 -177 83 -206 113 l-27 28 33 63
c56 109 60 109 85 3z m591 -147 c-9 -45 -20 -86 -25 -91 -5 -5 -19 -2 -35 8
-19 13 -26 26 -26 49 0 37 31 107 68 156 l27 35 3 -38 c2 -20 -4 -74 -12 -119z
m-2459 -7 c-59 -59 -107 -115 -107 -124 0 -22 47 -33 72 -18 17 11 18 10 9 -7
-5 -10 -17 -25 -26 -32 -13 -11 -13 -15 -3 -21 7 -5 -46 -9 -119 -9 -73 0
-133 3 -133 8 0 9 392 312 404 312 6 0 -38 -49 -97 -109z m2183 24 c13 -14 21
-25 18 -25 -2 0 -15 11 -28 25 -13 14 -21 25 -18 25 2 0 15 -11 28 -25z m-452
-35 c-19 -15 -20 -20 -9 -34 18 -22 42 -20 48 4 3 11 11 20 18 20 21 0 309
-141 333 -163 12 -11 22 -26 22 -34 0 -17 6 -16 40 4 35 20 39 18 185 -108
105 -90 143 -110 131 -66 -16 62 -28 138 -23 152 8 20 36 19 44 -2 4 -10 21
-38 39 -63 17 -25 43 -68 57 -96 31 -62 74 -114 93 -114 17 0 18 -5 0 -33 -7
-12 -16 -53 -19 -92 -10 -120 -45 -204 -131 -309 l-28 -36 -5 -317 c-9 -575
-9 -559 6 -576 21 -27 1 -41 -101 -71 -243 -72 -286 -87 -320 -111 -21 -14
-38 -31 -38 -37 0 -17 91 -2 225 38 217 64 219 65 231 51 6 -6 17 -39 23 -72
7 -33 31 -98 52 -144 22 -46 38 -85 37 -86 -2 -2 -76 -9 -164 -18 -169 -15
-192 -21 -175 -40 7 -9 -55 -12 -252 -14 -262 -1 -491 -13 -504 -26 -17 -18
25 -21 245 -20 162 1 229 -2 212 -8 -48 -19 -78 -59 -43 -59 9 0 24 -7 34 -16
10 -9 55 -21 108 -28 50 -7 96 -17 103 -24 45 -45 -310 -50 -616 -8 -475 64
-826 149 -826 200 0 44 21 57 51 30 10 -9 23 -13 28 -9 18 11 12 61 -9 80 -27
25 -25 47 12 117 51 95 91 114 260 123 l113 5 -63 -19 c-77 -24 -97 -38 -81
-57 6 -8 15 -11 21 -8 5 3 6 -6 2 -22 -7 -27 -7 -27 37 -21 86 10 441 67 538
86 69 14 113 29 149 50 56 35 354 180 432 211 58 23 89 25 159 8 40 -9 53 -9
66 2 26 22 17 40 -31 62 -42 18 -51 19 -93 7 -54 -15 -198 -79 -400 -178 -80
-39 -147 -69 -149 -66 -2 2 34 52 80 112 110 140 114 148 93 179 -9 14 -43 46
-75 71 -33 25 -60 48 -60 50 0 2 15 34 34 72 l35 68 -78 21 c-142 38 -239 54
-310 50 -78 -3 -79 2 -7 27 91 30 243 45 466 45 214 1 444 20 463 39 17 17 -1
60 -30 67 -31 8 -320 -11 -481 -31 -186 -24 -397 -65 -520 -100 -62 -17 -114
-29 -116 -26 -8 13 82 293 100 312 11 12 64 43 119 70 111 53 162 90 151 107
-9 15 -36 9 -136 -28 -110 -41 -120 -43 -120 -28 0 20 68 256 84 292 8 17 22
65 31 106 24 104 92 322 122 395 35 83 71 130 89 114 11 -9 10 -14 -8 -29z
m-577 -32 c-17 -24 -95 -117 -172 -208 -78 -91 -162 -192 -186 -225 -56 -75
-53 -72 -53 -47 0 12 41 69 98 134 53 63 148 176 209 251 62 75 118 137 124
137 5 0 -4 -19 -20 -42z m-1096 -57 c-3 -6 -14 -11 -23 -11 -15 1 -15 2 2 15
21 16 32 13 21 -4z m263 -88 c-10 -2 -26 -2 -35 0 -10 3 -2 5 17 5 19 0 27 -2
18 -5z m-614 -70 l39 -6 -94 -33 c-52 -18 -96 -33 -98 -34 -10 -1 37 45 64 61
34 21 35 21 89 12z m193 -49 c-3 -3 -12 -4 -19 -1 -8 3 -5 6 6 6 11 1 17 -2
13 -5z m89 -24 c15 -6 24 -13 22 -16 -3 -3 -21 2 -39 10 -39 16 -24 21 17 6z
m2729 -96 c4 -25 2 -23 -15 11 -11 22 -19 49 -19 60 0 15 4 12 14 -11 8 -17
16 -44 20 -60z m-3052 39 c-7 -2 -21 -2 -30 0 -10 3 -4 5 12 5 17 0 24 -2 18
-5z m142 -8 l30 -14 -39 2 c-22 1 -41 8 -44 15 -5 16 15 15 53 -3z m-230 -4
c6 -11 -82 -27 -92 -17 -8 7 35 25 64 25 12 1 24 -3 28 -8z m893 -54 c15 -18
1 -71 -57 -214 -27 -67 -59 -154 -71 -192 -11 -39 -25 -73 -30 -76 -15 -9 -50
46 -50 81 0 25 -11 45 -45 84 -46 52 -49 70 -12 87 24 11 67 59 120 133 31 42
109 110 127 110 4 0 12 -6 18 -13z m-615 -57 c48 -10 94 -23 101 -27 8 -4 -63
-8 -157 -9 -191 -1 -274 -16 -269 -47 2 -14 -5 -17 -39 -17 -29 0 -50 -7 -64
-20 -46 -44 -78 19 -34 66 18 20 28 22 70 17 47 -6 134 7 214 30 l40 12 -60 6
c-58 5 -57 6 25 7 53 1 118 -6 173 -18z m231 -5 c3 -8 2 -15 -3 -15 -5 0 -14
7 -21 15 -10 12 -10 15 3 15 8 0 17 -7 21 -15z m-360 -69 c60 -25 56 -40 -9
-31 -71 8 -108 22 -100 35 9 14 70 12 109 -4z m835 -40 c27 -29 22 -42 -19
-51 -34 -7 -60 -39 -60 -71 0 -24 -39 -85 -57 -92 -20 -6 -16 40 8 105 26 71
46 95 71 87 14 -4 18 0 18 20 0 32 10 33 39 2z m121 -6 c-24 -15 -37 -11 -16
5 11 8 22 12 25 9 3 -3 -1 -9 -9 -14z m-941 -160 c27 -16 -3 -11 -105 15 -53
14 -109 25 -125 25 -27 0 -69 29 -69 49 0 9 268 -71 299 -89z m26 50 c-3 -5
-12 -7 -20 -3 -21 7 -19 13 6 13 11 0 18 -4 14 -10z m-290 -84 c27 -34 42 -43
130 -71 104 -32 153 -54 124 -55 -8 0 -43 9 -76 21 -34 11 -76 19 -94 17 l-32
-3 42 -50 c22 -27 41 -53 41 -58 0 -5 23 -34 50 -65 28 -31 50 -60 50 -66 0
-37 -207 225 -265 335 -37 70 -46 101 -17 59 9 -13 31 -42 47 -64z m560 55
c35 -8 31 -9 -35 -9 -41 0 -97 3 -125 8 -46 7 -43 7 35 8 47 1 103 -3 125 -7z
m-127 -79 c35 -13 61 -27 58 -29 -7 -7 -165 47 -172 58 -8 13 36 2 114 -29z
m712 18 c0 -19 -164 -99 -177 -86 -6 6 149 96 165 96 6 0 12 -4 12 -10z m350
-140 c-20 -10 -103 -41 -185 -70 -82 -28 -166 -60 -186 -70 -37 -19 -49 -18
-49 6 0 15 46 33 255 101 170 54 226 66 165 33z m-1074 -24 c118 -40 286 -108
280 -113 -8 -9 -357 115 -375 133 -11 11 32 2 95 -20z m-85 -282 c13 -14 44
-37 69 -50 41 -21 42 -23 18 -24 -19 0 -43 15 -80 50 -29 27 -48 49 -42 50 6
0 21 -12 35 -26z m453 -65 c-8 -13 -24 -1 -24 18 0 13 3 13 15 3 8 -7 12 -16
9 -21z m-259 -19 c3 -5 -3 -10 -15 -10 -12 0 -18 5 -15 10 3 6 10 10 15 10 5
0 12 -4 15 -10z m1678 -44 c79 -15 154 -42 144 -52 -3 -4 -46 0 -94 7 -149 22
-349 5 -390 -33 -25 -24 -30 -46 -10 -53 6 -3 96 -11 198 -20 224 -17 280 -34
352 -105 26 -26 47 -52 47 -59 0 -28 -36 -19 -162 40 -176 81 -232 101 -296
101 -52 1 -103 -22 -105 -47 -1 -19 69 -44 198 -70 166 -34 239 -62 243 -93 3
-19 -1 -22 -28 -22 -17 0 -75 11 -128 24 -120 31 -218 47 -237 39 -28 -10 -15
-24 48 -53 54 -26 119 -45 280 -82 21 -5 35 -12 33 -17 -7 -10 -85 1 -214 30
-111 25 -96 26 -289 -18 l-22 -5 6 161 c6 167 1 188 -32 137 -12 -19 -64 -259
-65 -299 0 -13 -67 -37 -104 -37 -28 0 -34 4 -38 25 -7 36 13 68 50 77 18 5
35 15 38 22 3 7 -7 64 -21 126 -14 62 -25 118 -25 125 0 14 34 29 205 90 219
78 280 87 418 61z m-953 -15 c0 -16 -25 -29 -105 -57 -160 -54 -173 -53 -62 2
110 56 167 75 167 55z m-324 -186 c-21 -16 -56 -20 -56 -7 0 16 13 22 44 22
29 -1 30 -1 12 -15z m282 -102 c-6 -76 -33 -133 -63 -133 -33 0 -120 61 -120
84 0 13 24 31 83 62 46 24 88 44 94 44 7 0 9 -20 6 -57z m311 -85 c0 -27 -2
-29 -8 -13 -5 11 -6 26 -4 33 8 21 13 13 12 -20z m2215 22 c29 -10 35 -30 10
-30 -8 0 -62 -45 -118 -100 -57 -55 -106 -100 -110 -100 -4 0 -6 25 -4 55 l3
56 67 23 c80 28 136 65 117 77 -7 4 -33 0 -58 -10 -85 -34 -87 -34 -47 3 42
38 87 47 140 26z m212 -48 c-4 -3 -14 2 -24 12 -16 18 -16 18 6 6 13 -6 21
-14 18 -18z m-3336 -17 c0 -43 -27 -97 -47 -93 -13 3 -17 11 -15 33 7 66 62
119 62 60z m600 -55 c-7 -16 -17 -30 -22 -30 -11 0 -1 38 15 58 16 21 21 5 7
-28z m2531 -58 c-17 -39 -31 -75 -31 -80 0 -5 -9 -17 -20 -27 -17 -15 -27 -17
-58 -9 -60 15 -54 36 38 127 98 97 117 94 71 -11z m127 61 c32 -14 34 -17 15
-20 -24 -5 -63 12 -63 27 0 13 5 13 48 -7z m334 2 c138 -32 228 -67 228 -88 0
-7 18 -39 40 -72 21 -32 38 -61 35 -63 -2 -2 -20 14 -40 37 -20 22 -56 49 -80
61 -47 23 -274 74 -284 64 -3 -3 -4 -33 -3 -66 4 -59 3 -61 -39 -104 -23 -24
-39 -47 -35 -51 4 -4 27 3 52 17 36 19 49 21 62 12 10 -6 37 -23 62 -38 25
-14 69 -40 98 -57 28 -17 52 -35 52 -41 0 -5 -8 -2 -18 7 -23 21 -64 22 -103
1 -29 -15 -33 -14 -89 15 -34 18 -75 31 -95 31 -45 0 -80 18 -123 63 -37 38
-43 77 -23 129 16 42 91 119 136 139 49 23 85 23 167 4z m-2775 -42 c-3 -10
-5 -2 -5 17 0 19 2 27 5 18 2 -10 2 -26 0 -35z m-160 -18 c8 -9 24 -13 34 -10
10 3 29 8 40 11 15 4 20 2 17 -7 -2 -7 -15 -16 -28 -19 -13 -3 -25 -11 -28
-18 -6 -19 28 -26 61 -14 39 15 44 9 23 -23 -22 -33 -51 -32 -109 5 -46 29
-53 42 -41 74 8 20 12 20 31 1z m976 -35 c52 0 44 -20 -16 -39 -45 -14 -48
-14 -72 9 -35 33 -31 44 13 36 20 -3 54 -6 75 -6z m2002 -40 c0 -19 -32 -25
-50 -10 -24 20 -17 31 18 28 20 -2 32 -8 32 -18z m-808 -67 c-3 -10 -5 -2 -5
17 0 19 2 27 5 18 2 -10 2 -26 0 -35z m386 40 c-7 -2 -19 -2 -25 0 -7 3 -2 5
12 5 14 0 19 -2 13 -5z m547 -12 c0 -10 -30 -24 -37 -17 -3 3 -2 9 2 15 8 13
35 15 35 2z m2627 -46 c20 -42 9 -59 -16 -26 -16 20 -23 22 -59 16 -22 -3 -73
-22 -112 -41 -74 -35 -90 -40 -90 -26 0 14 212 109 248 111 7 1 20 -15 29 -34z
m-2547 -15 c30 -32 51 -97 49 -157 -1 -38 -1 -38 -9 -8 -4 17 -11 42 -14 56
-3 14 -21 46 -41 72 -19 25 -35 51 -35 56 0 20 22 11 50 -19z m-585 -51 c11
-17 0 -20 -21 -4 -17 13 -17 14 -2 15 9 0 20 -5 23 -11z m2705 -28 c0 -5 -9
-11 -20 -14 -17 -4 -20 -14 -20 -66 0 -34 -4 -61 -9 -61 -15 0 -51 65 -51 93
0 18 8 31 28 41 30 17 72 21 72 7z m898 -23 c4 -19 -27 -33 -41 -19 -7 7 -6
16 3 26 15 18 34 15 38 -7z m-2911 -70 c-2 -13 -4 -3 -4 22 0 25 2 35 4 23 2
-13 2 -33 0 -45z m2616 45 c-7 -2 -19 -2 -25 0 -7 3 -2 5 12 5 14 0 19 -2 13
-5z m-288 -13 c-3 -5 -16 -10 -28 -10 -18 0 -19 2 -7 10 20 13 43 13 35 0z
m130 0 c3 -6 -4 -10 -17 -10 -18 0 -20 2 -8 10 19 12 18 12 25 0z m-575 -65
c0 -32 -11 -38 -27 -15 -34 49 -67 26 -240 -167 -101 -112 -127 -126 -403
-216 -326 -106 -347 -112 -365 -97 -18 15 -20 61 -3 78 7 7 28 12 48 12 33 -1
34 -1 15 -15 -37 -27 -45 -36 -39 -46 9 -15 66 -1 199 48 66 24 136 49 155 56
19 7 39 23 45 35 11 25 25 29 25 8 0 -41 86 -16 191 54 35 24 118 96 184 161
66 64 136 126 155 138 33 20 36 20 48 4 6 -9 12 -26 12 -38z m-2127 5 c-7 -27
-21 -34 -38 -20 -21 17 -19 29 8 39 28 11 36 6 30 -19z m93 -102 c-7 -37 -32
-78 -46 -78 -14 0 -12 12 10 64 24 54 46 62 36 14z m2299 6 c9 -4 26 -27 39
-53 49 -97 172 -484 259 -821 65 -249 62 -409 -11 -544 -32 -59 -117 -149
-135 -144 -9 4 -94 213 -96 239 -1 4 16 9 37 13 116 19 172 124 123 232 -35
78 -133 107 -213 65 -34 -19 -37 -19 -51 -3 -43 47 -116 278 -133 416 -16 135
-29 169 -109 276 -30 40 -57 81 -60 91 -15 45 91 170 181 214 48 24 131 33
169 19z m-2235 -42 c0 -5 -9 -17 -20 -27 -16 -14 -20 -15 -20 -4 0 16 19 39
32 39 4 0 8 -4 8 -8z m1882 -74 c-41 -56 -55 -62 -60 -24 -2 19 5 30 35 50 59
40 68 31 25 -26z m-4797 11 c195 -35 194 -34 35 -47 -80 -7 -172 -19 -205 -27
-101 -24 -105 -23 -105 33 0 26 6 54 13 61 15 16 105 9 262 -20z m4224 -59
c-19 -11 -152 -64 -186 -75 -44 -13 -22 13 30 35 81 36 200 66 156 40z m-2471
-26 c18 -12 22 -23 20 -57 -3 -39 -1 -42 25 -45 15 -2 27 -7 27 -11 0 -17
-186 -128 -197 -118 -2 3 10 22 28 43 18 22 40 48 48 59 15 18 15 19 0 7 -42
-32 -59 27 -18 64 10 9 19 21 19 27 0 22 -77 -10 -300 -128 -216 -114 -271
-138 -269 -117 1 9 559 290 579 291 9 1 26 -6 38 -15z m-1295 -26 c11 -13 17
-33 15 -52 -3 -29 -6 -31 -48 -34 -58 -3 -70 6 -77 56 -5 37 -3 43 18 51 32
14 70 5 92 -21z m-510 -5 c-7 -2 -19 -2 -25 0 -7 3 -2 5 12 5 14 0 19 -2 13
-5z m233 -8 c8 -21 -28 -68 -85 -109 -35 -26 -69 -40 -122 -51 -99 -21 -195
-53 -209 -71 -16 -19 -36 -18 -44 2 -3 9 -6 48 -6 88 0 57 4 76 18 89 26 24
87 47 119 46 26 -1 26 -1 5 -7 -46 -13 -16 -27 52 -25 52 2 81 9 115 27 54 29
148 36 157 11z m119 -65 c4 -17 16 -35 27 -41 30 -16 176 -6 215 14 34 18 174
22 263 8 l45 -7 -65 -8 c-142 -17 -470 -93 -493 -115 -4 -4 17 -14 47 -21 65
-15 151 -9 251 20 82 23 75 22 75 11 0 -5 -17 -15 -37 -22 -21 -6 -128 -48
-238 -91 -195 -78 -465 -181 -555 -212 -55 -19 -65 -12 -81 61 -17 73 -27 66
254 174 143 54 181 85 230 182 22 42 43 77 47 77 5 0 11 -14 15 -30z m1786
-44 c31 -8 177 -72 325 -141 148 -70 366 -170 484 -222 358 -158 519 -247 627
-345 55 -51 103 -123 103 -155 0 -14 6 -23 15 -23 26 0 110 -199 91 -217 -4
-4 -20 0 -35 8 l-28 17 -6 -85 c-6 -101 -21 -127 -30 -53 -7 60 -61 166 -117
232 -83 96 -193 149 -414 199 -153 35 -284 39 -516 18 -217 -20 -327 -33 -425
-49 -33 -5 -76 -10 -95 -10 -31 1 -33 2 -18 14 10 7 53 21 96 30 83 18 146 49
139 69 -6 20 -103 19 -216 -2 -59 -12 -116 -21 -127 -21 -26 0 -424 132 -424
141 0 8 72 36 485 189 436 161 433 160 457 179 13 11 18 23 13 30 -9 16 -68 8
-185 -24 -125 -35 -564 -187 -644 -224 -76 -34 -95 -38 -76 -16 17 20 6 43
-22 47 -75 10 26 51 304 123 205 53 324 94 398 136 l35 20 -59 -6 c-131 -13
-485 -92 -563 -127 -40 -17 -157 -89 -293 -177 -13 -9 -21 -11 -17 -4 4 7 81
67 170 135 192 145 242 190 263 234 37 78 175 114 305 80z m-511 0 c0 -4 -108
-88 -129 -101 -11 -6 -11 -3 2 15 24 35 127 105 127 86z m-475 -15 c3 -5 0
-13 -6 -16 -7 -5 -8 -34 -4 -91 5 -54 3 -100 -5 -133 -12 -49 -30 -69 -30 -33
0 9 -5 70 -11 135 -7 89 -7 122 2 133 13 16 45 19 54 5z m105 -21 c0 -9 -51
-40 -66 -40 -20 0 34 42 64 49 1 1 2 -3 2 -9z m1930 -18 c0 -26 -11 -34 -27
-21 -20 17 -16 39 7 39 13 0 20 -7 20 -18z m423 -49 c42 -9 77 -21 77 -26 0
-17 -104 0 -170 27 -59 24 -62 26 -25 21 22 -2 75 -12 118 -22z m-277 8 c-3
-4 -18 -11 -34 -14 -17 -4 -33 -16 -40 -32 -10 -22 -15 -24 -32 -15 -11 6 -24
19 -30 30 -9 17 -6 20 27 25 21 4 43 8 48 10 21 7 66 5 61 -4z m509 -16 c-22
-14 -49 -25 -60 -24 -13 0 -1 10 30 25 65 31 81 30 30 -1z m1124 -70 l-1 -30
-13 30 c-7 17 -16 46 -19 65 l-7 35 20 -35 c11 -19 20 -48 20 -65z m-3995 61
c-10 -8 -100 -52 -199 -97 -222 -101 -253 -114 -240 -101 15 16 448 222 454
217 2 -3 -4 -12 -15 -19z m1981 -26 c3 -5 -1 -10 -9 -10 -8 0 -18 5 -21 10 -3
6 1 10 9 10 8 0 18 -4 21 -10z m1062 -37 c5 -15 -35 -55 -50 -50 -17 5 -21 35
-6 53 14 17 50 15 56 -3z m-880 -9 c-3 -3 -12 -4 -19 -1 -8 3 -5 6 6 6 11 1
17 -2 13 -5z m713 -19 c-25 -14 -55 -32 -67 -41 -20 -14 -23 -14 -23 -2 0 23
36 50 78 58 59 12 60 11 12 -15z m757 -20 c86 -27 152 -70 197 -129 39 -52 84
-155 88 -200 3 -35 0 -40 -22 -46 -18 -4 -26 -14 -28 -33 -4 -33 -22 -26 -22
8 0 28 -54 77 -75 69 -8 -3 -17 -22 -21 -41 -8 -45 -27 -56 -158 -92 -123 -35
-187 -39 -207 -15 -9 11 -21 14 -43 8 -17 -4 -64 -7 -104 -8 -52 -1 -75 -5
-82 -16 -8 -12 -13 -12 -44 3 -20 9 -36 23 -36 30 0 7 22 48 50 92 27 43 53
88 56 100 4 11 17 33 30 48 17 20 24 41 24 68 0 22 5 49 10 60 17 31 -14 24
-55 -12 -34 -30 -65 -34 -65 -7 0 14 164 118 215 137 48 18 200 5 292 -24z
m-417 22 c0 -2 -20 -18 -44 -35 -54 -39 -99 -43 -94 -10 4 29 42 48 96 48 23
0 42 -1 42 -3z m-634 -26 c-3 -5 -17 -12 -31 -15 -52 -13 -242 -100 -293 -133
-48 -32 -82 -38 -82 -14 0 24 215 121 345 156 61 17 68 17 61 6z m364 -28 c0
-5 -27 -39 -61 -78 -33 -38 -85 -110 -116 -160 -95 -154 -104 -167 -110 -161
-7 7 66 142 125 230 72 106 162 201 162 169z m-316 -50 c-42 -55 -155 -196
-166 -208 -21 -21 27 62 66 115 51 69 117 142 124 135 3 -2 -8 -21 -24 -42z
m346 -6 c0 -2 -17 -19 -37 -38 -20 -18 -31 -25 -23 -14 20 26 60 61 60 52z
m-499 -24 c-11 -21 -111 -120 -111 -111 0 4 18 28 40 55 22 26 45 54 51 61 15
19 31 15 20 -5z m303 -15 c-24 -40 -97 -138 -101 -134 -7 7 23 58 62 104 36
41 54 55 39 30z m-2711 -63 c-2 -12 -21 -16 -263 -55 -107 -18 -230 -37 -272
-44 -43 -7 -75 -9 -72 -5 3 5 11 9 17 9 7 0 29 11 50 25 32 22 65 29 259 55
229 29 284 32 281 15z m2531 -27 c-27 -53 -74 -118 -85 -118 -12 0 28 74 68
128 31 41 40 35 17 -10z m-3294 28 c0 -8 -131 -66 -183 -81 -29 -9 -94 -18
-144 -22 -90 -6 -93 -5 -93 15 0 22 45 60 58 48 3 -4 0 -11 -7 -15 -7 -5 -11
-14 -7 -20 8 -12 48 -6 131 20 130 41 245 67 245 55z m1082 -58 c-6 -7 -25
-21 -44 -31 l-33 -18 35 30 c34 31 62 43 42 19z m-1512 -391 c0 -16 -49 -31
-63 -19 -21 18 -48 166 -61 337 -6 70 -5 69 59 -120 36 -104 65 -193 65 -198z
m3715 307 c-36 -62 -44 -48 -9 16 16 29 30 47 32 41 2 -6 -8 -32 -23 -57z m69
4 c-35 -59 -56 -89 -61 -85 -6 7 15 47 40 75 23 24 32 29 21 10z m-2959 -8
c-11 -5 -92 -29 -180 -53 -198 -56 -275 -84 -275 -102 0 -8 -10 -19 -22 -26
-13 -6 -38 -25 -56 -43 l-33 -31 43 -5 43 -6 -37 -19 c-35 -17 -50 -35 -30
-35 4 0 90 22 192 50 101 27 186 47 188 45 7 -7 -400 -205 -422 -205 -22 0
-51 40 -96 130 l-23 44 34 29 c106 90 280 161 519 211 118 25 195 33 155 16z
m-499 -39 c-3 -5 -27 -21 -54 -37 -26 -15 -69 -44 -96 -66 -27 -21 -56 -38
-66 -38 -31 0 -53 77 -27 98 10 9 100 28 240 51 5 0 6 -3 3 -8z m764 -101
c-72 -56 -260 -180 -260 -171 0 10 264 191 278 191 4 0 -4 -9 -18 -20z m4417
-15 l28 -24 -30 -1 c-33 0 -55 15 -55 37 0 21 26 15 57 -12z m-3477 -104 l115
-37 -50 -23 c-216 -98 -260 -104 -440 -54 -60 16 -165 40 -232 53 -68 13 -123
27 -123 30 0 4 100 21 223 38 122 18 233 34 247 36 53 9 150 -7 260 -43z
m1193 -15 c249 -47 434 -132 511 -234 l18 -23 -34 14 c-18 8 -85 40 -148 70
-63 30 -154 65 -203 77 -75 18 -95 20 -142 10 -30 -6 -59 -9 -65 -5 -5 3 -15
3 -20 0 -21 -13 12 -35 82 -56 38 -12 76 -28 84 -36 8 -9 75 -41 147 -73 210
-91 337 -159 337 -180 0 -19 -30 -10 -77 23 -96 68 -285 157 -418 199 -348
109 -733 111 -1175 7 -66 -15 -107 -20 -134 -15 -47 9 -41 16 21 27 26 5 68
20 93 33 68 35 177 59 445 97 91 13 368 18 505 9 62 -4 75 -2 75 10 0 28 -74
42 -246 48 -179 5 -284 -4 -522 -44 -82 -14 -151 -23 -154 -21 -12 12 151 47
341 72 141 19 559 13 679 -9z m1498 -86 c10 0 19 -4 19 -9 0 -6 -12 -6 -30 -1
-39 11 -48 17 -61 43 -11 19 -8 18 20 -6 18 -15 41 -27 52 -27z m-3344 0 c81
-16 166 -35 188 -42 l40 -11 -107 -18 c-59 -10 -143 -27 -187 -39 -102 -26
-117 -25 -125 3 -8 30 -8 122 1 130 11 11 34 8 190 -23z m718 -19 c-6 -5 -21
-12 -35 -15 -24 -7 -24 -6 -6 8 21 17 57 23 41 7z m-2061 -17 c49 -48 16 -134
-33 -90 -20 18 -36 79 -26 96 9 15 42 12 59 -6z m1936 -29 c0 -2 -13 -11 -30
-20 -38 -19 -40 -11 -2 9 31 17 32 18 32 11z m3148 -62 c52 -122 65 -190 40
-207 -29 -18 -50 4 -85 85 -37 87 -40 122 -13 149 29 29 35 26 58 -27z m-4837
-3 c-13 -11 -31 -20 -40 -20 -9 1 -1 9 19 20 45 24 51 24 21 0z m1209 -8 c0
-19 -27 -32 -65 -32 -131 0 -665 -199 -803 -300 -45 -32 -55 -60 -22 -60 28 0
39 -49 15 -67 -11 -7 -26 -13 -36 -13 -9 0 -33 -13 -54 -30 -21 -16 -47 -30
-59 -30 -12 0 -31 -7 -42 -15 -12 -8 -24 -12 -27 -9 -3 3 -15 0 -28 -6 -19
-11 -24 -10 -35 5 -12 16 -19 12 -85 -51 -180 -173 -373 -461 -388 -579 l-7
-50 -17 32 c-9 18 -17 45 -17 61 0 84 283 454 490 638 183 165 443 325 595
368 33 10 83 30 111 46 34 19 78 32 130 40 44 6 135 21 204 34 150 29 140 28
140 18z m273 -34 c67 -38 82 -67 81 -156 0 -57 -6 -90 -23 -128 -22 -50 -95
-133 -107 -122 -3 4 9 19 26 35 49 43 73 98 78 180 4 61 1 77 -18 107 -27 45
-71 78 -130 100 l-45 16 49 -5 c27 -3 67 -15 89 -27z m-204 -1 c-8 -7 -28 -22
-43 -34 -15 -12 -43 -51 -62 -85 -36 -67 -46 -61 -15 9 23 49 94 123 119 123
15 -1 15 -2 1 -13z m381 -98 c0 -16 -29 -22 -45 -9 -8 7 -15 20 -15 29 0 9 -9
35 -20 56 l-19 40 49 -53 c28 -29 50 -58 50 -63z m953 104 c-7 -2 -19 -2 -25
0 -7 3 -2 5 12 5 14 0 19 -2 13 -5z m-2453 -58 c-32 -33 -54 -63 -52 -73 1
-10 -9 -29 -23 -42 -17 -16 -25 -34 -25 -57 l0 -35 57 31 57 31 -34 -35 c-23
-24 -31 -38 -23 -43 8 -5 1 -18 -19 -41 -35 -40 -35 -40 -78 72 -23 58 -28 82
-20 96 8 16 195 151 209 151 3 0 -19 -25 -49 -55z m2089 51 c-2 -3 -45 -10
-94 -16 -50 -6 -106 -13 -125 -16 -19 -3 -31 -2 -27 3 11 11 129 30 196 32 30
0 52 -1 50 -3z m-2449 -31 c23 -12 34 -31 58 -102 17 -49 47 -132 66 -186 36
-98 44 -137 27 -137 -15 0 -27 23 -60 120 -18 52 -46 113 -62 134 -16 22 -29
49 -29 61 0 11 -11 41 -25 67 -14 26 -25 50 -25 53 0 9 20 5 50 -10z m1336 -4
c-19 -20 -76 -45 -76 -33 0 10 63 51 79 51 11 1 10 -4 -3 -18z m3621 -75 c12
-28 22 -58 22 -66 1 -16 -106 -84 -113 -72 -4 8 21 200 30 222 7 19 29 -11 61
-84z m-3454 40 c-4 -17 4 -31 27 -53 37 -34 33 -53 -10 -53 -17 0 -38 -9 -49
-21 -15 -16 -27 -20 -45 -15 -31 8 -32 26 -7 83 33 71 94 115 84 59z m2887
-53 c11 -31 22 -72 23 -92 l2 -35 -124 -32 c-69 -18 -131 -30 -138 -27 -13 5
-33 63 -33 96 0 33 44 64 106 77 81 16 112 29 119 51 10 32 23 22 45 -38z
m-3086 13 c-3 -9 -10 -16 -15 -16 -6 0 -5 9 1 21 13 24 24 20 14 -5z m392 -61
c-5 -20 -13 -25 -36 -25 l-31 0 33 33 c35 35 44 33 34 -8z m2930 0 c25 -61 20
-83 -26 -95 -45 -12 -60 -7 -60 19 0 17 55 111 65 111 3 0 13 -16 21 -35z
m-552 -21 c3 -9 6 -39 5 -67 -1 -61 -5 -54 -17 26 -8 53 -2 77 12 41z m-2788
-40 c-3 -26 -11 -53 -16 -59 -6 -7 -10 -38 -9 -69 1 -31 -1 -59 -4 -63 -4 -3
-16 6 -28 20 -27 35 -57 34 -129 -4 -67 -35 -110 -77 -113 -108 -1 -18 -7 -21
-46 -21 -39 0 -49 -5 -81 -40 -48 -52 -100 -149 -100 -188 0 -16 7 -35 16 -43
31 -25 -6 -91 -130 -234 -113 -129 -271 -424 -283 -526 -6 -60 -17 -79 -44
-79 -22 0 -49 -82 -30 -88 18 -6 13 -41 -9 -59 -23 -20 -26 -43 -5 -43 9 0 12
-6 9 -15 -4 -8 -13 -15 -21 -15 -22 0 -43 -63 -43 -132 0 -35 -9 -110 -20
-168 -28 -151 -50 -360 -59 -552 -4 -92 -10 -171 -14 -175 -21 -20 5 449 38
696 15 114 20 231 10 231 -3 0 -17 -7 -31 -16 -18 -12 -28 -14 -36 -6 -13 13
14 60 40 69 37 13 44 25 26 44 -14 15 -15 30 -10 80 4 37 3 65 -3 73 -15 18
18 78 52 94 35 17 34 33 -3 75 -16 19 -30 43 -30 52 0 21 187 394 267 533 31
53 102 165 158 247 117 172 143 217 126 223 -6 2 -11 17 -11 33 0 16 -3 29 -7
29 -4 0 -55 -46 -112 -102 -106 -105 -108 -97 -7 24 61 74 181 153 246 164 61
9 156 43 293 105 72 32 138 59 146 59 11 0 12 -10 7 -46z m3874 -1 c0 -16 -47
-36 -67 -29 -21 9 -15 33 14 56 26 20 28 20 40 4 7 -10 13 -24 13 -31z m-2870
-2 c24 -6 -15 -9 -127 -10 -165 -1 -227 7 -168 21 36 8 246 1 295 -11z m2743
-26 c1 -5 -15 -11 -35 -13 -36 -3 -52 10 -25 22 19 8 57 2 60 -9z m485 -48
c23 -23 42 -45 42 -47 0 -3 -13 -5 -29 -6 -24 -1 -32 6 -50 41 -35 71 -24 74
37 12z m-4109 -25 c40 -41 70 -63 106 -75 l50 -17 -43 5 c-53 7 -109 41 -151
92 -30 37 -38 53 -24 53 3 0 32 -26 62 -58z m3491 8 c0 -5 -4 -10 -9 -10 -5 0
-19 -16 -31 -35 -12 -19 -26 -33 -31 -29 -16 9 -10 25 20 55 30 29 51 37 51
19z m-655 -50 c10 -16 -5 -71 -21 -77 -18 -7 -54 24 -54 47 0 27 62 51 75 30z
m229 -6 c9 -3 16 -10 16 -15 0 -13 -32 -10 -60 6 l-25 14 27 1 c14 0 33 -3 42
-6z m-454 -28 c9 -12 60 -177 60 -197 0 -10 -49 -29 -75 -29 -30 0 -31 2 -60
102 -30 102 -31 116 -9 97 15 -12 20 -10 37 14 24 31 30 33 47 13z m761 -12
c10 -13 10 -17 -1 -24 -17 -10 -40 5 -40 26 0 19 25 18 41 -2z m833 -16 c14
-18 23 -34 20 -37 -5 -6 -64 50 -64 61 0 17 20 7 44 -24z m-1031 15 c-7 -2
-19 -2 -25 0 -7 3 -2 5 12 5 14 0 19 -2 13 -5z m-764 -53 c1 -14 16 -54 32
-89 16 -35 29 -77 29 -93 0 -33 -25 -48 -44 -27 -14 15 -56 180 -56 218 0 32
34 24 39 -9z m-1489 10 c8 -5 12 -11 9 -14 -3 -3 -14 1 -25 9 -21 16 -8 20 16
5z m-2330 -27 c35 -20 53 -52 48 -84 -5 -37 -40 -32 -50 7 -4 17 -17 39 -28
49 -22 20 -27 45 -9 45 6 0 24 -8 39 -17z m3520 -24 c17 -30 9 -64 -15 -64
-15 0 -21 8 -23 28 -6 54 17 76 38 36z m-4680 -12 c0 -7 21 -33 46 -57 25 -25
73 -80 107 -122 34 -43 66 -78 72 -78 38 0 45 60 15 120 -22 44 -24 50 -11 50
13 0 76 -126 106 -215 36 -104 45 -275 21 -378 -24 -103 -80 -203 -129 -228
-21 -12 -21 -12 -4 12 77 105 120 315 83 403 -12 28 -20 34 -56 39 -24 3 -49
12 -57 20 -13 13 -12 17 13 29 42 19 44 58 4 91 -17 15 -38 43 -46 64 -26 61
-81 130 -142 176 -32 24 -64 46 -74 50 -9 3 -47 -9 -87 -28 -74 -35 -94 -33
-40 6 65 46 179 76 179 46z m147 -9 c36 -40 38 -54 4 -25 -21 18 -44 27 -66
27 -19 0 -37 5 -40 10 -4 6 11 10 38 10 32 0 49 -6 64 -22z m933 -3 c25 -27
25 -41 0 -22 -23 19 -43 47 -33 47 5 0 20 -11 33 -25z m4595 -25 c19 -37 19
-40 -4 -40 -14 0 -20 9 -23 35 -5 43 6 45 27 5z m-5304 -49 c111 -56 187 -109
204 -142 23 -44 18 -46 -19 -6 -41 45 -80 49 -124 12 -45 -38 -58 -32 -93 38
-17 34 -40 74 -50 89 -42 59 -23 61 82 9z m5039 14 c7 -8 8 -15 2 -15 -5 0
-15 7 -22 15 -7 8 -8 15 -2 15 5 0 15 -7 22 -15z m779 -33 c59 -37 113 -82 98
-82 -8 0 -59 18 -112 39 -96 39 -97 39 -153 25 -31 -7 -61 -13 -67 -13 -18 0
29 22 85 41 60 19 107 16 149 -10z m-6241 4 c35 -18 134 -122 155 -162 16 -32
9 -54 -19 -54 -6 0 -14 -6 -17 -14 -3 -7 -27 -18 -54 -25 -90 -22 -103 -30
-103 -65 0 -18 9 -66 20 -107 31 -115 35 -136 20 -122 -7 6 -21 41 -31 79 -25
90 -39 104 -104 104 -28 0 -55 4 -61 10 -14 14 1 170 22 232 19 59 90 138 123
138 12 0 34 -6 49 -14z m2402 -31 c-24 -25 -46 -45 -49 -45 -3 0 15 20 39 45
24 25 46 45 49 45 3 0 -15 -20 -39 -45z m3411 6 c-55 -17 -74 -37 -50 -51 10
-7 10 -12 -2 -26 -11 -14 -11 -18 -1 -22 7 -2 17 -15 22 -27 6 -15 19 -25 37
-27 36 -5 -139 -48 -188 -47 -31 1 -29 2 16 13 57 14 95 32 95 46 0 6 -9 10
-20 10 -21 0 -28 24 -10 35 6 3 10 28 10 54 0 26 2 50 4 52 3 3 36 5 73 6 l68
1 -54 -17z m-964 -6 c13 -14 11 -17 -19 -29 -40 -16 -98 -30 -98 -22 0 7 83
65 93 66 5 0 15 -7 24 -15z m1090 -7 c-3 -8 -6 -5 -6 6 -1 11 2 17 5 13 3 -3
4 -12 1 -19z m863 13 c0 -17 -58 -71 -77 -71 -13 0 -6 11 27 40 50 44 50 44
50 31z m-2498 -28 c18 -16 25 -43 11 -43 -9 0 -53 45 -53 54 0 12 24 6 42 -11z
m-1787 -23 c-10 -11 -20 -18 -23 -15 -7 6 18 35 31 35 5 0 2 -9 -8 -20z m2650
-45 c-26 -31 -60 -79 -77 -108 -29 -52 -29 -52 -23 -15 5 31 2 39 -21 57 -22
17 -24 23 -14 36 15 18 171 97 178 90 3 -2 -17 -30 -43 -60z m202 54 l28 -11
-25 -10 c-29 -11 -40 -25 -40 -55 0 -14 -6 -23 -16 -23 -13 0 -15 -7 -9 -37 8
-50 -17 -88 -180 -273 -70 -80 -146 -169 -169 -199 -40 -53 -41 -56 -41 -135
l0 -81 -31 1 c-17 1 -52 11 -78 23 l-48 21 50 57 c80 93 272 353 272 369 0 36
-44 8 -173 -108 -41 -38 -78 -68 -81 -68 -4 0 21 35 57 78 35 42 72 90 82 105
10 16 35 37 55 47 44 23 194 179 245 256 38 57 52 63 102 43z m653 -9 c8 -5
11 -12 8 -16 -10 -9 -38 3 -38 16 0 12 10 13 30 0z m-3700 -33 c0 -2 -10 -12
-22 -23 l-23 -19 19 23 c18 21 26 27 26 19z m2079 -26 c15 -15 19 -29 15 -58
-12 -86 -26 -143 -35 -143 -5 0 -16 17 -25 38 -9 20 -25 57 -37 81 l-21 43 35
29 c41 34 44 34 68 10z m-1960 -28 c-13 -21 -52 -83 -87 -138 -127 -201 -162
-294 -361 -970 -22 -74 -36 -103 -46 -94 -9 10 232 801 273 897 48 109 116
216 184 288 28 30 53 54 55 54 3 0 -6 -17 -18 -37z m2965 12 c-9 -14 -19 -24
-21 -21 -7 7 16 46 28 46 5 0 2 -11 -7 -25z m1129 -79 c59 -55 94 -129 175
-371 86 -259 90 -283 27 -170 -29 52 -43 67 -68 73 -29 8 -33 13 -39 58 -4 30
-29 91 -62 157 -40 77 -52 107 -41 107 18 0 18 -2 0 51 -11 31 -12 44 -4 50 8
4 -3 23 -32 55 -80 89 -89 102 -44 67 22 -18 61 -52 88 -77z m-3943 84 c0 -5
-14 -17 -31 -26 -37 -19 -59 -6 -34 20 18 17 65 22 65 6z m4230 -32 c25 -58
154 -527 147 -535 -4 -3 -14 -3 -23 1 -12 5 -15 14 -11 36 5 24 3 28 -10 23
-14 -5 -15 0 -10 36 5 37 4 41 -11 29 -14 -11 -15 -9 -9 17 5 25 2 33 -16 40
-26 12 -34 35 -13 35 25 0 19 36 -9 58 -26 20 -33 42 -14 42 5 0 3 10 -5 22
-9 12 -16 35 -16 49 0 15 -5 29 -12 31 -12 4 -31 134 -22 149 9 15 15 10 34
-33z m-810 -28 c0 -16 -4 -32 -10 -35 -6 -4 -10 10 -10 35 0 25 4 39 10 35 6
-3 10 -19 10 -35z m-1505 -64 c30 -59 31 -86 8 -129 l-18 -32 -3 85 c-2 55 -7
88 -16 95 -7 6 -18 20 -25 33 -12 22 -11 22 9 10 11 -7 32 -35 45 -62z m-3682
-142 c30 -98 66 -222 81 -274 22 -82 23 -92 7 -73 -23 28 -62 145 -117 357
-71 276 -56 271 29 -10z m1402 186 c-10 -11 -20 -18 -23 -15 -7 6 18 35 31 35
5 0 2 -9 -8 -20z m3698 3 c-7 -2 -19 -2 -25 0 -7 3 -2 5 12 5 14 0 19 -2 13
-5z m-253 -48 c0 -6 -33 -19 -72 -29 -16 -3 -28 -2 -28 2 0 5 19 14 43 19 55
14 57 14 57 8z m-2367 -12 c-7 -2 -21 -2 -30 0 -10 3 -4 5 12 5 17 0 24 -2 18
-5z m-1162 -46 c-13 -12 -20 -15 -16 -7 14 26 28 41 33 35 3 -3 -5 -16 -17
-28z m1978 16 c19 -13 28 -14 42 -5 42 26 124 1 134 -41 3 -12 5 -69 3 -127
l-3 -105 -100 4 c-55 2 -105 7 -111 12 -7 6 -14 45 -15 88 -3 57 -9 84 -22 98
-20 23 -23 79 -4 86 24 10 53 7 76 -10z m1399 -39 c16 -65 12 -108 -11 -112
-15 -3 -18 0 -13 16 5 14 -2 31 -24 55 -36 41 -36 44 -8 74 30 32 41 25 56
-33z m-2575 26 c-36 -14 -27 -39 19 -59 42 -17 42 -18 19 -30 -32 -17 -76 2
-91 40 -16 38 0 59 44 58 28 0 29 -1 9 -9z m2415 -38 c2 -15 -22 -47 -86 -114
-98 -103 -119 -133 -101 -144 6 -4 55 37 115 97 l103 103 39 -42 c34 -36 45
-42 80 -42 46 0 44 4 67 -115 31 -168 56 -376 62 -525 5 -144 4 -157 -14 -179
-25 -31 -23 -32 -248 137 -336 253 -364 281 -384 388 -5 27 -13 57 -16 67 -6
13 -2 17 17 17 26 0 111 92 268 288 41 51 79 91 84 89 6 -2 12 -13 14 -25z
m-5208 -17 c0 -15 -40 -82 -59 -99 -26 -23 -36 -16 -27 20 10 37 86 107 86 79z
m1934 -40 c-23 -36 -30 -23 -8 15 10 17 20 26 22 21 2 -5 -4 -21 -14 -36z
m731 14 c14 -17 24 -37 22 -43 -5 -17 -83 -57 -99 -51 -17 7 -58 76 -58 98 0
18 18 24 72 26 29 1 41 -5 63 -30z m414 -54 c10 -11 -39 -45 -65 -45 -51 0
-96 39 -61 54 15 7 117 0 126 -9z m-606 -23 c31 -32 33 -47 12 -69 -9 -8 -13
-23 -10 -33 15 -47 -51 -25 -104 35 -17 20 -31 39 -31 43 0 12 64 51 86 51 11
1 32 -12 47 -27z m742 8 c3 -5 -3 -10 -14 -10 -12 0 -21 5 -21 10 0 6 6 10 14
10 8 0 18 -4 21 -10z m-317 -27 c3 -17 -5 -27 -31 -39 -20 -9 -42 -14 -51 -11
-25 10 -19 45 12 61 37 21 66 16 70 -11z m3406 -41 c59 -117 103 -385 71 -428
-41 -57 -90 96 -49 155 15 21 15 24 -10 50 -29 30 -34 62 -11 81 22 18 19 57
-5 63 -24 6 -40 45 -40 98 0 49 12 44 44 -19z m-3546 -4 c21 -21 13 -35 -35
-56 -69 -30 -111 1 -66 50 19 21 82 25 101 6z m-2378 -37 c0 -19 -70 -134 -89
-145 -6 -4 -11 -5 -11 -3 0 11 61 152 71 163 14 17 29 9 29 -15z m6245 -16 c4
-21 3 -25 -3 -15 -15 24 -26 67 -14 55 6 -5 13 -23 17 -40z m-6843 -121 c55
-59 84 -74 155 -75 54 -1 56 -2 26 -11 -18 -6 -53 -7 -80 -3 -41 6 -56 15
-105 65 -53 54 -98 124 -98 152 0 6 13 -9 30 -35 16 -26 49 -68 72 -93z m2534
105 c22 -25 15 -40 -43 -82 -39 -28 -44 -29 -73 -17 -34 14 -55 44 -46 66 7
19 83 53 117 54 14 0 34 -9 45 -21z m268 2 c27 -29 16 -52 -37 -79 -54 -28
-74 -21 -63 22 7 27 53 76 72 76 6 0 19 -9 28 -19z m308 -16 c0 -14 1 -30 2
-35 1 -6 -34 -26 -76 -44 -102 -45 -229 -124 -236 -148 -5 -20 -15 -19 -79 8
-35 14 -41 25 -20 41 20 17 385 203 397 203 5 0 11 -11 12 -25z m1208 -15 c10
-7 -14 -9 -75 -9 -60 1 -82 4 -65 9 36 11 122 11 140 0z m1721 -22 c16 -21 23
-47 23 -77 1 -45 1 -46 -34 -49 -69 -5 -143 75 -95 102 10 6 30 21 44 33 34
29 36 29 62 -9z m-165 -2 c9 -24 -15 -57 -53 -73 -31 -12 -38 -13 -50 0 -19
19 -7 66 21 77 33 14 76 11 82 -4z m-3296 -21 c-17 -20 -80 -59 -86 -52 -6 5
76 67 89 67 5 0 4 -7 -3 -15z m57 -52 c9 -22 -33 -55 -66 -51 -36 4 -32 27 9
49 43 23 49 23 57 2z m1693 -13 c-8 -5 -64 -10 -125 -10 -75 0 -105 3 -95 10
8 5 65 10 125 10 75 0 105 -3 95 -10z m2745 -28 c-8 -9 -25 20 -18 31 3 5 10
2 15 -7 6 -10 7 -20 3 -24z m-45 13 c0 -8 -2 -15 -4 -15 -2 0 -6 7 -10 15 -3
8 -1 15 4 15 6 0 10 -7 10 -15z m-4530 -47 c170 -55 280 -98 280 -109 0 -13 6
-14 -163 40 -83 27 -184 59 -223 70 -39 11 -78 28 -85 37 -13 16 -11 17 26 10
22 -4 96 -26 165 -48z m1910 -3 c0 -19 -4 -35 -10 -35 -11 0 -14 53 -3 63 11
12 13 8 13 -28z m-3250 -140 c-1 -5 -28 19 -60 55 -33 35 -60 69 -60 75 1 5
28 -19 60 -55 33 -35 60 -69 60 -75z m5788 107 c2 -12 -2 -39 -9 -60 l-13 -37
-12 54 c-7 30 -10 59 -7 64 10 16 38 2 41 -21z m-783 -1 c16 -7 10 -10 -28
-16 -56 -9 -214 3 -223 16 -7 11 223 11 251 0z m506 -79 c-9 -15 -10 -13 -11
8 0 14 -3 36 -5 50 -4 19 -2 18 10 -8 11 -23 13 -38 6 -50z m-2401 57 c-67
-11 -149 -11 -130 1 8 5 51 9 95 9 73 -1 76 -2 35 -10z m1490 2 c0 -12 -20
-25 -27 -18 -7 7 6 27 18 27 5 0 9 -4 9 -9z m540 -33 c0 -57 -12 -77 -35 -58
-19 16 -13 51 13 79 9 11 18 20 20 20 1 1 2 -18 2 -41z m-5766 17 c3 -8 1 -15
-4 -15 -6 0 -10 7 -10 15 0 8 2 15 4 15 2 0 6 -7 10 -15z m6580 -11 c3 -9 6
-26 6 -40 0 -14 10 -30 24 -40 18 -11 34 -42 56 -110 32 -95 36 -151 6 -82 -9
21 -16 43 -16 51 0 7 -11 24 -25 37 -14 13 -25 33 -25 44 0 11 -10 30 -21 42
-23 24 -40 114 -21 114 5 0 13 -7 16 -16z m-344 -48 c-7 -7 -10 1 -9 25 0 32
1 33 10 10 6 -16 6 -28 -1 -35z m-4425 14 c39 -12 78 -30 88 -39 17 -17 17
-18 0 -40 l-18 -22 -70 49 c-71 50 -116 92 -85 79 8 -3 47 -15 85 -27z m550
-21 c25 -12 44 -24 41 -26 -7 -7 -106 29 -106 39 0 13 17 9 65 -13z m-1020
-19 c-9 -16 -17 -30 -20 -30 -2 0 1 14 6 30 6 17 15 30 20 30 5 0 3 -13 -6
-30z m4475 -15 c-7 -8 -20 -15 -29 -15 -13 1 -13 3 3 15 26 19 42 19 26 0z
m-4113 -22 c4 -9 1 -19 -5 -21 -8 -2 -7 -11 4 -27 21 -32 10 -67 -19 -63 -18
2 -23 11 -25 45 -5 63 28 111 45 66z m2078 8 c-15 -14 -175 -26 -175 -13 0 11
41 17 135 20 30 1 45 -2 40 -7z m-1720 -13 c32 -14 32 -18 -6 -54 -17 -16 -40
-45 -51 -64 -12 -19 -65 -103 -118 -185 -123 -189 -186 -306 -221 -407 -15
-43 -30 -74 -34 -69 -12 20 -26 11 -41 -25 -30 -71 -24 -25 9 73 54 157 111
279 214 455 52 90 105 184 118 210 12 26 28 54 35 63 15 18 59 20 95 3z m786
-102 c184 -63 384 -131 444 -151 111 -38 157 -62 100 -52 -71 12 -157 39 -250
77 -98 41 -433 150 -458 150 -12 0 -164 73 -175 85 -10 10 11 3 339 -109z
m3319 88 c0 -8 -4 -14 -10 -14 -5 0 -10 9 -10 21 0 11 5 17 10 14 6 -3 10 -13
10 -21z m-2280 -20 c0 -8 -4 -12 -10 -9 -5 3 -10 13 -10 21 0 8 5 12 10 9 6
-3 10 -13 10 -21z m2367 -6 c-3 -7 -5 -2 -5 12 0 14 2 19 5 13 2 -7 2 -19 0
-25z m-631 -17 c39 -60 133 -117 149 -91 4 6 -2 22 -14 34 -23 24 -29 60 -9
54 33 -11 108 -219 107 -298 0 -62 -11 -101 -23 -82 -4 7 -29 12 -55 12 -54 0
-58 5 -81 100 -27 108 -104 236 -153 253 -12 4 29 57 45 57 4 0 19 -18 34 -39z
m442 11 c5 -34 -13 -49 -69 -57 -40 -6 -54 -4 -70 11 -24 21 -25 50 -1 63 9 6
44 10 77 8 54 -2 60 -4 63 -25z m-2576 -14 c-6 -6 -15 -8 -19 -4 -4 4 -1 11 7
16 19 12 27 3 12 -12z m2872 -59 c8 -75 -6 -369 -25 -492 -27 -182 -44 -232
-86 -248 -38 -14 -52 5 -16 23 18 8 32 26 40 50 24 73 46 313 48 518 2 240 1
233 18 228 7 -3 16 -35 21 -79z m-4573 51 c23 -13 25 -50 3 -91 -32 -63 -72 2
-45 74 12 30 14 31 42 17z m4386 -32 c-3 -7 -5 -2 -5 12 0 14 2 19 5 13 2 -7
2 -19 0 -25z m-4902 -38 c-9 -28 -19 -49 -22 -46 -3 2 3 28 12 56 9 28 19 49
22 46 3 -2 -3 -28 -12 -56z m965 57 c0 -2 -12 -14 -26 -28 -25 -22 -26 -23
-15 -2 9 18 19 26 39 32 1 1 2 0 2 -2z m3150 -7 c0 -5 -4 -10 -9 -10 -5 0 -16
-3 -25 -6 -9 -3 -16 -1 -16 4 0 9 16 17 43 21 4 0 7 -3 7 -9z m-3195 -100
c-32 -33 -61 -57 -64 -54 -3 2 22 31 54 64 32 33 61 57 64 54 3 -2 -22 -31
-54 -64z m1530 60 c-106 -11 -177 -28 -210 -50 -35 -23 -46 -25 -39 -6 13 34
125 64 239 64 l80 -1 -70 -7z m1846 -19 c17 -21 99 -219 99 -239 0 -5 -37 -12
-81 -15 -65 -4 -94 -12 -140 -36 -33 -17 -68 -31 -78 -31 -23 0 -31 -19 -31
-71 0 -40 -13 -52 -24 -23 -3 9 -6 54 -6 101 l0 85 35 -31 c44 -39 57 -39 89
0 21 24 26 41 26 83 0 53 -22 102 -42 90 -6 -4 -7 -23 -4 -49 7 -47 -8 -99
-26 -93 -7 3 -21 37 -31 78 -23 89 -17 108 50 151 41 26 55 30 97 26 35 -3 55
-11 67 -26z m529 0 c0 -17 -12 -41 -21 -41 -10 0 -12 33 -2 43 9 10 23 9 23
-2z m-2377 -38 c-7 -2 -21 -2 -30 0 -10 3 -4 5 12 5 17 0 24 -2 18 -5z m2554
-40 c-3 -10 -5 -4 -5 12 0 17 2 24 5 18 2 -7 2 -21 0 -30z m-2504 -20 c-13 -2
-35 -2 -50 0 -16 2 -5 4 22 4 28 0 40 -2 28 -4z m-3673 -22 c0 -5 -18 -24 -40
-41 -36 -28 -40 -36 -40 -76 0 -24 -4 -44 -10 -44 -6 0 -10 28 -10 65 0 63 1
66 33 85 34 21 67 26 67 11z m1137 -38 c-3 -10 -5 -2 -5 17 0 19 2 27 5 18 2
-10 2 -26 0 -35z m2353 37 c-8 -5 -22 -10 -30 -10 -13 0 -13 1 0 10 8 5 22 10
30 10 13 0 13 -1 0 -10z m-2004 -66 c-25 -47 -26 -48 -20 -14 11 58 23 85 35
73 7 -7 3 -25 -15 -59z m497 17 c-34 -54 -123 -165 -123 -154 0 18 124 183
138 183 2 0 -4 -13 -15 -29z m3227 10 c0 -11 -4 -23 -10 -26 -6 -4 -10 5 -10
19 0 14 5 26 10 26 6 0 10 -9 10 -19z m1181 -45 c8 -18 8 -41 1 -86 -13 -72
-28 -96 -48 -79 -19 15 -20 175 -1 182 25 11 38 6 48 -17z m-2820 -32 c122
-41 172 -64 142 -64 -17 0 -201 64 -253 88 -75 34 -30 25 111 -24z m2936 -174
c0 -96 -2 -157 -4 -135 -7 84 -13 102 -38 113 -19 9 -25 19 -25 42 0 36 10 38
29 8 14 -22 14 -22 22 -3 4 11 6 61 4 110 -3 59 -2 82 4 65 5 -14 9 -104 8
-200z m-660 188 c-3 -8 -6 -5 -6 6 -1 11 2 17 5 13 3 -3 4 -12 1 -19z m-2107
-8 c0 -5 -9 -10 -20 -10 -11 0 -20 5 -20 10 0 6 9 10 20 10 11 0 20 -4 20 -10z
m-2634 -60 c-8 -26 -14 -36 -15 -24 -1 25 21 93 26 79 2 -6 -3 -30 -11 -55z
m454 40 c-11 -20 -30 -28 -30 -12 0 11 22 32 32 32 5 0 4 -9 -2 -20z m469 -20
c0 -10 -3 -8 -9 5 -12 27 -12 43 0 25 5 -8 9 -22 9 -30z m3918 8 c22 -45 34
-125 22 -156 -13 -33 -58 -82 -76 -82 -10 0 -13 12 -11 47 3 44 5 47 36 55 23
6 32 14 32 29 0 32 -19 59 -40 59 -14 0 -20 7 -20 24 0 60 34 74 57 24z m-760
0 c-3 -8 -6 -5 -6 6 -1 11 2 17 5 13 3 -3 4 -12 1 -19z m-2080 -60 c-3 -7 -5
-2 -5 12 0 14 2 19 5 13 2 -7 2 -19 0 -25z m-430 -35 c-4 -17 -4 -17 -12 0 -4
9 -4 25 0 35 8 16 8 16 12 0 3 -10 3 -26 0 -35z m2743 32 c-7 -8 -17 -15 -22
-15 -6 0 -5 7 2 15 7 8 17 15 22 15 6 0 5 -7 -2 -15z m-4115 -51 l-15 -39 6
40 c6 44 16 65 21 49 2 -6 -4 -28 -12 -50z m2245 1 c11 -13 8 -15 -14 -15 -25
0 -33 10 -19 23 10 11 19 8 33 -8z m1990 -15 c0 -11 -4 -20 -10 -20 -5 0 -10
9 -10 20 0 11 5 20 10 20 6 0 10 -9 10 -20z m-4070 -81 c-11 -31 -27 -64 -35
-75 -15 -19 -15 -19 -35 5 -11 13 -20 18 -20 12 0 -7 -5 -9 -10 -6 -22 13 10
45 44 45 35 0 46 13 46 51 0 11 6 30 12 42 13 22 13 22 16 1 2 -11 -6 -45 -18
-75z m1938 69 c-3 -7 -15 -15 -28 -16 -21 -3 -22 -2 -11 12 16 19 44 21 39 4z
m2332 -8 c0 -23 -22 -27 -39 -7 -13 16 -5 27 21 27 11 0 18 -7 18 -20z m-3630
-60 c0 -13 -1 -13 -10 0 -5 8 -10 22 -10 30 0 13 1 13 10 0 5 -8 10 -22 10
-30z m1037 8 c-3 -7 -5 -2 -5 12 0 14 2 19 5 13 2 -7 2 -19 0 -25z m3203 22
c0 -5 -6 -10 -14 -10 -8 0 -18 5 -21 10 -3 6 3 10 14 10 12 0 21 -4 21 -10z
m-4076 -22 c20 -28 22 -112 4 -106 -7 3 -15 25 -18 50 -3 25 -12 53 -19 62
-11 14 -11 16 2 16 9 0 23 -10 31 -22z m-549 -179 c-112 -298 -168 -623 -181
-1044 -9 -287 16 -522 84 -785 18 -69 20 -92 7 -78 -10 9 -72 267 -89 364 -64
374 -31 930 80 1319 35 124 102 315 122 345 31 49 22 0 -23 -121z m1852 135
c-3 -3 -12 -4 -19 -1 -8 3 -5 6 6 6 11 1 17 -2 13 -5z m1923 -19 c0 -31 44
-78 67 -73 10 2 23 14 30 27 l12 25 6 -26 c11 -41 -14 -81 -59 -96 -38 -12
-40 -12 -90 28 -110 88 -153 109 -127 63 5 -10 50 -58 100 -107 l89 -89 19 38
c25 54 43 57 43 7 0 -22 5 -42 12 -44 24 -8 -1 -38 -32 -38 -30 0 -31 -1 -25
-32 6 -31 5 -32 -10 -14 -8 11 -15 28 -15 37 0 21 -16 33 -35 26 -10 -5 -11
-14 -3 -47 14 -53 6 -61 -68 -65 -55 -3 -59 -5 -62 -29 -2 -14 -8 -26 -13 -26
-12 0 -12 57 1 81 8 15 1 43 -34 133 -53 135 -83 196 -96 196 -6 0 -10 4 -10
9 0 5 33 9 73 9 39 1 95 7 122 15 28 8 62 15 78 16 23 1 27 -3 27 -24z m-4443
-17 c-3 -7 -5 -2 -5 12 0 14 2 19 5 13 2 -7 2 -19 0 -25z m2356 5 c-33 -17
-51 -13 -38 6 3 6 21 11 38 10 l32 0 -32 -16z m-571 -25 c-6 -6 -15 -8 -19 -4
-4 4 -1 11 7 16 19 12 27 3 12 -12z m3600 -30 c-10 -22 -11 -21 -11 12 -1 26
2 31 11 22 8 -8 8 -17 0 -34z m-1672 4 c0 -12 -100 -69 -135 -77 -40 -9 -32
-2 56 45 84 45 79 43 79 32z m-2930 -12 c0 -5 -4 -10 -10 -10 -5 0 -10 5 -10
10 0 6 5 10 10 10 6 0 10 -4 10 -10z m1067 -67 c56 -77 67 -93 59 -93 -7 0
-116 144 -116 153 0 15 10 4 57 -60z m-820 21 c-3 -3 -12 -4 -19 -1 -8 3 -5 6
6 6 11 1 17 -2 13 -5z m4360 -10 c3 -8 1 -20 -4 -25 -7 -7 -12 -2 -15 15 -6
28 9 36 19 10z m-1357 -4 c0 -12 -8 -12 -35 0 -18 8 -17 9 8 9 15 1 27 -3 27
-9z m142 -12 c20 -31 50 -109 44 -115 -2 -2 -19 23 -36 56 -23 42 -39 61 -52
61 -11 0 -16 5 -13 10 11 18 42 11 57 -12z m-3022 -37 c0 -21 -16 -2 -24 29
-7 24 -6 24 8 6 9 -11 16 -27 16 -35z m-834 24 c8 -21 -15 -140 -31 -162 -11
-14 -18 -16 -32 -7 -26 16 -28 49 -4 73 18 18 19 24 9 47 -11 23 -10 29 11 45
28 23 40 24 47 4z m375 -84 c-43 -84 -56 -57 -14 29 21 44 27 51 30 33 2 -12
-5 -40 -16 -62z m106 -3 c-3 -7 -5 -2 -5 12 0 14 2 19 5 13 2 -7 2 -19 0 -25z
m1840 0 c-3 -7 -5 -2 -5 12 0 14 2 19 5 13 2 -7 2 -19 0 -25z m2128 23 c7 -13
-2 -17 -57 -25 -39 -6 -48 -4 -48 8 0 8 6 17 13 19 21 9 86 7 92 -2z m-3529
-16 c18 -15 18 -15 -5 -13 -14 2 -26 9 -29 16 -5 17 10 15 34 -3z m948 -47 c4
-17 2 -28 -4 -28 -5 0 -10 8 -10 18 0 9 -3 28 -6 42 -4 18 -3 21 4 10 5 -8 12
-27 16 -42z m-3331 -105 c9 -11 24 -56 33 -99 15 -78 48 -164 64 -164 14 0 22
57 19 128 -4 95 -1 132 11 132 6 0 10 -80 11 -217 1 -247 12 -323 47 -338 18
-8 22 -17 20 -40 -2 -24 -8 -30 -28 -30 -27 0 -44 25 -60 93 -6 24 -26 60 -45
81 -47 52 -55 78 -56 189 0 53 -4 106 -9 117 -7 18 -9 18 -20 -10 -9 -22 -10
-78 -5 -210 4 -113 3 -189 -4 -205 -7 -17 -9 89 -9 345 1 204 4 342 7 309 4
-38 13 -69 24 -81z m6707 127 c11 -7 7 -10 -17 -10 -18 0 -33 5 -33 10 0 13
30 13 50 0z m-5350 -9 c0 -12 -20 -25 -27 -18 -7 7 6 27 18 27 5 0 9 -4 9 -9z
m3607 3 c-3 -3 -12 -4 -19 -1 -8 3 -5 6 6 6 11 1 17 -2 13 -5z m1833 -43 c0
-18 -10 -42 -25 -58 -24 -28 -24 -28 -25 -5 0 28 28 92 41 92 5 0 9 -13 9 -29z
m-4833 -3 c-3 -8 -6 -5 -6 6 -1 11 2 17 5 13 3 -3 4 -12 1 -19z m390 -10 c-3
-7 -5 -2 -5 12 0 14 2 19 5 13 2 -7 2 -19 0 -25z m2983 13 c17 -33 11 -48 -10
-22 -11 13 -20 27 -20 32 0 16 19 9 30 -10z m565 -1 c17 -18 17 -20 1 -20 -9
0 -19 7 -22 15 -6 14 -8 13 -19 -1 -14 -20 -37 -10 -28 11 8 21 47 18 68 -5z
m-2151 -121 c16 -40 20 -97 10 -136 -5 -17 -10 -20 -23 -13 -9 5 -24 11 -34
14 -28 9 -47 68 -47 144 0 38 3 71 6 75 13 12 73 -45 88 -84z m-394 60 c0 -11
-4 -17 -10 -14 -5 3 -10 13 -10 21 0 8 5 14 10 14 6 0 10 -9 10 -21z m-1480
-4 c23 -13 23 -14 4 -15 -11 0 -29 7 -40 15 -26 19 1 20 36 0z m120 -50 c0
-23 -3 -27 -10 -15 -5 8 -10 29 -10 45 0 23 3 27 10 15 5 -8 10 -28 10 -45z
m2277 13 c-3 -7 -5 -2 -5 12 0 14 2 19 5 13 2 -7 2 -19 0 -25z m-1252 -20 c8
-28 15 -33 40 -33 27 0 31 4 35 35 l5 35 25 -26 c14 -14 42 -47 63 -73 38 -46
62 -55 62 -23 0 9 4 17 8 17 4 0 11 0 16 0 15 0 33 -57 26 -80 -8 -25 19 -60
47 -60 19 0 22 -10 12 -47 -8 -30 -18 -29 -63 7 -110 89 -273 92 -374 9 -21
-17 -56 -57 -78 -90 -22 -32 -42 -59 -44 -59 -2 0 9 28 24 63 45 99 47 107 17
107 -31 0 -80 -40 -96 -80 -13 -31 -30 -32 -30 0 0 10 -12 27 -26 37 -26 19
-26 20 -9 54 10 19 42 65 72 102 52 64 58 69 87 63 108 -20 102 -21 110 14 13
66 55 82 71 28z m1312 -20 c-3 -7 -5 -2 -5 12 0 14 2 19 5 13 2 -7 2 -19 0
-25z m1369 -29 c3 -6 -13 -31 -37 -56 -56 -57 -76 -68 -95 -52 -21 17 -17 32
8 26 38 -10 78 20 78 60 0 28 32 44 46 22z m-4619 -86 c-2 -16 -4 -5 -4 22 0
28 2 40 4 28 2 -13 2 -35 0 -50z m5613 34 c0 -22 -18 -40 -34 -34 -16 6 -22
47 -10 60 9 9 44 -11 44 -26z m-571 14 c8 -5 9 -11 3 -15 -13 -8 -42 3 -42 15
0 11 21 11 39 0z m-318 -88 c-16 -21 -32 -48 -36 -61 -12 -39 -274 -247 -291
-230 -3 3 30 34 73 68 82 66 113 96 113 111 0 5 -6 6 -14 3 -20 -8 -28 10 -13
29 9 13 183 117 195 117 2 0 -10 -17 -27 -37z m219 24 c0 -1 -109 -107 -242
-234 -242 -231 -371 -343 -395 -343 -9 0 -13 16 -13 52 0 66 -5 61 355 323
251 182 295 212 295 202z m-1060 -86 c-10 -21 -30 -37 -30 -26 0 14 21 45 31
45 6 0 6 -7 -1 -19z m-3138 -131 c62 -55 72 -78 16 -39 -57 39 -138 110 -138
121 0 14 52 -21 122 -82z m3728 75 c0 -8 -7 -15 -15 -15 -16 0 -20 12 -8 23
11 12 23 8 23 -8z m-4514 -44 c-15 -22 -37 -48 -48 -58 -12 -10 -2 10 22 44
24 35 46 61 48 58 3 -3 -7 -22 -22 -44z m3732 43 c12 -4 22 -10 22 -14 0 -10
-49 0 -56 11 -6 10 2 11 34 3z m1326 -50 l39 -56 -29 -24 c-49 -41 -204 -111
-318 -144 -59 -17 -110 -29 -113 -27 -2 3 38 38 89 78 51 40 135 108 186 151
51 43 96 78 100 78 4 0 24 -25 46 -56z m-2916 34 c80 -20 178 -144 170 -215
-3 -25 -7 -28 -38 -26 -19 1 -51 5 -71 8 -19 4 -54 2 -78 -5 -35 -9 -41 -14
-36 -30 7 -23 -18 -75 -41 -84 -15 -6 -16 0 -12 46 l6 53 -29 -34 c-61 -73
-62 -196 -3 -308 l35 -65 -41 -76 c-70 -129 -87 -138 -124 -64 -51 101 -58
147 -54 365 4 201 4 202 34 267 38 81 87 138 139 161 47 22 79 23 143 7z
m-260 -18 c-7 -11 -17 -20 -22 -20 -5 0 -1 9 9 20 10 11 20 20 22 20 2 0 -2
-9 -9 -20z m940 -22 c-6 -18 -28 -21 -28 -4 0 9 7 16 16 16 9 0 14 -5 12 -12z
m-1298 -8 c0 -11 -49 -37 -139 -74 -96 -39 -97 -31 -2 19 46 24 88 48 94 54
14 14 47 14 47 1z m124 -45 c-18 -45 -18 -94 1 -101 8 -4 15 -18 15 -32 l0
-26 30 34 30 35 -7 -40 c-5 -22 -7 -116 -7 -210 1 -152 4 -181 29 -270 40
-146 42 -165 16 -165 -17 0 -21 -6 -21 -32 0 -34 -39 -99 -40 -66 0 9 4 28 10
42 11 30 0 41 -36 32 -17 -5 -26 -16 -31 -36 -3 -17 -9 -30 -14 -30 -8 0 -69
179 -69 205 0 19 11 19 36 0 25 -19 31 -18 38 1 8 21 -13 92 -30 98 -7 3 -18
-2 -24 -10 -7 -8 -16 -14 -21 -14 -19 0 -8 44 27 106 34 61 38 89 11 78 -7 -2
-24 -22 -37 -44 -14 -22 -28 -40 -33 -40 -11 0 5 27 42 74 39 48 38 80 -2 84
-37 4 -51 34 -43 96 6 58 31 86 77 86 39 0 45 17 18 46 -18 20 -30 24 -52 20
-26 -5 -28 -4 -22 17 15 51 65 96 107 97 15 0 16 -3 2 -35z m2115 -13 c7 -14
4 -29 -15 -60 -14 -23 -29 -42 -33 -42 -17 0 -29 98 -14 113 13 14 53 6 62
-11z m-1039 -2 c13 -9 13 -10 0 -10 -8 0 -22 5 -30 10 -13 9 -13 10 0 10 8 0
22 -5 30 -10z m-2648 -37 c-11 -16 -35 -41 -53 -58 -28 -25 -30 -26 -14 -5 26
33 78 90 83 90 2 0 -6 -12 -16 -27z m1734 1 c-4 -9 -9 -15 -11 -12 -3 3 -3 13
1 22 4 9 9 15 11 12 3 -3 3 -13 -1 -22z m-696 -26 c0 -4 -7 -8 -15 -8 -16 0
-38 34 -28 44 7 7 43 -23 43 -36z m2140 12 c0 -14 -46 -60 -59 -60 -22 0 -21
21 2 29 13 5 27 17 30 25 7 18 27 22 27 6z m-2035 -39 c-13 -13 -85 -43 -85
-36 0 9 64 45 80 45 9 0 10 -3 5 -9z m3110 -31 c-10 -11 -23 -20 -29 -20 -6 0
0 9 14 20 32 25 38 25 15 0z m-5048 -32 c-3 -8 -6 -5 -6 6 -1 11 2 17 5 13 3
-3 4 -12 1 -19z m1808 12 c-10 -16 -85 -52 -85 -40 0 12 59 50 78 50 7 0 10
-5 7 -10z m-1125 -3 c0 -2 -10 -12 -22 -23 l-23 -19 19 23 c18 21 26 27 26 19z
m4185 -17 c0 -22 -93 -76 -107 -62 -18 18 -1 42 44 62 47 21 63 21 63 0z
m-4515 -9 c-19 -12 -117 -26 -108 -16 9 9 65 23 98 24 19 0 21 -2 10 -8z
m2968 -15 c3 -12 -1 -17 -10 -14 -7 3 -15 13 -16 22 -3 12 1 17 10 14 7 -3 15
-13 16 -22z m-3165 -13 c-7 -2 -19 -2 -25 0 -7 3 -2 5 12 5 14 0 19 -2 13 -5z
m4307 -13 c-24 -15 -37 -11 -16 5 11 8 22 12 25 9 3 -3 -1 -9 -9 -14z m-2614
-22 l29 -31 -32 22 c-35 23 -50 41 -35 41 4 0 21 -14 38 -32z m3067 -8 c-31
-29 -51 -40 -74 -40 -32 0 -32 0 -13 21 24 27 83 58 109 58 16 0 12 -7 -22
-39z m507 15 c0 -7 -81 -27 -87 -21 -3 3 5 10 18 15 25 10 69 14 69 6z m-690
-43 c13 -10 20 -24 16 -30 -9 -15 -130 -94 -421 -275 -249 -155 -377 -242
-417 -284 l-23 -25 30 7 c52 13 110 41 186 92 41 27 96 62 123 77 27 16 65 44
86 62 21 19 56 41 79 49 50 17 142 76 279 178 57 42 107 77 111 77 15 0 61
-41 61 -55 0 -7 -62 -53 -137 -101 -76 -48 -280 -181 -454 -295 -378 -248
-589 -377 -627 -381 -19 -2 -27 -8 -26 -20 2 -24 -3 -23 -38 7 -33 28 -79 33
-98 10 -10 -12 -10 -21 0 -45 12 -28 10 -33 -10 -55 -13 -14 -94 -61 -179
-105 -178 -90 -389 -215 -571 -336 -148 -98 -180 -123 -162 -131 20 -8 14 -22
-20 -43 -36 -22 -48 -19 -41 9 4 14 -3 24 -24 34 -38 20 -67 53 -58 68 11 16
169 117 411 261 302 180 445 258 504 273 29 8 55 17 59 20 3 4 5 54 3 112 -3
82 0 110 12 129 21 30 76 58 146 73 52 11 471 240 845 462 72 42 147 86 168
98 21 11 60 39 88 61 57 45 68 47 99 22z m245 -9 c-3 -16 -17 -44 -31 -64 -13
-19 -24 -47 -24 -62 0 -31 -19 -36 -27 -7 -3 10 -14 22 -24 25 -31 10 -22 30
37 84 63 58 79 63 69 24z m305 17 c-20 -13 -33 -13 -25 0 3 6 14 10 23 10 15
0 15 -2 2 -10z m-2305 -70 l0 -65 -35 0 c-35 0 -35 1 -38 47 -2 37 1 51 18 68
38 38 55 23 55 -50z m-3295 34 c0 -17 -22 -14 -28 4 -2 7 3 12 12 12 9 0 16
-7 16 -16z m1815 6 c-3 -5 -16 -10 -28 -10 -18 0 -19 2 -7 10 20 13 43 13 35
0z m1856 -14 c18 -38 4 -76 -27 -76 -21 0 -25 3 -19 18 4 9 9 28 10 42 4 38 4
40 15 40 6 0 15 -11 21 -24z m-307 -51 c6 -28 5 -29 -9 -11 -8 11 -15 34 -14
50 0 26 2 28 8 11 4 -11 11 -33 15 -50z m-1644 25 c-46 -25 -63 -25 -25 0 17
11 37 20 45 20 8 -1 -1 -9 -20 -20z m690 -94 c39 -32 68 -61 66 -64 -5 -4
-166 126 -166 134 0 9 30 -12 100 -70z m-575 44 c10 -11 14 -20 8 -20 -5 0
-18 9 -28 20 -10 11 -14 20 -8 20 5 0 18 -9 28 -20z m1266 -68 c6 -23 9 -45 6
-48 -9 -9 -57 92 -57 118 l0 23 20 -25 c10 -14 24 -44 31 -68z m-1358 72 c3
-4 2 -16 -4 -26 -13 -24 -35 -9 -26 16 7 17 19 21 30 10z m2283 -82 c-13 -13
-17 9 -10 50 l9 43 3 -44 c2 -23 1 -46 -2 -49z m-3417 34 c17 -21 9 -77 -12
-90 -15 -9 -21 -7 -33 8 -14 20 -19 77 -7 89 11 12 40 8 52 -7z m1591 -36 c0
-16 -4 -30 -10 -30 -11 0 -14 43 -3 53 11 12 13 8 13 -23z m-1482 3 c5 -10 14
-47 20 -83 29 -170 27 -200 -13 -200 -19 0 -26 7 -30 28 -3 15 -10 41 -15 57
-10 32 -6 167 5 198 4 9 11 17 16 17 4 0 12 -8 17 -17z m221 -12 c57 -30 68
-47 49 -79 -9 -15 -19 -46 -23 -69 -9 -54 -23 -72 -60 -75 -41 -3 -52 6 -65
50 -11 41 -14 175 -3 185 13 13 64 7 102 -12z m3381 -32 c-88 -81 -122 -97
-41 -20 41 39 79 71 85 71 6 -1 -14 -24 -44 -51z m850 15 c0 -14 -5 -34 -10
-45 -13 -23 -40 -26 -40 -4 0 8 -4 15 -10 15 -20 0 -9 26 18 42 37 23 42 22
42 -8z m-3994 1 c-25 -19 -46 -19 -46 0 0 10 10 15 33 15 30 -1 31 -1 13 -15z
m1234 -46 c0 -11 -4 -17 -10 -14 -5 3 -10 15 -10 26 0 11 5 17 10 14 6 -3 10
-15 10 -26z m877 -71 c-3 -7 -5 -2 -5 12 0 14 2 19 5 13 2 -7 2 -19 0 -25z
m-1168 -60 c1 -5 -6 -8 -14 -8 -9 0 -20 -10 -26 -22 -7 -18 -8 -11 -5 30 7 71
17 84 32 41 7 -18 13 -37 13 -41z m1711 11 c0 -8 -7 -6 -20 6 -11 10 -20 27
-20 38 0 18 2 17 20 -6 11 -14 20 -31 20 -38z m-3253 21 c8 -21 16 -28 26 -24
26 10 36 -29 34 -122 -2 -77 -5 -89 -21 -92 -10 -2 -22 0 -28 6 -10 10 -38
176 -38 230 0 40 12 41 27 2z m3064 -83 c-12 -30 -41 -36 -60 -13 -14 17 -6
38 38 95 l26 35 3 -45 c2 -25 -2 -57 -7 -72z m-1281 20 c0 -16 -4 -26 -10 -22
-5 3 -10 23 -10 43 0 28 3 33 10 22 5 -8 10 -28 10 -43z m-1848 -39 c-9 -9
-12 -4 -11 23 0 32 1 33 11 11 8 -17 8 -26 0 -34z m2638 -70 c0 -13 -63 -8
-95 7 -16 7 -24 14 -17 14 7 1 22 17 34 37 l21 35 28 -43 c16 -24 29 -46 29
-50z m-666 13 c-6 -6 -24 19 -24 34 1 6 7 1 15 -9 8 -11 12 -22 9 -25z m-1154
4 c0 -7 -30 -18 -98 -39 -74 -22 -64 -1 11 23 64 21 87 25 87 16z m3304 -33
c-21 -16 -109 -75 -194 -132 -85 -57 -210 -145 -278 -197 -68 -51 -128 -93
-133 -93 -25 0 -3 34 49 73 49 37 499 332 557 365 38 22 38 12 -1 -16z m-4107
-19 c-3 -10 -5 -4 -5 12 0 17 2 24 5 18 2 -7 2 -21 0 -30z m431 20 c10 -19 27
-106 37 -190 6 -47 5 -53 -18 -68 -14 -9 -41 -19 -60 -22 -33 -5 -37 -3 -43
21 -7 30 3 48 15 27 5 -7 14 -10 20 -7 15 10 14 48 -3 71 -11 16 -16 17 -29 6
-14 -11 -17 -7 -27 26 -16 56 -23 120 -17 137 9 24 113 22 125 -1z m1099 -30
c-3 -10 -5 -2 -5 17 0 19 2 27 5 18 2 -10 2 -26 0 -35z m3308 -1 c-3 -3 -16 5
-28 17 l-22 23 28 -17 c15 -10 25 -20 22 -23z m-4586 11 c7 -15 16 -63 36
-202 5 -37 -4 -51 -34 -51 -39 0 -41 6 -24 56 14 40 14 47 0 62 -14 16 -37 83
-37 109 0 14 27 43 40 43 5 0 13 -8 19 -17z m2024 -83 c-10 -94 -16 -122 -24
-109 -5 8 -9 42 -9 77 0 55 2 63 18 60 11 -2 16 -11 15 -28z m768 2 c-11 -16
-27 -35 -36 -42 -17 -14 -20 -46 -5 -55 6 -3 10 -15 10 -26 0 -22 -34 -26 -75
-7 -23 10 -28 10 -36 -5 -6 -9 -14 -17 -19 -17 -20 0 -9 33 30 90 34 50 47 61
83 70 23 6 47 13 52 15 6 2 11 4 13 4 2 1 -6 -12 -17 -27z m-841 -30 c0 -9 -5
-24 -10 -32 -7 -11 -10 -5 -10 23 0 23 4 36 10 32 6 -3 10 -14 10 -23z m-693
-39 c-3 -10 -5 -4 -5 12 0 17 2 24 5 18 2 -7 2 -21 0 -30z m3568 17 c10 -11
14 -20 9 -20 -5 0 -15 9 -22 20 -7 11 -11 20 -9 20 2 0 12 -9 22 -20z m-2745
-95 c-18 -19 -36 -32 -39 -30 -2 3 11 21 29 40 18 19 36 32 39 30 2 -3 -11
-21 -29 -40z m-645 17 c0 -18 -20 -15 -23 4 -3 10 1 15 10 12 7 -3 13 -10 13
-16z m1172 -99 c-3 -10 -5 -4 -5 12 0 17 2 24 5 18 2 -7 2 -21 0 -30z m-687 2
c0 -14 -4 -25 -9 -25 -4 0 -6 11 -3 25 2 14 6 25 8 25 2 0 4 -11 4 -25z m630
-6 c0 -25 -17 -59 -30 -59 -13 0 -13 32 0 65 11 29 30 25 30 -6z m-1465 -9
c16 -16 25 -33 22 -37 -8 -7 -67 45 -67 59 0 16 17 8 45 -22z m1023 -14 c18
-18 6 -53 -38 -106 -33 -40 -45 -38 -93 23 -36 43 -32 80 10 96 36 14 102 7
121 -13z m2831 -68 c-25 -21 -39 -15 -39 17 0 13 -5 36 -11 52 -10 27 -8 26
31 -12 l41 -40 -22 -17z m-3150 49 c23 -11 26 -18 24 -57 -2 -49 -70 -270 -83
-270 -12 0 -19 55 -26 209 l-7 144 33 -6 c17 -4 44 -13 59 -20z m666 13 c18
-29 -83 -140 -127 -140 -16 0 -35 37 -40 80 -3 23 3 27 62 47 73 25 96 28 105
13z m-1218 -32 c-3 -7 -5 -2 -5 12 0 14 2 19 5 13 2 -7 2 -19 0 -25z m-1182
-19 c19 -35 55 -172 55 -206 0 -18 -6 -23 -24 -23 -13 0 -29 6 -36 14 -16 20
-37 104 -45 182 -7 60 -6 64 14 64 13 0 26 -11 36 -31z m197 4 c18 -20 69
-174 62 -185 -8 -13 -86 -30 -109 -24 -24 6 -47 55 -66 144 -8 40 -8 56 1 67
18 21 93 19 112 -2z m772 -35 c9 -12 16 -25 16 -28 0 -4 -22 -6 -50 -6 -27 0
-50 2 -50 5 0 7 53 50 62 51 4 0 14 -10 22 -22z m146 17 c0 -2 -18 -14 -41
-26 -23 -11 -38 -15 -34 -9 4 7 21 18 39 26 36 16 36 15 36 9z m129 -37 c-23
-44 -71 -109 -76 -104 -7 7 69 126 80 126 4 0 2 -10 -4 -22z m907 0 c15 -47 8
-101 -16 -120 -42 -34 -89 -13 -75 34 8 26 66 107 77 108 4 0 10 -10 14 -22z
m-2256 -48 c0 -5 -7 -10 -16 -10 -8 0 -12 5 -9 10 3 6 10 10 16 10 5 0 9 -4 9
-10z m3098 -12 c5 -25 -77 -117 -140 -157 -60 -38 -324 -223 -654 -458 -111
-79 -207 -143 -213 -143 -14 0 -15 99 -1 135 11 30 63 55 114 55 73 0 361 171
676 401 190 139 193 142 185 169 -6 18 -3 21 11 18 11 -2 20 -11 22 -20z
m-1088 -13 c15 -18 6 -46 -21 -63 -20 -13 -21 -12 -16 10 4 12 7 33 7 46 0 25
12 29 30 7z m-823 -47 c-2 -13 -4 -5 -4 17 -1 22 1 32 4 23 2 -10 2 -28 0 -40z
m237 29 c51 -29 65 -51 48 -77 -6 -11 -12 -51 -12 -90 0 -75 -23 -150 -46
-150 -8 0 -14 6 -14 13 0 20 28 171 35 188 4 12 -7 28 -39 55 -43 35 -56 61
-39 77 11 11 26 8 67 -16z m-1499 -25 c0 -31 -19 -28 -23 4 -3 18 0 25 10 22
7 -3 13 -14 13 -26z m109 -110 c10 -52 15 -96 12 -99 -15 -15 -56 129 -56 197
1 43 1 44 14 20 7 -14 21 -67 30 -118z m1906 93 c0 -8 -4 -15 -10 -15 -5 0
-10 7 -10 15 0 8 5 15 10 15 6 0 10 -7 10 -15z m144 -76 c-29 -32 -54 -43 -54
-24 0 25 49 70 63 56 8 -8 5 -16 -9 -32z m1095 -25 c6 -14 9 -29 6 -34 -15
-25 -215 -64 -215 -42 0 14 74 42 114 42 36 0 66 21 66 46 0 23 16 16 29 -12z
m-2039 -10 c0 -11 6 -14 20 -9 23 7 26 2 6 -14 -11 -9 -18 -8 -30 4 -18 19
-21 35 -6 35 6 0 10 -7 10 -16z m-960 -4 c21 -11 80 -180 80 -229 0 -27 -3
-31 -28 -31 -16 0 -36 8 -44 18 -21 23 -82 217 -75 237 7 17 39 20 67 5z m212
-31 c23 -13 91 -156 84 -176 -8 -21 -94 -56 -121 -49 -15 4 -27 17 -34 38 -16
52 -33 176 -26 188 8 13 71 13 97 -1z m2889 -185 c-23 -48 -44 -85 -46 -82 -3
3 13 47 37 98 23 51 44 88 46 82 2 -6 -15 -50 -37 -98z m-3291 71 c0 -8 -4
-15 -10 -15 -5 0 -10 7 -10 15 0 8 5 15 10 15 6 0 10 -7 10 -15z m82 -42 c45
-51 65 -138 31 -131 -19 4 -86 124 -77 139 8 14 30 11 46 -8z m1115 -15 c-3
-8 -6 -5 -6 6 -1 11 2 17 5 13 3 -3 4 -12 1 -19z m1593 -9 c-12 -16 -25 -28
-27 -25 -8 8 25 56 38 56 6 0 1 -14 -11 -31z m-60 -84 c-7 -9 -15 -13 -18 -10
-3 2 1 11 8 20 7 9 15 13 18 10 3 -2 -1 -11 -8 -20z m-1086 -36 c-10 -11 -28
-26 -39 -31 -14 -8 -12 -2 9 21 33 34 61 44 30 10z m-1371 -10 c36 -10 42 -17
73 -85 19 -40 37 -87 40 -104 6 -27 4 -30 -18 -30 -42 0 -70 31 -113 124 -52
111 -52 115 18 95z m2927 -61 c-73 -142 -197 -315 -288 -404 -49 -49 -168
-131 -177 -123 -2 2 42 42 97 89 150 128 246 246 323 400 38 76 64 114 73 105
3 -3 -10 -33 -28 -67z m-2673 -24 c54 -53 78 -113 55 -136 -18 -18 -71 -13
-88 8 -18 22 -94 177 -94 192 0 24 78 -15 127 -64z m1922 -6 c-12 -22 -35 -24
-43 -3 -7 19 35 50 45 33 4 -7 3 -20 -2 -30z m451 30 c0 -19 -57 -101 -92
-133 -18 -17 -26 -22 -19 -13 8 11 10 28 6 46 -5 26 0 34 41 71 48 42 64 50
64 29z m-283 -53 c-4 -8 -11 -15 -17 -15 -7 0 -7 6 0 21 13 23 26 19 17 -6z
m-1076 -28 c-8 -8 -11 -7 -11 4 0 20 13 34 18 19 3 -7 -1 -17 -7 -23z m-146
-17 c16 -16 36 -30 45 -30 8 0 45 -29 80 -65 36 -36 95 -86 131 -111 37 -25
75 -54 85 -66 15 -18 7 -15 -41 12 -132 73 -271 185 -327 263 -26 36 -9 35 27
-3z m380 20 c3 -6 3 -20 -1 -32 -6 -21 -7 -21 -20 -3 -8 10 -14 25 -14 32 0
15 26 18 35 3z m698 -38 c-8 -22 -34 -52 -45 -52 -15 0 -9 27 13 54 22 28 42
27 32 -2z m443 -27 c-45 -54 -59 -60 -21 -7 46 61 48 63 53 57 3 -2 -12 -25
-32 -50z m-696 -25 c0 -6 -9 -29 -21 -51 -15 -30 -32 -46 -65 -61 -41 -17
-167 -39 -154 -26 3 3 52 38 110 77 102 69 130 82 130 61z m-468 -37 c35 -34
38 -73 5 -73 -51 0 -87 56 -55 88 16 16 18 16 50 -15z m118 -11 c0 -5 10 -14
23 -20 20 -10 21 -11 2 -11 -11 -1 -33 8 -50 19 l-30 20 28 0 c15 0 27 -4 27
-8z m359 -84 c-7 -13 -14 -18 -16 -11 -3 7 1 22 8 35 7 13 14 18 16 11 3 -7
-1 -22 -8 -35z m-1781 -4 c28 -19 30 -39 3 -24 -29 15 -32 13 -21 -15 14 -38
-4 -30 -23 9 -12 26 -13 36 -4 40 19 7 21 7 45 -10z m2265 -23 c-67 -57 -312
-171 -366 -171 -12 0 23 18 78 40 55 22 147 66 205 99 58 33 107 60 110 60 3
0 -10 -12 -27 -28z m-2057 3 c22 -11 43 -32 55 -56 26 -51 19 -59 -12 -14 -27
40 -56 56 -104 56 -37 0 -56 16 -28 23 35 9 55 7 89 -9z m-346 -16 c0 -13 -23
-5 -28 10 -2 7 2 10 12 6 9 -3 16 -11 16 -16z m201 -60 c11 -21 11 -22 -4 -9
-10 7 -17 17 -17 22 0 15 9 10 21 -13z m1447 -64 c35 -13 78 -24 96 -24 20 0
40 -8 50 -19 10 -11 28 -22 40 -24 15 -3 12 -5 -9 -6 -70 -3 -274 75 -335 128
-23 20 -20 19 35 -5 33 -15 88 -37 123 -50z m1082 22 c0 -8 -15 -23 -32 -35
-62 -39 -111 -81 -122 -104 -6 -12 -31 -31 -55 -43 -24 -12 -51 -30 -60 -42
-57 -71 -275 -123 -511 -121 -96 1 -244 13 -217 18 4 0 51 6 105 11 172 19
282 48 282 76 0 7 17 18 37 23 37 11 60 7 29 -5 -16 -6 -23 -34 -8 -34 4 0 24
9 44 20 20 11 68 26 106 34 104 22 199 73 313 171 53 45 89 58 89 31z m-2384
-190 l15 -31 -31 35 c-32 36 -41 62 -14 39 8 -7 22 -26 30 -43z m1044 4 c8 -5
12 -12 9 -15 -8 -8 -39 5 -39 16 0 11 11 11 30 -1z m131 -61 c45 -22 79 -43
75 -46 -8 -8 -94 15 -122 34 -23 15 -51 53 -39 53 3 0 42 -18 86 -41z m327 -6
c-10 -2 -26 -2 -35 0 -10 3 -2 5 17 5 19 0 27 -2 18 -5z m-1041 -269 c-3 -3
-12 -4 -19 -1 -8 3 -5 6 6 6 11 1 17 -2 13 -5z"/>
<path d="M2517 12133 c-33 -5 -121 -86 -115 -105 3 -9 30 -15 79 -18 81 -6 95
-21 28 -32 -24 -4 -49 -14 -57 -21 -29 -30 82 -84 146 -71 42 8 70 40 55 62
-5 9 -15 18 -22 18 -6 1 -14 2 -18 3 -4 0 13 21 37 46 48 49 47 57 -14 94 -35
22 -78 30 -119 24z"/>
<path d="M2382 11843 c-31 -6 -49 -51 -28 -71 12 -13 19 -12 53 4 24 12 39 27
41 42 2 12 -1 22 -6 22 -6 0 -16 2 -24 4 -7 2 -23 1 -36 -1z"/>
<path d="M2315 11698 c-48 -17 -81 -45 -99 -82 -32 -68 -10 -105 44 -74 26 15
27 14 22 -7 -5 -28 30 -55 71 -55 56 0 124 53 114 90 -6 24 0 25 24 4 16 -14
20 -14 48 1 39 20 39 33 -1 73 -60 57 -147 77 -223 50z"/>
<path d="M2530 9529 c-65 -10 -78 -15 -68 -24 3 -3 98 -7 211 -8 152 -1 209 1
218 10 7 7 9 16 5 20 -11 12 -291 13 -366 2z"/>
<path d="M2718 8878 c-30 -20 60 -53 167 -60 30 -2 40 1 43 14 4 20 -13 26
-118 42 -46 8 -84 9 -92 4z"/>
<path d="M1535 8060 c-10 -16 3 -44 30 -70 23 -22 25 -22 50 -6 25 16 27 16
39 1 13 -18 47 -17 53 1 7 21 -27 44 -64 44 -20 0 -46 9 -60 20 -29 22 -39 25
-48 10z"/>
<path d="M1650 7334 c-46 -14 -100 -33 -120 -42 l-35 -17 30 -3 c35 -3 175 37
231 67 l39 20 -30 0 c-16 0 -68 -11 -115 -25z"/>
<path d="M5370 6553 c0 -5 7 -18 15 -29 12 -16 14 -16 15 -3 0 9 -7 22 -15 29
-8 7 -15 8 -15 3z"/>
<path d="M3078 6753 c-23 -6 -23 -19 -1 -27 21 -9 303 -36 369 -36 32 0 56 5
63 14 10 11 8 15 -6 20 -44 12 -396 37 -425 29z"/>
<path d="M410 5702 c0 -38 24 -71 40 -55 9 8 9 20 0 47 -14 43 -40 48 -40 8z"/>
<path d="M5746 5349 c-27 -21 -36 -59 -13 -59 19 0 57 43 57 63 0 22 -12 21
-44 -4z"/>
<path d="M5792 5302 c-23 -15 -79 -62 -124 -103 -46 -42 -96 -84 -111 -94 -41
-26 -33 -55 21 -71 51 -15 112 -54 112 -72 0 -20 211 -109 230 -97 23 15 0
291 -35 413 -18 62 -32 65 -93 24z m58 -157 c28 -30 17 -48 -26 -43 -32 3 -43
30 -24 53 17 20 23 19 50 -10z"/>
<path d="M3600 3609 c-9 -16 -8 -26 5 -45 20 -31 42 -31 56 0 23 49 -36 93
-61 45z"/>
<path d="M3768 2858 c-16 -13 -22 -33 -19 -71 1 -14 8 -18 34 -15 26 2 33 8
35 29 2 14 -5 36 -15 48 -15 19 -21 20 -35 9z"/>
<path d="M1714 2457 c-9 -24 0 -52 16 -52 21 0 24 39 6 55 -13 10 -17 9 -22
-3z"/>
<path d="M8253 9675 c-3 -9 -3 -18 0 -21 9 -9 27 6 27 22 0 19 -19 18 -27 -1z"/>
<path d="M4985 8773 c-3 -10 -13 -49 -21 -86 -17 -83 -32 -116 -45 -96 -12 21
-17 9 -29 -68 -20 -127 2 -229 25 -120 9 40 12 46 24 35 11 -10 14 -10 18 0 6
17 43 15 43 -3 0 -8 -11 -49 -25 -92 -25 -76 -45 -223 -31 -223 16 0 67 134
86 228 25 125 26 160 3 158 -25 -2 -34 54 -27 177 4 69 3 107 -4 107 -5 0 -13
-8 -17 -17z m2 -265 c-3 -7 -5 -2 -5 12 0 14 2 19 5 13 2 -7 2 -19 0 -25z"/>
<path d="M7874 8389 c-10 -17 13 -36 27 -22 12 12 4 33 -11 33 -5 0 -12 -5
-16 -11z"/>
</g>
</svg>
