<?xml version="1.0" standalone="no"?>
<!DOCTYPE svg PUBLIC "-//W3C//DTD SVG 20010904//EN"
 "http://www.w3.org/TR/2001/REC-SVG-20010904/DTD/svg10.dtd">
<svg version="1.0" xmlns="http://www.w3.org/2000/svg"
 width="1280.000000pt" height="1088.000000pt" viewBox="0 0 1280.000000 1088.000000"
 preserveAspectRatio="xMidYMid meet">
<metadata>
Created by potrace 1.15, written by Peter Selinger 2001-2017
</metadata>
<g transform="translate(0.000000,1088.000000) scale(0.100000,-0.100000)"
fill="#000000" stroke="none">
<path d="M8823 10018 c-138 -159 -396 -466 -1466 -1746 -544 -651 -992 -1182
-997 -1180 -4 2 -49 55 -101 118 -161 198 -1470 1799 -1758 2150 -364 444
-611 740 -617 740 -11 0 -81 -41 -108 -63 -16 -13 -30 -34 -31 -48 -2 -27 24
-26 -295 -14 -151 6 -202 4 -279 -9 -240 -42 -444 -148 -611 -316 -147 -148
-264 -351 -494 -851 -211 -462 -295 -624 -407 -789 -176 -259 -363 -405 -597
-467 -130 -34 -401 -43 -565 -19 -117 17 -187 20 -187 8 0 -12 126 -171 599
-757 744 -922 1523 -1880 1535 -1886 23 -13 275 -59 357 -65 111 -8 236 13
426 71 235 72 291 104 437 248 190 189 293 361 531 892 250 557 396 805 578
987 136 137 290 221 477 261 139 30 391 30 555 -1 66 -13 128 -25 137 -28 19
-6 278 -317 278 -335 0 -5 -242 -301 -538 -657 -502 -604 -924 -1114 -1070
-1294 -34 -42 -62 -81 -62 -86 0 -5 31 -31 69 -57 48 -33 75 -45 89 -41 15 5
1220 1440 1568 1868 44 53 81 97 84 98 3 0 100 -116 215 -257 840 -1034 1439
-1765 1456 -1773 16 -9 31 -4 79 26 100 61 99 57 22 154 -122 155 -560 698
-1091 1350 -288 355 -528 650 -533 657 -6 8 40 72 147 201 l157 189 96 17
c168 29 284 38 394 32 463 -27 723 -218 1001 -731 75 -139 147 -293 282 -600
239 -544 381 -767 603 -949 84 -68 155 -101 346 -161 274 -85 388 -92 646 -40
l135 27 370 446 c1205 1451 1785 2158 1785 2175 0 10 -101 5 -240 -13 -170
-21 -379 -7 -528 36 -163 47 -279 121 -417 266 -166 174 -300 409 -545 958
-247 552 -363 755 -519 910 -165 163 -364 267 -596 310 -83 16 -304 19 -464 6
-111 -9 -113 -9 -107 11 5 15 -3 29 -33 56 -34 31 -90 67 -104 67 -3 0 -45
-46 -94 -102z m-260 -1095 c-23 -2 -64 -2 -90 0 -26 2 -7 3 42 3 50 0 71 -1
48 -3z m-3875 -540 c-16 -2 -40 -2 -55 0 -16 2 -3 4 27 4 30 0 43 -2 28 -4z
m325 -30 c-7 -2 -21 -2 -30 0 -10 3 -4 5 12 5 17 0 24 -2 18 -5z m555 -1000
c-15 -2 -42 -2 -60 0 -18 2 -6 4 27 4 33 0 48 -2 33 -4z m6359 -399 c-3 -3
-12 -4 -19 -1 -8 3 -5 6 6 6 11 1 17 -2 13 -5z m-10319 -531 c-10 -2 -28 -2
-40 0 -13 2 -5 4 17 4 22 1 32 -1 23 -4z m8765 -1040 c-7 -2 -19 -2 -25 0 -7
3 -2 5 12 5 14 0 19 -2 13 -5z m-7845 -10 c-10 -2 -26 -2 -35 0 -10 3 -2 5 17
5 19 0 27 -2 18 -5z"/>
<path d="M910 4411 c-131 -7 -162 -14 -154 -36 7 -18 -50 -29 -261 -52 -166
-18 -169 -18 -100 -24 39 -4 145 -7 238 -8 138 -1 167 -4 167 -15 0 -8 12 -17
28 -19 26 -4 25 -4 -5 -6 -50 -2 -51 -21 -1 -21 24 0 50 -5 58 -11 11 -8 -3
-9 -52 -5 -38 3 -68 3 -68 1 0 -2 4 -15 10 -29 7 -20 6 -27 -8 -35 -13 -8 -3
-10 39 -11 108 0 240 -13 227 -21 -7 -5 -67 -9 -133 -9 -71 0 -114 -4 -106 -9
11 -7 11 -9 0 -14 -8 -3 8 -6 34 -6 51 -1 56 -15 10 -24 -16 -3 -55 -12 -88
-21 -33 -8 -78 -16 -100 -16 -30 0 -36 -3 -25 -10 8 -5 47 -9 85 -8 61 1 65 2
30 8 -37 7 -35 7 23 9 47 1 64 -3 68 -14 4 -8 16 -16 28 -17 11 -1 -4 -4 -34
-8 -38 -5 1 -8 125 -10 l180 -4 -165 -6 c-91 -4 -184 -8 -208 -9 -36 -1 -43
-4 -40 -18 3 -13 -6 -21 -26 -29 -29 -10 -28 -11 42 -29 79 -21 78 -30 -8 -40
-64 -7 -103 -25 -57 -25 16 0 26 -4 23 -9 -3 -5 8 -11 25 -15 17 -3 28 -10 24
-16 -3 -5 4 -11 17 -11 19 -1 18 -3 -7 -9 -16 -4 -48 -9 -70 -10 l-40 -2 35
-10 35 -11 -50 -18 -50 -17 60 -2 c90 -3 126 -18 46 -19 -35 -1 -61 -4 -58 -8
4 -3 0 -15 -10 -25 -14 -16 -33 -18 -157 -18 -209 0 -196 -16 21 -24 103 -4
220 -13 258 -20 l70 -13 -82 -8 c-97 -9 -100 -25 -5 -26 37 0 76 -4 87 -9 12
-5 -34 -9 -124 -9 -111 -1 -142 -4 -133 -13 6 -6 51 -14 99 -16 49 -2 92 -8
97 -13 6 -6 2 -9 -10 -9 -51 0 -444 -30 -479 -37 l-40 -7 40 -6 40 -6 -45 -20
-45 -19 50 -6 c47 -5 48 -6 25 -16 -14 -7 -20 -12 -15 -13 6 -1 93 -9 195 -19
l185 -19 -170 -1 c-211 -2 -203 -18 14 -30 150 -9 193 -17 155 -32 -11 -4 16
-8 66 -8 95 -1 95 -20 0 -22 -52 -2 -51 -2 30 -13 l85 -11 -70 -3 c-45 -2 -65
-6 -55 -12 15 -10 5 -13 -85 -27 l-50 -7 55 -6 55 -5 -40 -7 c-22 -4 -60 -8
-85 -9 -42 -1 -41 -2 25 -14 l70 -12 -70 -3 c-38 -2 -78 -2 -88 -2 -10 1 -15
-3 -12 -8 3 -6 13 -10 21 -10 8 0 17 -7 20 -15 4 -8 14 -15 23 -15 31 0 32
-13 4 -26 -23 -10 -24 -13 -8 -13 16 -1 17 -3 5 -11 -10 -6 0 -11 38 -16 70
-9 56 -24 -24 -24 -35 0 -64 -4 -64 -8 0 -5 -10 -14 -22 -20 -19 -9 -7 -11 59
-11 45 -1 84 -5 87 -9 3 -5 -33 -15 -79 -21 -87 -13 -99 -24 -43 -36 l32 -7
-24 -13 c-22 -12 -23 -13 -4 -17 19 -5 19 -5 -1 -12 -47 -18 -49 -20 -12 -24
20 -2 35 -7 32 -13 -4 -5 12 -9 34 -9 45 0 57 -19 14 -21 -16 -1 -1 -6 32 -13
l60 -12 -40 -7 c-22 -4 -60 -7 -85 -7 -42 -1 -44 -2 -26 -15 19 -14 17 -15
-20 -16 -21 0 -48 -4 -58 -8 -16 -6 -14 -10 17 -24 27 -13 67 -17 174 -18 112
-2 127 -3 78 -9 -33 -4 -90 -8 -127 -9 -76 -1 -98 -7 -98 -27 0 -9 12 -14 38
-14 58 0 74 -17 21 -24 -186 -23 -187 -23 -134 -25 31 0 45 -5 40 -10 -13 -12
-125 -31 -186 -31 -32 0 -49 -5 -53 -15 -5 -13 22 -15 200 -15 134 0 203 -3
199 -10 -3 -5 -30 -10 -58 -11 -29 0 -72 -4 -97 -8 l-45 -8 55 -3 55 -2 -40
-8 c-22 -5 -97 -14 -167 -21 -71 -7 -128 -16 -128 -20 0 -18 56 -24 215 -21
99 1 164 -2 155 -7 -8 -4 -84 -16 -168 -26 -84 -10 -149 -22 -145 -26 4 -4 72
-13 150 -20 79 -7 137 -16 130 -21 -6 -4 -29 -8 -49 -8 -37 0 -51 -13 -25 -23
6 -3 -6 -6 -28 -7 -32 -1 -36 -3 -20 -10 11 -5 39 -9 62 -9 53 -1 69 -21 16
-21 -26 0 -34 -3 -24 -9 10 -6 -4 -12 -45 -17 l-59 -7 65 -17 65 -16 -40 -8
c-79 -14 -84 -18 -40 -31 24 -8 32 -13 20 -14 -18 -2 -18 -3 4 -15 28 -16 21
-21 -39 -31 -36 -6 -41 -9 -25 -16 11 -4 32 -8 48 -8 15 -1 27 -5 27 -9 0 -5
19 -14 41 -21 23 -7 38 -16 33 -21 -5 -5 -40 -15 -79 -23 -54 -11 -66 -16 -50
-23 17 -7 15 -10 -20 -20 l-40 -12 65 -2 c36 -1 88 -5 115 -10 l50 -7 -45 -2
c-26 0 -51 -6 -57 -12 -7 -7 -49 -15 -95 -18 l-83 -7 52 -14 c56 -15 61 -30
10 -30 -18 0 -38 -4 -45 -9 -13 -8 178 -21 317 -21 41 0 71 -3 67 -7 -4 -5
-96 -10 -204 -13 l-197 -5 80 -16 80 -15 -60 -8 c-106 -13 -116 -19 -46 -27
87 -11 92 -14 44 -29 -46 -14 -54 -26 -25 -33 9 -3 0 -5 -22 -6 -31 -1 -36 -4
-27 -14 6 -8 8 -17 4 -20 -3 -4 18 -7 48 -8 30 0 77 -4 104 -8 l50 -7 -70 -8
c-89 -10 -102 -14 -42 -15 26 -1 47 -5 47 -11 0 -6 -40 -10 -100 -10 -84 0
-98 -2 -94 -15 4 -8 15 -15 25 -15 24 0 25 -17 2 -22 -10 -2 11 -8 47 -12 41
-5 59 -10 50 -15 -25 -13 -172 -35 -220 -32 -66 3 -42 -10 47 -26 43 -7 110
-19 148 -26 l70 -14 -65 -11 c-36 -6 -84 -14 -108 -18 -59 -9 -63 -24 -5 -24
65 -1 137 -16 141 -29 3 -8 96 -11 308 -11 167 0 304 2 304 4 0 4 226 1388
235 1444 l6 32 282 -2 c155 -1 244 -4 197 -5 -58 -3 -80 -7 -70 -13 10 -7 -7
-10 -55 -11 -38 -1 -73 -1 -78 0 -4 0 -6 -4 -5 -10 2 -7 -13 -16 -32 -21 -29
-8 -32 -11 -17 -19 10 -6 15 -14 12 -19 -3 -5 5 -12 17 -16 22 -7 22 -7 3 -14
-17 -6 -13 -10 23 -20 56 -17 53 -30 -5 -30 -48 0 -48 0 -25 -18 15 -12 21
-24 16 -35 -5 -15 2 -17 62 -18 l69 -1 -67 -22 c-45 -14 -68 -26 -68 -37 0 -8
-5 -20 -12 -27 -9 -9 -5 -12 17 -13 26 0 27 -2 10 -9 -17 -7 -17 -9 -2 -9 30
-2 19 -17 -20 -28 l-38 -10 43 -8 c40 -7 59 -25 26 -25 -8 0 -12 -4 -9 -10 4
-6 -8 -10 -28 -10 -30 0 -34 -3 -30 -20 4 -15 14 -20 37 -20 17 0 38 -5 46
-10 11 -7 5 -10 -22 -10 -27 0 -38 -4 -38 -15 0 -9 -7 -18 -15 -21 -35 -14
-10 -24 55 -24 40 0 70 -4 70 -10 0 -6 -33 -10 -78 -10 -50 0 -85 -5 -97 -14
-18 -13 -18 -14 5 -26 22 -12 22 -13 6 -26 -16 -11 -13 -13 28 -19 57 -9 70
-25 20 -25 -31 0 -35 -2 -24 -15 10 -12 9 -15 -6 -16 -11 0 -14 -3 -6 -6 21
-8 13 -21 -18 -28 -16 -4 -32 -11 -36 -16 -3 -6 4 -7 19 -3 29 7 67 -3 67 -16
0 -6 -11 -12 -25 -16 -14 -3 -23 -10 -20 -14 3 -4 -5 -11 -18 -15 -20 -6 -19
-7 13 -17 l35 -11 -45 -12 -45 -12 35 -11 c34 -10 32 -10 -30 -12 -61 -2 -63
-3 -23 -9 62 -10 64 -21 5 -21 -76 0 -63 -16 18 -23 105 -9 124 -26 30 -28
-41 0 -100 -4 -130 -8 l-55 -6 93 -14 c50 -7 92 -17 92 -22 0 -6 -15 -8 -34
-5 -19 3 -37 2 -40 -3 -3 -5 40 -12 97 -16 186 -13 192 -25 9 -19 -171 5 -173
5 -160 -15 7 -11 25 -23 40 -26 15 -4 26 -12 25 -18 -1 -6 20 -14 48 -18 102
-16 106 -22 20 -35 -71 -10 -75 -12 -32 -13 29 -1 46 -5 42 -11 -3 -5 -16 -10
-28 -10 -18 0 -19 -2 -7 -10 11 -7 0 -10 -37 -10 -36 0 -53 -4 -53 -12 0 -7
-3 -23 -6 -34 -4 -16 0 -23 18 -28 22 -6 22 -7 4 -21 -18 -13 -17 -14 8 -21
25 -6 37 -24 15 -24 -5 0 -7 -5 -3 -11 3 -6 0 -15 -7 -20 -11 -7 -11 -9 3 -9
9 0 23 -7 32 -15 13 -13 60 -15 338 -13 l323 3 103 620 c89 540 102 632 99
715 -2 86 -6 101 -37 158 -49 92 -131 156 -245 192 -55 17 -63 28 -29 35 217
47 317 111 384 246 55 108 75 173 104 339 76 434 52 649 -92 802 -130 139
-272 167 -882 172 -212 2 -441 1 -510 -3z m750 -861 c0 -5 16 -10 35 -10 41 0
43 -5 14 -36 -24 -26 -18 -44 14 -44 17 0 19 -2 8 -9 -12 -8 -8 -11 15 -18
l29 -7 -34 -6 c-34 -5 -57 -30 -28 -30 14 0 14 -3 0 -30 -8 -17 -12 -41 -9
-54 4 -15 0 -28 -10 -37 -14 -12 -12 -15 22 -31 l39 -18 -100 6 c-55 3 -111 1
-125 -4 -20 -8 -6 -13 92 -37 123 -30 147 -52 45 -41 -68 7 -206 -3 -186 -14
8 -4 41 -11 74 -16 l60 -8 -68 -6 c-98 -10 -100 -21 -8 -58 80 -33 118 -61 94
-69 -27 -9 -11 -23 26 -23 22 0 43 -4 46 -10 4 -6 -7 -10 -27 -10 -18 0 -40
-4 -48 -10 -12 -7 -11 -10 5 -16 16 -7 11 -10 -25 -19 l-45 -12 95 -10 c93
-10 91 -10 -102 -12 -153 -1 -198 2 -198 12 0 6 25 166 56 355 l57 342 94 0
c55 0 93 -4 93 -10z"/>
<path d="M9755 4395 c200 -30 201 -30 117 -39 -74 -8 -92 -18 -73 -40 6 -7 8
-16 4 -19 -3 -4 26 -7 66 -7 46 0 70 -4 66 -10 -3 -5 -33 -10 -66 -10 -60 0
-90 -13 -82 -36 2 -7 -3 -19 -12 -27 -14 -14 -11 -16 30 -23 62 -9 67 -24 8
-24 -27 0 -57 -6 -67 -13 -17 -13 -17 -14 -1 -30 9 -9 29 -17 45 -17 34 0 60
-9 60 -21 0 -5 -12 -9 -26 -9 -22 0 -25 -2 -14 -15 11 -13 8 -15 -21 -16 -32
-1 -32 -2 -9 -9 14 -4 41 -9 60 -10 l35 -2 -40 -8 c-22 -5 -122 -14 -222 -21
-101 -7 -180 -15 -177 -18 2 -3 78 -8 167 -12 89 -4 189 -14 222 -22 l60 -15
-42 -1 c-45 -1 -62 -21 -18 -21 50 0 23 -18 -37 -24 -46 -6 -58 -10 -47 -17
11 -8 11 -12 2 -16 -19 -7 -16 -23 5 -23 14 0 15 -2 2 -10 -12 -7 -8 -11 17
-16 46 -9 31 -24 -24 -24 l-46 0 26 -20 c14 -11 42 -24 64 -28 36 -8 34 -9
-39 -17 -112 -11 -103 -27 27 -50 39 -7 57 -13 40 -14 -44 -2 -76 -12 -69 -22
3 -5 -7 -9 -21 -9 -15 0 -24 -4 -20 -10 5 -9 -15 -15 -37 -11 -18 3 -6 -17 13
-22 12 -3 18 -10 15 -15 -3 -6 37 -13 99 -17 58 -4 108 -11 111 -16 3 -5 -37
-9 -93 -10 -79 -1 -90 -3 -58 -10 22 -4 58 -8 80 -9 58 -2 18 -15 -70 -24
-108 -11 -131 -20 -70 -26 l50 -6 -35 -11 -35 -11 43 -1 c61 -1 52 -21 -10
-22 -45 -1 -49 -2 -23 -9 17 -4 48 -8 70 -9 53 -2 26 -21 -30 -21 -85 -1 -92
-15 -10 -20 l80 -5 -73 -9 c-40 -5 -70 -11 -68 -14 3 -2 54 -10 113 -16 l108
-12 -100 -7 c-55 -4 -116 -10 -135 -14 l-35 -6 33 -9 c33 -9 42 -22 20 -31
-10 -4 -10 -6 0 -6 19 -1 14 -21 -6 -21 -11 0 -18 -7 -18 -20 0 -15 7 -20 28
-20 50 0 38 -17 -22 -30 -33 -7 -57 -16 -55 -20 3 -5 53 -14 111 -21 116 -14
117 -16 23 -28 l-64 -8 65 -2 c126 -3 120 -15 -12 -26 -99 -9 -132 -15 -148
-30 -11 -10 -22 -16 -24 -14 -3 2 -53 324 -112 714 -59 391 -110 713 -113 717
-3 4 -235 4 -514 1 -280 -3 -503 -9 -495 -13 7 -4 72 -10 143 -14 72 -3 159
-11 195 -16 36 -5 93 -10 128 -10 34 0 62 -4 62 -10 0 -6 -34 -10 -81 -10 -46
0 -78 -4 -74 -9 3 -5 -3 -12 -12 -14 -17 -4 -17 -5 0 -6 20 -1 23 -17 5 -24
-7 -2 14 -8 47 -12 l60 -9 -60 -11 c-57 -11 -59 -12 -27 -19 49 -11 38 -26
-19 -26 -31 0 -48 -4 -44 -10 3 -5 21 -10 38 -10 51 0 11 -20 -43 -21 l-45 -1
30 -13 30 -13 -30 -12 -30 -12 27 -11 27 -12 -34 -25 c-40 -29 -44 -40 -12
-40 43 0 51 -16 16 -33 l-33 -15 35 -6 c19 -3 57 -9 84 -13 l50 -8 -70 -5
c-45 -3 -71 -10 -72 -17 -2 -7 4 -13 12 -13 8 0 15 -4 15 -9 0 -14 -111 -31
-290 -45 l-165 -12 205 -7 c381 -14 417 -21 235 -48 l-90 -13 50 -12 c28 -7
60 -13 73 -13 12 -1 22 -5 22 -11 0 -6 -31 -10 -72 -11 -75 0 -75 -3 -3 -30
l30 -12 -60 -16 -60 -16 40 -5 40 -5 -40 -7 c-22 -4 -101 -10 -175 -13 -201
-9 -204 -16 -15 -37 120 -13 174 -22 185 -33 13 -13 13 -17 1 -24 -9 -6 8 -12
50 -19 l64 -9 -79 -2 c-59 -1 -77 -4 -69 -12 6 -6 9 -18 6 -25 -3 -8 1 -14 8
-14 11 0 11 -2 -1 -10 -12 -8 -12 -10 3 -16 17 -6 17 -7 0 -20 -10 -7 -13 -14
-8 -14 6 0 -1 -7 -14 -14 -24 -14 -24 -14 15 -20 69 -12 72 -23 8 -36 -55 -12
-57 -13 -31 -22 15 -5 27 -14 27 -19 0 -5 15 -10 33 -10 17 -1 24 -3 15 -6
-21 -5 -23 -19 -5 -26 6 -3 -1 -6 -18 -7 -73 -4 -71 -16 5 -37 l75 -21 -53 -7
c-40 -6 -52 -11 -50 -24 2 -9 12 -19 23 -22 13 -4 0 -9 -37 -14 -32 -4 -55
-11 -52 -16 3 -5 -32 -10 -78 -10 l-83 -2 118 -12 c64 -6 120 -14 123 -17 2
-3 -15 -11 -40 -19 -25 -7 -42 -17 -40 -21 3 -4 -21 -8 -53 -9 -44 -1 -52 -3
-33 -9 14 -4 45 -9 70 -10 142 -5 33 -39 -209 -65 -80 -9 -147 -18 -150 -20
-2 -3 70 -5 160 -6 90 -1 175 -4 189 -8 l25 -7 -25 -8 -25 -9 25 -4 c42 -8 47
-22 9 -30 l-34 -7 50 -11 50 -12 -60 -18 c-33 -10 -54 -20 -47 -22 6 -3 12 -8
12 -12 0 -20 -60 -31 -167 -31 -64 0 -114 -2 -112 -5 3 -2 54 -14 115 -25 134
-26 146 -29 139 -41 -4 -5 -1 -9 5 -9 7 0 8 -6 0 -19 -14 -28 -13 -31 13 -32
15 -1 10 -5 -18 -14 l-40 -12 40 -11 c22 -5 54 -13 70 -17 l30 -8 -30 -7 c-16
-4 -57 -13 -90 -20 l-60 -13 42 -11 c57 -15 60 -21 13 -35 -21 -6 -42 -16 -45
-21 -9 -14 72 -49 115 -51 23 -1 27 -3 13 -6 -22 -4 -348 39 -424 56 -22 5
-39 6 -38 2 1 -14 273 -216 288 -213 9 2 28 6 44 9 15 3 76 2 135 -3 59 -4 96
-10 82 -13 -17 -3 -3 -8 45 -16 l70 -12 -71 -2 c-145 -2 -290 -15 -259 -22 17
-4 55 -7 85 -9 100 -3 102 -19 3 -19 -75 -1 -93 -4 -93 -16 0 -8 -10 -19 -21
-26 -12 -6 -18 -14 -13 -18 19 -13 16 -53 -5 -68 -32 -22 -26 -29 32 -40 l52
-10 -56 -2 c-55 -1 -57 -2 -61 -31 -4 -27 -2 -30 24 -30 15 0 28 -4 28 -10 0
-5 14 -10 30 -10 54 0 32 -18 -31 -25 -52 -6 -58 -9 -42 -20 10 -6 32 -16 48
-20 l30 -8 -25 -7 c-20 -6 -15 -8 23 -9 70 -1 49 -18 -41 -33 -64 -11 -72 -14
-47 -19 17 -4 55 -7 85 -8 74 -2 104 -21 33 -21 -41 0 -58 -5 -80 -25 l-28
-24 55 -1 c30 -1 73 -4 95 -9 40 -7 40 -7 -24 -14 -35 -4 -85 -7 -111 -7 -32
0 -54 -6 -69 -19 l-22 -19 73 -10 73 -9 -110 -3 c-60 -2 -99 -4 -85 -6 14 -3
45 -7 70 -10 l45 -7 -30 -13 -30 -13 32 -1 c17 0 35 -4 38 -10 4 -6 -6 -10
-24 -10 -23 0 -29 -4 -25 -15 4 -11 21 -15 55 -15 73 0 59 -15 -27 -30 -60
-10 -72 -15 -57 -23 28 -15 29 -17 13 -27 -12 -8 -10 -10 7 -10 12 0 24 -4 27
-9 7 -11 -17 -21 -51 -21 -14 0 -32 -8 -39 -17 -16 -21 -18 -79 -4 -88 8 -5 8
-11 0 -20 -8 -9 -5 -14 12 -19 23 -6 23 -7 3 -21 -17 -14 16 -15 315 -13 l334
3 107 660 c60 363 113 690 119 727 11 66 12 67 35 56 14 -6 22 -15 19 -19 -3
-5 13 -9 35 -9 23 0 41 -4 41 -8 0 -4 -19 -17 -42 -29 l-43 -21 35 -9 c19 -6
34 -15 32 -22 -1 -6 10 -11 25 -11 22 0 25 -2 13 -10 -8 -5 -29 -10 -46 -10
-19 0 -34 -6 -38 -15 -5 -13 22 -15 197 -16 209 -2 207 -16 -3 -19 -99 -1
-103 -2 -65 -14 38 -11 39 -12 15 -19 -14 -4 -36 -7 -50 -8 -14 -1 -2 -7 30
-14 l55 -13 -60 -2 c-33 -2 -68 -3 -77 -2 -10 1 -18 -3 -18 -8 0 -6 13 -10 29
-10 16 0 36 -6 43 -13 7 -7 22 -17 33 -21 17 -8 15 -11 -20 -22 -38 -12 -39
-13 -10 -13 59 -2 63 -19 6 -27 l-54 -7 33 -27 c30 -25 32 -28 15 -32 -21 -5
-22 -4 30 -23 l20 -8 -20 -6 c-13 -4 -20 -15 -21 -33 l0 -28 115 -2 116 -1
-105 -7 c-58 -4 -123 -9 -145 -10 -39 -2 -38 -3 20 -15 52 -11 55 -13 25 -15
-19 -1 -29 -4 -22 -7 6 -2 12 -11 12 -19 0 -10 14 -14 48 -15 42 -1 44 -2 17
-9 -16 -4 -22 -8 -12 -9 9 0 17 -5 17 -10 0 -5 37 -13 83 -17 l82 -8 -115 -11
c-63 -6 -123 -15 -134 -20 -16 -7 -14 -10 15 -23 l34 -14 -30 -14 c-27 -12
-19 -13 90 -15 166 -2 204 -16 50 -19 -77 -1 -111 -5 -95 -10 14 -4 40 -8 58
-9 19 -1 31 -5 27 -11 -3 -5 -40 -10 -82 -10 -74 0 -76 -1 -59 -19 13 -15 14
-20 4 -24 -8 -3 -1 -10 17 -18 28 -12 24 -13 -70 -21 -162 -14 -184 -21 -95
-29 147 -13 200 -21 194 -30 -3 -5 20 -9 50 -9 31 0 56 -4 56 -8 0 -5 -26 -13
-57 -19 l-58 -10 54 -2 c73 -1 56 -15 -27 -21 l-67 -6 58 -13 c37 -9 53 -17
45 -23 -7 -4 -21 -8 -31 -8 -10 0 -25 -6 -32 -14 -12 -11 -7 -14 32 -20 25 -3
61 -6 79 -6 19 0 34 -4 34 -10 0 -5 -17 -10 -39 -10 -21 0 -66 -3 -101 -7 -56
-5 -61 -8 -45 -20 11 -7 37 -13 59 -14 23 -1 51 -4 64 -7 18 -6 11 -10 -39
-27 -59 -18 -60 -20 -34 -28 l28 -10 -24 -13 -24 -13 32 -1 c48 0 66 -9 52
-26 -6 -8 -19 -14 -28 -14 -9 0 -22 -9 -28 -19 -14 -22 -13 -22 57 -37 l35 -7
-55 -18 c-55 -17 -52 -17 297 -18 l351 -1 6 38 c98 604 458 2777 460 2779 5 5
439 -47 445 -53 2 -2 -2 -5 -10 -6 -8 0 6 -4 31 -7 l45 -7 -70 -8 c-111 -12
-108 -19 9 -28 60 -4 111 -9 113 -11 2 -3 -43 -8 -99 -13 l-103 -9 70 -3 c39
-2 74 -7 78 -11 9 -9 -94 -30 -149 -32 l-29 -1 29 -8 c15 -5 52 -12 82 -16 30
-3 54 -10 54 -13 0 -4 -48 -17 -107 -28 -76 -15 -96 -21 -68 -22 22 -1 51 -5
65 -8 22 -7 21 -8 -15 -13 -36 -5 -32 -7 50 -21 l90 -16 -83 -8 c-46 -4 -78
-11 -72 -15 8 -5 -10 -15 -46 -26 l-59 -18 85 -9 c119 -12 126 -27 12 -27 -90
0 -92 -1 -105 -27 -32 -62 -30 -69 13 -83 87 -29 35 -48 -178 -65 -90 -7 -166
-16 -169 -19 -17 -17 30 -21 257 -21 137 0 251 -3 254 -6 3 -3 -36 -12 -87
-20 l-92 -14 63 -3 c68 -3 77 -22 10 -22 -25 0 -49 -8 -65 -20 l-26 -20 46 0
c25 0 49 -4 52 -10 4 -6 -6 -10 -23 -10 -19 0 -29 -5 -29 -15 0 -11 13 -15 46
-16 38 -1 42 -2 21 -9 -14 -4 -43 -9 -65 -10 -54 -2 -36 -7 60 -16 75 -7 77
-8 40 -15 -22 -4 -69 -8 -105 -9 -63 -2 -64 -2 -35 -15 l30 -13 -34 -15 c-34
-14 -33 -14 65 -22 142 -11 93 -22 -133 -31 l-188 -8 125 -18 c69 -11 136 -22
150 -25 25 -6 25 -6 -5 -13 -25 -6 -21 -8 25 -9 30 -1 73 -6 95 -10 34 -7 27
-9 -45 -10 -54 -1 -80 -5 -71 -10 10 -6 -4 -13 -45 -21 -53 -11 -56 -14 -34
-22 20 -7 22 -11 10 -18 -13 -8 -12 -10 3 -10 10 0 15 -4 12 -10 -4 -6 16 -10
52 -10 32 0 65 -5 73 -10 12 -7 8 -10 -15 -10 -51 0 -105 -12 -99 -21 3 -5 -2
-9 -11 -9 -9 0 -14 -4 -11 -9 8 -13 -19 -21 -71 -21 -25 0 -84 -12 -132 -27
l-86 -26 87 -18 c104 -21 116 -26 91 -44 -17 -13 -17 -14 1 -34 11 -12 30 -21
43 -21 14 0 21 -4 18 -10 -3 -5 1 -10 9 -10 29 0 17 -17 -16 -25 -33 -7 -33
-7 -8 -15 l25 -8 -25 -8 -25 -8 30 -12 30 -12 -40 -8 c-37 -7 -38 -8 -15 -15
14 -4 41 -8 60 -8 26 -1 31 -4 20 -11 -8 -5 -28 -10 -45 -11 -24 -1 -25 -3 -7
-6 36 -7 25 -20 -25 -29 -39 -6 -43 -9 -20 -12 28 -3 36 -17 15 -25 -7 -3 7
-6 32 -7 25 -1 65 -5 90 -9 39 -7 34 -9 -44 -10 -88 -1 -89 -1 -71 -21 14 -16
15 -20 4 -24 -8 -2 -21 -7 -29 -9 -9 -3 -2 -8 18 -12 39 -9 35 -16 -15 -25
-38 -7 -38 -8 15 -26 13 -5 7 -10 -23 -20 -31 -11 -45 -23 -57 -49 -15 -35
-15 -35 8 -41 31 -8 31 -24 0 -24 -19 0 -24 -6 -29 -37 -7 -44 13 -83 43 -83
25 0 37 -20 13 -21 -10 -1 18 -7 62 -14 l80 -12 -113 -2 c-109 -1 -112 -2
-102 -21 6 -11 8 -31 4 -44 -4 -18 -1 -27 15 -36 14 -7 21 -21 21 -40 0 -21 5
-30 16 -30 14 0 14 -3 4 -15 -10 -12 -9 -15 6 -15 11 0 26 -4 34 -9 10 -7 1
-13 -35 -22 l-50 -13 50 -23 c43 -20 47 -24 28 -29 -21 -6 -21 -7 -4 -37 14
-25 28 -34 64 -42 25 -5 49 -13 53 -18 4 -4 21 -7 38 -7 57 0 64 -18 10 -25
-105 -14 -114 -19 -44 -26 36 -4 100 -7 143 -8 42 0 77 -5 77 -10 0 -5 -45
-12 -100 -15 -131 -10 -180 -24 -90 -26 l65 -2 -40 -13 c-22 -7 -35 -13 -29
-14 7 -1 14 -10 17 -21 3 -13 14 -20 31 -20 43 0 126 -21 120 -31 -3 -5 -20
-10 -37 -10 -26 -1 -21 -4 23 -14 30 -7 47 -13 37 -14 -29 -2 -8 -21 23 -21
40 0 65 -11 49 -20 -18 -12 132 -23 198 -16 153 18 270 75 393 193 l86 82 29
-19 c26 -17 27 -20 11 -26 -16 -6 -14 -9 10 -19 l29 -12 -30 -9 c-30 -8 -30
-8 15 -15 25 -4 82 -8 128 -8 134 -1 98 -21 -40 -22 -115 -1 -120 -2 -75 -13
27 -6 45 -15 41 -19 -4 -4 19 -7 51 -7 50 0 56 -2 45 -15 -11 -13 -8 -15 14
-15 16 0 25 -4 21 -10 -4 -6 43 -10 135 -10 103 0 142 3 145 13 5 13 275 1642
275 1659 0 7 -139 8 -447 3 -247 -4 -450 -9 -452 -11 -3 -2 4 -11 15 -19 18
-13 17 -14 -15 -15 -31 0 -33 -2 -26 -27 8 -34 4 -30 51 -47 l39 -14 -35 -7
c-27 -5 -39 -15 -51 -41 -15 -31 -15 -34 -1 -34 11 0 8 -8 -12 -29 l-28 -30
33 -3 34 -4 -32 -13 c-18 -7 -33 -17 -33 -21 0 -5 30 -11 68 -15 37 -4 72 -8
77 -9 19 -6 -105 -18 -130 -13 -40 7 -24 -15 21 -29 l39 -12 -41 -1 c-37 -1
-42 -4 -51 -36 l-11 -34 132 -3 c99 -3 123 -5 97 -12 l-34 -9 64 -19 c78 -24
96 -38 49 -38 -19 0 -58 -3 -87 -6 -51 -7 -52 -7 -31 -24 l22 -17 -37 -13
c-40 -15 -40 -30 1 -30 50 0 58 -17 12 -25 -40 -7 -80 -34 -80 -54 0 -5 21
-13 48 -18 l47 -10 -45 -8 -45 -9 35 -9 c25 -8 30 -12 17 -15 -11 -2 -28 -11
-38 -20 -19 -16 -19 -17 3 -34 l23 -18 -35 0 -35 -1 24 -19 c16 -14 19 -21 10
-24 -8 -2 -21 -6 -29 -9 -9 -3 1 -12 28 -25 40 -18 42 -20 20 -27 -16 -5 16
-13 107 -24 140 -18 142 -30 5 -32 -41 0 -95 -4 -120 -8 -49 -8 -40 -14 40
-27 l45 -7 -35 -9 c-100 -23 -178 -58 -131 -58 12 0 19 -4 16 -10 -3 -5 0 -10
8 -10 22 0 16 -29 -7 -36 -12 -4 -24 -11 -27 -16 -4 -6 -44 -12 -91 -15 -129
-8 -178 28 -178 134 0 57 294 1854 316 1933 20 73 54 123 97 143 41 20 129 21
202 3 l50 -12 -45 -11 c-44 -11 -44 -11 -11 -12 19 -1 42 -8 52 -17 9 -8 39
-19 66 -24 26 -4 39 -9 28 -10 -14 -1 -10 -5 15 -13 32 -11 27 -12 -70 -17
l-105 -5 48 -15 c26 -8 47 -17 47 -20 0 -3 -23 -16 -50 -29 l-50 -25 28 -17
c15 -10 57 -22 92 -27 l65 -8 -95 -16 c-52 -9 -81 -17 -65 -18 68 -4 70 -19 3
-19 l-68 -1 10 -26 c6 -14 10 -36 10 -49 0 -29 15 -35 103 -36 132 -2 141 -14
17 -23 -109 -7 -117 -9 -144 -36 l-30 -29 28 -11 c15 -5 42 -10 59 -11 l32 -1
-30 -13 c-26 -12 -27 -14 -8 -15 12 0 25 -4 28 -10 4 -6 -14 -10 -47 -10 -41
-1 -49 -3 -35 -11 24 -14 12 -29 -25 -29 -27 0 -30 -3 -24 -22 3 -13 6 -26 6
-30 0 -5 175 -8 388 -8 l388 0 22 143 c47 298 53 434 26 565 -49 240 -219 406
-484 473 -98 24 -405 37 -500 21 -54 -9 -53 -10 43 -11 139 -2 126 -21 -15
-22 -106 0 -111 -1 -78 -14 31 -12 1 -14 -250 -17 -241 -2 -279 -5 -245 -15
22 -7 105 -19 185 -27 233 -24 260 -28 260 -38 0 -5 -57 -8 -127 -6 -111 2
-132 -1 -162 -18 -18 -10 -45 -26 -60 -34 -30 -16 -98 -18 -291 -8 -86 5 -125
4 -106 -2 27 -8 259 -40 411 -56 60 -6 66 -8 40 -15 -16 -5 -70 -12 -120 -17
l-90 -8 49 -14 c38 -10 45 -15 31 -20 -17 -6 -17 -7 6 -14 19 -7 12 -10 -40
-17 -75 -10 -90 -18 -35 -20 32 -1 28 -3 -21 -9 -98 -13 -455 -23 -455 -14 0
5 14 98 32 206 17 109 29 200 27 203 -6 6 -616 25 -754 24 l-100 -1 150 -23z"/>
<path d="M7395 4403 c11 -3 22 -9 25 -13 3 -3 30 -11 60 -17 l55 -10 -53 -2
c-33 0 -59 -7 -68 -16 -13 -13 -56 -15 -261 -15 -136 0 -244 -2 -241 -5 4 -5
240 -27 420 -40 l88 -7 -37 -44 c-20 -25 -45 -50 -57 -56 -11 -6 -76 -14 -145
-17 l-126 -6 155 -19 c85 -11 216 -22 290 -25 152 -7 141 -17 -28 -26 -124 -7
-152 -12 -130 -26 11 -7 10 -11 -1 -18 -11 -7 -5 -11 22 -16 55 -11 55 -25 0
-25 -47 -1 -47 -1 -23 -15 l25 -14 -32 -13 c-44 -17 -41 -28 6 -28 53 0 62
-17 14 -25 -21 -4 -42 -8 -47 -9 -5 -1 17 -8 49 -15 58 -13 61 -30 5 -31 -14
0 -32 -4 -40 -10 -12 -8 -12 -10 4 -16 14 -5 15 -9 4 -15 -9 -6 -4 -9 15 -9
16 0 26 -4 22 -10 -3 -5 -32 -10 -63 -10 l-57 0 40 -25 c22 -13 54 -31 70 -39
28 -14 21 -15 -110 -16 -77 0 -146 -4 -153 -9 -9 -5 54 -19 165 -36 214 -32
247 -43 143 -45 -54 -2 -68 -4 -50 -10 17 -5 19 -8 7 -9 -24 -1 -88 -37 -80
-45 3 -3 -2 -6 -13 -6 -37 0 34 -47 81 -55 25 -3 45 -10 45 -14 0 -4 -38 -11
-85 -14 -94 -7 -134 -20 -97 -31 12 -4 22 -11 22 -16 0 -5 -71 -32 -157 -60
-87 -28 -162 -55 -167 -60 -4 -4 2 -14 15 -21 17 -9 71 -11 204 -7 99 2 166 3
148 1 -52 -7 -49 -31 5 -47 l47 -14 -37 -6 c-21 -3 -55 -9 -75 -12 -37 -6 -37
-6 -14 -18 20 -11 21 -14 6 -19 -9 -4 -28 -7 -42 -7 l-25 0 23 -19 24 -19 -27
-13 c-25 -11 -27 -15 -22 -53 10 -62 21 -69 111 -68 108 2 127 -14 26 -23 -43
-4 -95 -10 -114 -14 -32 -7 -29 -8 31 -16 l65 -8 -52 -10 c-29 -5 -53 -13 -53
-16 0 -4 30 -14 68 -23 l67 -15 -72 -2 c-62 -1 -72 -4 -78 -21 -3 -11 -15 -25
-26 -30 -29 -16 -23 -27 19 -36 25 -5 31 -9 18 -12 -15 -3 -16 -6 -5 -13 10
-6 3 -13 -29 -26 l-44 -17 28 -14 c26 -14 27 -15 9 -28 -10 -7 -22 -15 -28
-17 -21 -7 13 -47 41 -48 l27 -1 -30 -13 -30 -14 30 -1 c17 0 37 -5 45 -10 11
-7 5 -10 -23 -10 -26 0 -36 -4 -31 -12 5 -8 -6 -9 -42 -4 -27 3 -74 9 -104 11
l-55 5 55 -20 c111 -40 131 -52 124 -72 -3 -10 0 -25 6 -33 10 -13 8 -15 -13
-15 -20 0 -24 -4 -20 -20 3 -10 -5 -35 -17 -54 l-21 -35 33 -21 33 -20 -105
-1 c-116 -2 -108 -5 55 -23 l110 -12 -57 -19 c-59 -19 -67 -34 -20 -36 24 0
25 -1 7 -9 -17 -7 -15 -9 13 -9 30 -1 48 -21 19 -21 -7 0 -38 -7 -67 -16 -54
-16 -54 -16 -29 -29 14 -8 65 -21 115 -30 49 -9 93 -20 97 -24 4 -5 -45 -11
-109 -14 -165 -8 -164 -23 3 -31 76 -4 154 -11 173 -15 l34 -7 -43 -43 c-23
-23 -58 -49 -77 -57 -38 -16 -97 -18 -122 -5 -20 10 -132 -6 -132 -20 0 -5 10
-11 23 -13 12 -3 40 -8 62 -13 l40 -8 -50 -3 c-60 -4 -86 -22 -32 -22 20 0 37
-4 37 -10 0 -5 -15 -10 -32 -10 -18 0 -40 -5 -48 -10 -10 -7 22 -10 100 -11
63 -1 142 -4 175 -8 52 -5 40 -8 -103 -18 -151 -11 -165 -13 -193 -37 -34 -29
-33 -30 51 -44 l55 -8 -65 -11 c-50 -8 -57 -11 -30 -12 19 -2 44 -6 55 -11 17
-7 15 -9 -11 -9 -42 -1 -94 -20 -94 -35 0 -32 39 -53 126 -66 l89 -14 -50 -7
c-27 -4 -75 -8 -105 -8 -73 -2 -91 -13 -56 -36 34 -23 33 -30 -6 -42 l-33 -10
48 -21 c51 -23 61 -42 22 -42 -36 0 -75 -21 -75 -41 0 -21 12 -30 60 -45 l35
-12 -30 -1 c-37 -2 -56 -13 -47 -27 5 -8 132 -13 389 -17 l382 -5 10 66 c243
1475 521 3179 521 3193 0 18 -16 19 -397 18 -219 -1 -389 -4 -378 -6z"/>
<path d="M3408 4384 c-27 -8 -48 -16 -48 -18 0 -2 42 -12 93 -22 l92 -19 -100
-6 c-55 -3 -158 -13 -230 -22 -71 -9 -166 -20 -210 -25 -72 -7 -57 -9 147 -16
126 -4 240 -11 255 -16 26 -8 24 -8 -14 -9 -40 -1 -42 -3 -45 -33 -2 -28 -8
-34 -33 -38 l-30 -6 28 -18 c30 -21 26 -32 -13 -38 -36 -4 -26 -21 23 -38 l42
-14 -125 -17 c-69 -10 -198 -25 -287 -35 -90 -10 -163 -21 -163 -25 0 -7 102
-15 340 -25 80 -3 163 -9 185 -13 l40 -7 -50 -8 c-87 -13 -95 -17 -55 -31 l35
-12 -28 -14 -28 -13 23 -12 23 -12 -30 -13 -30 -12 50 -12 c36 -9 42 -13 23
-14 -15 0 -31 -7 -35 -15 -4 -8 -23 -16 -42 -18 l-35 -3 30 -15 c16 -8 31 -17
34 -20 3 -3 16 -11 30 -17 25 -11 24 -12 -10 -12 -87 -2 -362 -22 -429 -32
-77 -11 -127 -26 -119 -34 6 -6 369 -45 421 -45 46 0 49 -15 5 -24 l-33 -7 44
-18 c30 -12 40 -20 31 -26 -10 -6 -7 -12 11 -26 22 -17 22 -19 5 -19 -20 0
-20 0 0 -15 18 -13 16 -14 -24 -15 -35 0 -45 -4 -49 -20 -3 -11 -10 -20 -17
-21 -6 -1 7 -7 29 -13 l40 -13 -40 -7 c-80 -14 -83 -18 -30 -34 55 -16 55 -17
-43 -42 -41 -11 -43 -12 -28 -29 21 -23 20 -34 -6 -58 -20 -18 -39 -21 -158
-25 -125 -4 -193 -18 -175 -36 4 -4 93 -14 198 -23 148 -12 183 -17 152 -23
-68 -13 -73 -16 -45 -31 l25 -13 -28 -8 c-21 -5 -25 -9 -16 -15 11 -6 8 -14
-11 -33 l-23 -26 34 0 c59 0 65 -16 12 -30 -26 -7 -51 -15 -55 -17 -14 -7 4
-33 23 -33 25 0 24 -17 -2 -25 -26 -8 -19 -15 23 -25 29 -7 26 -8 -24 -9 -61
-1 -69 -6 -41 -26 19 -14 1 -17 -222 -36 -211 -18 -178 -31 72 -28 122 2 225
0 229 -4 4 -4 -4 -7 -18 -7 -14 0 -39 -3 -56 -6 l-31 -6 20 -22 20 -21 -21 -3
c-16 -3 -19 -7 -10 -17 9 -10 4 -15 -19 -20 -31 -7 -48 -21 -37 -32 3 -3 34
-11 68 -18 50 -10 56 -13 28 -14 -24 -1 -31 -4 -21 -10 10 -6 -3 -13 -43 -21
-56 -11 -57 -12 -40 -31 16 -18 16 -19 -7 -27 -23 -9 -23 -10 10 -17 42 -9 24
-25 -29 -25 l-35 0 28 -19 28 -18 -30 -13 c-38 -15 -32 -27 17 -36 l37 -8 -35
-7 c-19 -4 -88 -11 -152 -15 -65 -4 -115 -11 -112 -15 3 -5 22 -18 42 -29 l37
-19 -32 -1 c-43 0 -50 -16 -12 -24 51 -10 117 -7 99 4 -21 13 5 13 87 -1 74
-13 83 -29 17 -29 -40 0 -45 -2 -34 -15 10 -12 10 -15 -1 -15 -11 0 -11 -2 1
-10 8 -5 12 -11 10 -13 -3 -2 -52 -16 -110 -31 -58 -15 -130 -34 -160 -43
l-55 -16 75 -13 c41 -7 96 -23 123 -35 48 -23 63 -49 27 -49 -24 0 -25 -8 -5
-30 11 -12 12 -24 6 -48 -8 -27 -7 -32 11 -37 25 -8 16 -17 -30 -31 l-37 -11
63 -8 c73 -9 82 -25 15 -25 l-48 -1 27 -24 c31 -27 30 -28 -51 -40 -24 -4 -58
-15 -75 -25 -17 -10 -56 -25 -86 -34 -30 -8 -64 -22 -75 -31 -12 -9 -14 -13
-5 -11 8 2 65 7 125 9 61 3 101 3 90 0 -39 -10 -36 -20 7 -28 l43 -7 -35 -15
c-19 -8 -46 -20 -60 -26 l-25 -11 23 -4 c15 -2 22 -9 18 -18 -3 -8 1 -14 9
-14 29 0 14 -19 -20 -26 -45 -8 -53 -21 -21 -36 14 -6 26 -14 26 -17 0 -13
-97 -50 -145 -57 -59 -8 -95 -20 -95 -32 0 -5 21 -24 46 -43 25 -19 52 -46 60
-61 8 -15 23 -29 34 -33 29 -9 25 -22 -11 -30 -17 -4 -29 -9 -26 -11 4 -4 820
-24 824 -20 1 1 20 74 43 161 22 88 57 220 78 293 l37 132 170 0 c93 0 181 -3
194 -7 l23 -6 -28 -13 -29 -12 45 -2 c72 -2 96 -18 30 -20 -30 -1 -49 -4 -42
-7 17 -6 5 -23 -17 -23 -31 0 -54 -24 -47 -48 7 -20 14 -22 74 -22 81 0 112
-14 53 -24 -23 -3 -64 -11 -91 -17 l-50 -11 22 -19 c16 -14 19 -22 11 -25 -26
-11 -12 -24 25 -25 l37 -1 -29 -10 c-26 -10 -75 -54 -76 -69 0 -3 11 -12 25
-19 13 -7 22 -17 19 -22 -3 -4 16 -8 43 -8 87 0 76 -16 -20 -29 -50 -7 -107
-15 -125 -18 l-34 -6 41 -23 c22 -12 53 -24 68 -26 l28 -3 -35 -23 -35 -22 50
0 c28 -1 212 -7 410 -14 198 -8 362 -12 365 -9 4 4 51 2325 61 3028 l4 260
-545 2 c-454 1 -553 -1 -592 -13z m494 -821 l30 -6 -33 -15 -34 -15 25 -7 c14
-5 18 -8 9 -9 -24 -1 -37 -21 -41 -66 -3 -37 -1 -40 27 -46 l30 -6 -27 -11
c-31 -13 -32 -15 -18 -42 8 -15 6 -21 -7 -29 -16 -8 -15 -12 12 -37 28 -26 28
-29 10 -32 -44 -7 -51 -13 -32 -23 14 -8 15 -14 6 -30 -6 -11 -8 -33 -4 -48 4
-20 0 -32 -15 -46 -25 -23 -27 -86 -3 -111 16 -15 16 -17 0 -29 -22 -16 -24
-93 -2 -101 21 -8 19 -21 -5 -27 -26 -7 -26 -23 1 -37 20 -11 20 -12 -6 -58
l-26 -47 32 -27 33 -28 -26 0 c-15 0 -29 -4 -32 -9 -6 -9 20 -35 44 -44 9 -3
4 -6 -11 -6 -36 -1 -44 -13 -18 -27 l22 -12 -21 -6 c-29 -10 -28 -22 6 -40
l27 -15 -35 -1 c-32 -1 -33 -2 -17 -14 10 -8 13 -16 8 -17 -19 -7 -30 -96 -15
-118 12 -17 11 -19 -9 -25 -12 -3 -85 -6 -163 -6 l-140 0 183 658 c102 361
187 664 191 672 4 9 7 3 10 -18 3 -27 8 -34 34 -39z"/>
<path d="M5975 4370 c-6 -10 2 -15 40 -23 11 -3 -20 -6 -70 -7 -76 -3 -83 -4
-45 -10 35 -5 38 -7 15 -9 -16 0 -115 -6 -220 -11 -217 -11 -411 -29 -440 -41
-11 -4 85 -8 213 -8 127 -1 232 -5 232 -10 0 -12 -245 -24 -319 -15 -34 3 -61
4 -61 1 0 -3 26 -11 58 -18 l57 -13 -45 -7 c-25 -4 -106 -8 -180 -8 -91 -1
-130 -4 -120 -11 8 -5 65 -10 125 -10 112 0 155 -6 155 -21 0 -4 -15 -10 -32
-12 -25 -3 -21 -4 15 -5 73 -3 47 -22 -31 -23 -52 -1 -60 -3 -37 -9 23 -6 15
-8 -37 -9 -38 0 -71 -1 -75 0 -3 0 -10 -6 -15 -15 -10 -18 -60 -21 -90 -5 -14
8 -23 8 -31 0 -8 -8 -3 -11 17 -11 21 0 27 -4 23 -15 -4 -10 7 -18 41 -28 38
-10 46 -17 44 -33 -2 -10 -4 -27 -5 -37 -1 -10 -12 -20 -27 -23 -50 -11 -57
-15 -35 -24 11 -5 43 -12 70 -16 47 -6 48 -7 23 -16 -16 -5 -28 -14 -28 -19 0
-5 -8 -9 -17 -9 -14 -1 -12 -4 6 -14 l24 -14 -39 -25 c-24 -15 -90 -36 -164
-53 l-123 -29 59 -7 c32 -3 118 -10 189 -14 137 -7 213 -20 145 -24 -19 -1
-27 -4 -17 -7 44 -11 9 -23 -70 -24 -94 0 -90 -12 7 -25 28 -4 53 -11 56 -16
3 -5 -77 -8 -193 -7 -188 1 -242 -5 -257 -29 -7 -12 26 -18 184 -33 69 -6 127
-15 128 -20 2 -5 25 -10 50 -11 39 -1 41 -2 12 -5 -19 -2 -55 -6 -80 -9 l-45
-7 40 -17 40 -17 -45 -7 c-39 -6 -259 -26 -284 -26 -6 0 -5 -5 2 -12 7 -7 66
-14 151 -17 145 -7 183 -16 112 -27 -30 -5 -41 -11 -41 -24 0 -10 6 -21 13
-23 6 -3 0 -6 -15 -6 -24 -1 -28 -5 -28 -29 0 -47 29 -62 123 -62 45 0 119 -3
165 -7 l83 -6 -22 -23 c-49 -52 -125 -56 -261 -14 -59 18 -81 21 -89 13 -9 -9
-8 -18 4 -37 16 -24 16 -25 -6 -29 -21 -3 -21 -4 -2 -12 20 -9 45 -30 45 -38
0 -3 -12 -8 -27 -12 l-28 -7 40 -20 39 -21 -64 -33 c-50 -25 -59 -33 -40 -34
42 -1 56 -16 23 -25 l-28 -7 35 -18 35 -19 -150 -1 c-243 -1 -230 -27 35 -72
41 -7 66 -14 56 -16 -18 -4 -18 -5 4 -17 l23 -13 -22 -7 c-17 -5 -19 -10 -11
-20 8 -10 4 -14 -17 -20 -27 -6 -27 -7 -8 -18 11 -7 21 -22 22 -34 2 -19 -2
-23 -27 -23 -31 0 -43 -19 -12 -21 9 0 12 -3 5 -5 -7 -3 -10 -11 -7 -18 3 -9
-29 -18 -118 -32 l-123 -20 235 -11 c192 -8 213 -10 115 -11 -77 -2 -115 -6
-106 -11 12 -7 7 -13 -22 -27 -20 -10 -37 -21 -37 -25 0 -4 23 -13 51 -20 53
-14 51 -20 -16 -34 -28 -6 -29 -8 -12 -20 18 -13 18 -14 -2 -27 -46 -29 -9
-57 77 -59 42 -1 44 -2 17 -9 -16 -4 -57 -8 -90 -9 -47 -1 -56 -4 -42 -12 10
-6 22 -20 26 -32 7 -18 21 -24 77 -32 l69 -11 -82 -13 c-85 -14 -101 -23 -60
-35 20 -7 18 -9 -18 -20 l-40 -13 53 -8 c51 -7 52 -8 34 -25 -10 -10 -34 -21
-52 -25 -22 -5 -28 -10 -20 -15 8 -5 -26 -17 -90 -31 l-103 -24 41 -12 c23 -6
103 -22 179 -35 116 -19 132 -24 98 -28 -36 -6 -84 -19 -140 -40 -13 -5 7 -10
60 -16 75 -7 77 -8 40 -15 -22 -4 -58 -8 -79 -8 l-39 -1 27 -25 c15 -14 24
-30 21 -35 -3 -6 1 -13 9 -16 25 -9 19 -22 -11 -26 l-28 -3 27 -28 c24 -24 34
-27 93 -27 37 0 65 -4 65 -10 0 -6 -32 -10 -75 -10 -43 0 -75 -4 -75 -10 0 -5
10 -10 23 -10 44 0 38 -15 -10 -26 -41 -10 -16 -12 182 -14 l230 -3 -195 -9
c-107 -5 -199 -13 -203 -17 -5 -5 13 -14 39 -20 25 -7 44 -14 42 -16 -2 -3
-29 -8 -59 -13 l-54 -9 50 -7 c118 -17 125 -20 55 -26 l-65 -5 66 -13 c36 -6
75 -12 87 -12 71 0 -41 -39 -117 -41 -56 -1 14 -17 104 -23 50 -4 115 -9 145
-13 79 -9 31 -21 -89 -22 -52 -1 -92 -3 -90 -5 2 -2 54 -9 114 -16 61 -6 121
-14 135 -18 25 -6 25 -6 -5 -13 -16 -4 -52 -8 -80 -9 l-50 -2 64 -15 c36 -8
76 -24 90 -34 29 -21 106 -34 261 -46 88 -6 98 -9 65 -15 -22 -4 11 -5 75 -3
512 18 834 268 965 749 24 89 95 479 95 524 l0 22 -357 -1 c-304 -1 -350 -3
-308 -14 48 -11 49 -12 20 -18 -16 -3 -50 -9 -75 -13 -69 -10 -79 -19 -36 -34
21 -6 35 -15 32 -18 -3 -3 -1 -11 5 -19 9 -10 6 -13 -12 -13 -13 0 -30 -4 -38
-9 -11 -7 -5 -11 22 -16 20 -4 34 -11 31 -16 -3 -5 2 -9 10 -9 9 0 16 -4 16
-9 0 -5 -24 -12 -52 -16 -44 -6 -49 -9 -28 -15 24 -6 24 -7 -12 -20 -21 -8
-38 -18 -38 -23 0 -4 5 -5 10 -2 6 4 47 3 93 -1 87 -7 86 -11 -13 -38 -30 -8
-64 -22 -75 -30 -18 -14 -19 -16 -4 -31 9 -9 40 -22 70 -30 l54 -13 -41 -1
c-27 -1 -47 -8 -58 -20 -10 -11 -28 -22 -40 -23 -18 -4 -16 -6 14 -20 l35 -15
-43 -7 c-26 -5 -41 -13 -39 -19 8 -25 70 -56 125 -62 96 -11 106 -22 27 -30
-38 -4 -88 -11 -110 -15 -36 -7 -34 -8 28 -9 37 -1 67 -5 67 -11 0 -6 -31 -10
-73 -10 -50 0 -79 -5 -93 -15 -19 -15 -19 -15 0 -30 11 -8 39 -15 62 -15 24 0
45 -4 49 -9 6 -10 -55 -31 -92 -31 -29 0 -54 -10 -48 -20 14 -23 -155 -31
-200 -9 -17 8 -38 31 -49 54 l-20 39 162 988 c116 708 167 998 181 1025 38 75
87 103 180 103 75 0 177 -20 159 -31 -7 -5 -25 -9 -40 -9 -15 0 -29 -4 -33 -9
-11 -19 39 -41 95 -42 30 0 75 -4 100 -8 l45 -7 -66 -12 c-36 -7 -75 -12 -87
-12 -23 0 -53 -40 -30 -40 8 -1 5 -7 -6 -15 -19 -15 -19 -15 5 -15 13 0 31 -5
39 -10 11 -7 7 -10 -17 -10 -18 0 -33 -4 -33 -8 0 -5 -12 -13 -27 -19 -24 -9
-17 -11 52 -13 109 -2 145 -18 43 -19 -42 -1 -88 -5 -103 -11 -22 -8 -24 -13
-15 -30 6 -11 21 -22 33 -24 101 -20 112 -24 82 -26 l-30 -2 30 -8 c17 -4 62
-9 100 -10 57 -3 47 -4 -55 -10 -69 -4 -135 -10 -148 -14 -23 -8 -31 -28 -9
-25 6 1 50 0 97 -1 74 -2 80 -3 45 -11 -22 -4 -65 -9 -95 -9 l-55 -2 35 -11
35 -11 -33 -4 c-18 -2 -30 -7 -27 -12 3 -5 -7 -13 -22 -16 -25 -7 -25 -8 -8
-15 11 -4 40 -8 65 -9 25 -1 56 -5 70 -9 19 -6 9 -9 -45 -16 -38 -5 -62 -10
-52 -12 9 -3 15 -9 12 -14 -4 -5 17 -9 47 -10 89 -1 103 -15 23 -23 -42 -5
-77 -15 -88 -24 -11 -9 -31 -22 -45 -28 -26 -10 -24 -11 26 -17 29 -3 59 -13
67 -21 13 -13 8 -15 -43 -22 -86 -10 -98 -23 -22 -25 36 0 88 -4 115 -8 l50
-7 -40 -8 c-22 -4 -62 -13 -89 -21 -26 -8 -56 -15 -66 -15 -48 0 -63 -27 -36
-63 12 -16 40 -17 382 -15 l368 3 43 260 c54 319 66 529 39 666 -37 183 -133
317 -280 389 -83 41 -178 70 -228 70 -18 0 -28 5 -28 15 0 13 -25 15 -169 15
-103 0 -172 -4 -176 -10z"/>
<path d="M8330 3122 c-41 -8 -70 -17 -65 -19 6 -1 53 6 105 16 52 10 82 19 65
19 -16 0 -64 -7 -105 -16z"/>
<path d="M4807 3044 c-16 -16 -5 -23 47 -29 61 -8 112 8 60 18 -74 15 -100 18
-107 11z"/>
<path d="M6950 1907 c0 -7 72 -48 76 -44 2 2 -14 14 -36 26 -22 12 -40 20 -40
18z"/>
<path d="M2380 1878 c0 -26 49 -38 164 -43 l111 -5 -75 26 c-95 32 -200 44
-200 22z"/>
</g>
</svg>
