<?xml version="1.0" standalone="no"?>
<!DOCTYPE svg PUBLIC "-//W3C//DTD SVG 20010904//EN"
 "http://www.w3.org/TR/2001/REC-SVG-20010904/DTD/svg10.dtd">
<svg version="1.0" xmlns="http://www.w3.org/2000/svg"
 width="1280.000000pt" height="702.000000pt" viewBox="0 0 1280.000000 702.000000"
 preserveAspectRatio="xMidYMid meet">
<metadata>
Created by potrace 1.15, written by Peter Selinger 2001-2017
</metadata>
<g transform="translate(0.000000,702.000000) scale(0.100000,-0.100000)"
fill="#000000" stroke="none">
<path d="M9400 6936 c-102 -45 -221 -101 -265 -124 -44 -23 -118 -59 -166 -80
-79 -36 -129 -77 -129 -106 0 -6 32 -46 71 -89 72 -77 72 -77 173 -108 56 -17
158 -53 227 -80 l126 -49 6 -60 c4 -33 4 -88 0 -121 -5 -53 -4 -64 12 -75 22
-16 15 -26 -19 -29 -19 -3 -25 2 -30 27 -4 18 0 38 10 53 9 13 13 29 9 35 -8
14 -38 13 -53 -2 -9 -9 -15 -9 -24 0 -19 19 -36 14 -97 -29 -43 -30 -70 -42
-102 -44 -55 -3 -119 -20 -143 -38 -16 -11 -17 -17 -6 -36 15 -29 3 -42 -16
-16 -23 32 -79 28 -154 -11 -80 -41 -95 -62 -72 -95 9 -13 16 -41 17 -63 0
-25 9 -53 22 -71 12 -16 25 -46 28 -67 6 -32 4 -37 -17 -43 -30 -10 -39 -24
-32 -52 5 -18 0 -25 -21 -33 -36 -14 -43 -8 -75 64 -16 33 -44 76 -63 94 -51
50 -360 179 -662 276 -840 273 -795 261 -1095 270 -118 4 -255 11 -305 17
-165 18 -210 15 -315 -26 -222 -85 -385 -191 -554 -361 -126 -125 -197 -221
-285 -379 -33 -60 -64 -116 -68 -123 -7 -11 -15 -10 -45 2 -35 15 -43 14 -140
-9 -247 -60 -448 -69 -709 -35 -497 66 -813 154 -1087 301 -221 119 -200 111
-274 106 l-67 -4 -22 46 c-44 93 -89 192 -89 197 0 3 19 -8 42 -25 47 -35 64
-38 94 -16 16 11 23 30 28 76 9 73 -11 321 -29 365 -14 35 -41 44 -130 44 -28
0 -67 7 -85 16 -32 17 -60 18 -270 14 -30 -1 -190 17 -355 39 -165 22 -433 54
-595 71 -162 17 -326 35 -365 40 -38 5 -73 6 -77 4 -5 -3 -141 -14 -304 -24
-163 -10 -298 -21 -300 -23 -16 -15 15 -98 63 -170 30 -45 56 -83 58 -85 2 -2
81 -23 175 -47 94 -24 174 -46 177 -49 17 -17 -108 -4 -157 16 -50 20 -72 23
-230 23 -182 0 -210 -5 -327 -51 -46 -18 -81 -24 -136 -24 -51 0 -78 -4 -86
-14 -21 -25 -6 -190 26 -286 l28 -84 70 -42 c39 -24 75 -43 82 -43 13 -1 408
-179 581 -262 57 -27 118 -49 135 -49 40 -1 101 -30 104 -50 2 -8 -6 -30 -17
-49 -21 -33 -22 -33 -73 -26 -29 4 -101 11 -162 15 -60 5 -128 16 -150 24 -50
19 -85 20 -85 2 0 -18 -74 -28 -109 -15 -32 13 -86 3 -127 -22 -17 -10 -48
-19 -68 -19 -45 0 -86 -36 -86 -75 0 -38 46 -77 81 -70 21 5 31 0 49 -22 22
-29 69 -53 102 -53 28 0 21 -52 -10 -65 -20 -9 -22 -17 -22 -76 0 -79 10 -91
62 -80 49 11 58 18 58 47 0 17 8 27 26 34 26 10 25 30 -2 30 -10 0 -14 11 -14
38 1 44 56 117 79 103 7 -5 34 0 62 10 60 23 78 24 107 4 l21 -16 -28 -27
c-16 -15 -59 -61 -96 -102 -183 -202 -258 -268 -240 -208 7 20 5 21 -46 15
-30 -4 -66 -7 -81 -7 -57 0 -79 -38 -218 -370 -98 -234 -129 -319 -122 -330 6
-8 16 -13 24 -12 7 2 39 9 70 16 32 6 63 17 70 24 7 7 35 56 63 110 l50 97 51
5 c57 6 50 2 189 120 316 271 388 332 465 394 47 38 121 103 165 143 44 41
111 95 149 120 37 26 89 71 114 100 25 29 54 53 64 53 10 0 26 5 36 11 15 9
42 6 123 -14 218 -53 566 -146 601 -161 34 -15 41 -15 78 0 56 22 117 12 172
-30 114 -86 311 -213 383 -246 85 -40 205 -76 450 -136 83 -20 164 -45 181
-55 17 -11 38 -19 46 -19 14 0 38 -39 38 -60 0 -5 -52 -54 -115 -109 l-115
-101 -38 25 c-38 25 -187 88 -282 120 -51 17 -54 17 -67 -1 -7 -10 -13 -37
-13 -61 0 -24 -2 -43 -5 -43 -2 0 -38 14 -80 30 -87 35 -105 37 -105 13 0 -26
27 -67 145 -218 58 -74 103 -139 100 -145 -3 -5 -1 -19 5 -30 9 -17 8 -20 -8
-20 -10 0 -27 -9 -37 -20 -10 -11 -26 -20 -36 -20 -23 0 -34 -18 -30 -49 2
-17 -1 -22 -11 -18 -197 83 -379 135 -566 161 -206 29 -469 20 -677 -24 -547
-114 -977 -405 -1290 -875 -291 -435 -396 -1000 -283 -1525 44 -208 157 -477
275 -659 189 -290 484 -557 763 -689 77 -37 282 -106 452 -153 112 -31 244
-49 452 -60 265 -13 436 -1 556 42 47 17 110 37 140 45 30 8 69 21 85 29 17 8
88 42 160 75 387 182 749 545 917 923 66 147 154 415 173 530 17 101 25 111
90 128 68 17 219 61 243 70 13 5 32 9 43 9 10 0 28 5 39 12 23 15 28 11 32
-27 3 -25 -2 -32 -29 -45 -18 -8 -34 -20 -37 -26 -8 -20 30 -119 48 -122 10
-2 16 -14 16 -33 0 -17 4 -39 10 -49 8 -15 0 -25 -50 -61 -67 -49 -127 -121
-314 -378 -89 -123 -123 -177 -114 -181 7 -4 234 -12 503 -19 270 -6 679 -16
910 -22 453 -11 3389 -38 3418 -31 9 3 19 14 22 26 2 11 9 176 15 366 24 762
74 1125 175 1280 42 64 41 57 -10 -114 -19 -66 -43 -158 -52 -205 -21 -113
-29 -420 -14 -553 47 -421 237 -809 549 -1124 128 -129 325 -270 500 -358 82
-41 293 -126 313 -126 8 0 68 -14 134 -31 l120 -32 310 0 c309 -1 310 -1 396
26 48 14 111 37 140 50 30 14 72 30 94 37 21 7 84 32 138 56 303 131 603 390
800 689 74 113 113 190 177 349 93 233 124 403 125 671 0 217 -13 322 -59 486
-88 312 -197 517 -415 776 -115 136 -208 218 -383 336 l-107 72 37 3 c85 7 63
28 -120 106 -296 128 -605 196 -892 196 -114 0 -339 -21 -454 -43 -40 -8 -74
-11 -77 -8 -2 4 13 20 33 36 20 16 41 35 45 42 4 7 13 13 19 13 7 0 37 20 67
44 158 123 413 266 577 323 150 53 232 72 415 98 96 13 192 30 214 36 99 28
215 108 215 148 0 11 -32 106 -71 213 -39 106 -75 205 -79 221 -11 35 -123
184 -235 311 -83 95 -87 100 -81 136 5 35 2 41 -34 74 -22 20 -47 36 -55 36
-24 0 -100 75 -170 169 -36 47 -82 109 -104 136 -63 82 -224 257 -251 274
l-25 15 24 -27 c19 -20 21 -27 9 -27 -8 0 -42 28 -74 63 -125 130 -389 347
-425 347 -15 0 -19 7 -19 38 0 49 -40 162 -76 214 -44 64 -127 142 -174 163
-50 23 -65 16 -98 -43 -13 -23 -28 -42 -33 -42 -5 0 -33 15 -62 34 -193 124
-264 166 -277 165 -8 0 -98 -38 -200 -83z m454 -835 c77 -33 212 -127 250
-174 18 -23 48 -66 65 -94 l30 -53 -59 -91 c-57 -88 -59 -91 -65 -63 -12 54
-26 81 -60 114 -27 26 -39 32 -62 27 -27 -5 -29 -4 -25 26 8 71 -25 106 -134
143 -55 18 -60 22 -49 38 7 9 16 53 20 97 7 73 9 79 24 66 9 -8 38 -24 65 -36z
m-41 -262 c7 -11 4 -27 -8 -52 -18 -39 -90 -126 -97 -117 -2 3 -1 39 2 80 5
74 6 75 40 92 39 19 49 19 63 -3z m177 -139 c25 -25 47 -105 55 -204 6 -63 4
-77 -6 -70 -7 4 -35 6 -61 5 -26 -1 -48 2 -48 7 0 5 -11 13 -25 16 -54 14 -84
115 -53 178 18 36 80 88 105 88 7 0 22 -9 33 -20z m243 -270 c27 -3 45 -13 55
-29 16 -23 15 -23 -6 -17 -14 5 -32 1 -50 -10 -24 -13 -39 -15 -78 -8 l-49 9
-3 69 -3 69 47 -38 c31 -26 61 -41 87 -45z m-6994 -1173 c54 -28 58 -37 26
-60 -24 -17 -25 -17 -64 21 -66 63 -47 82 38 39z m1681 -97 c148 -43 230 -76
230 -95 0 -6 -5 -16 -12 -23 -6 -6 -8 -15 -4 -19 4 -4 16 3 26 17 l20 25 0
-42 c0 -23 3 -48 6 -57 10 -26 -97 -22 -121 4 -10 11 -26 20 -37 20 -10 0 -18
6 -18 14 0 32 -25 36 -63 11 -20 -14 -41 -25 -47 -25 -7 0 -36 -25 -65 -55
l-54 -55 -61 79 c-33 44 -60 88 -60 98 0 10 23 41 50 68 28 27 50 55 50 62 0
18 3 18 160 -27z m-786 -11 c16 -5 39 -9 52 -9 17 0 65 -54 212 -237 227 -285
238 -301 258 -372 10 -35 26 -64 42 -78 15 -13 24 -23 19 -23 -13 0 -115 60
-127 75 -7 8 -22 15 -34 15 -12 0 -26 4 -31 9 -17 15 -113 31 -189 31 -46 0
-94 -7 -133 -21 l-61 -20 -52 26 c-66 33 -233 91 -335 115 -113 27 -225 62
-332 104 -51 20 -101 36 -111 36 -23 0 -114 30 -126 41 -5 5 6 6 25 3 28 -5
42 0 79 28 66 50 89 61 270 132 91 35 199 79 240 98 137 63 239 77 334 47z
m-932 -409 c5 0 46 -18 92 -39 45 -22 127 -55 182 -74 123 -42 296 -119 286
-129 -4 -4 -40 -21 -81 -38 -41 -18 -91 -43 -113 -57 l-38 -26 -67 66 c-38 35
-90 83 -118 106 -27 23 -70 59 -93 82 -24 22 -80 61 -123 86 l-80 46 27 28 27
28 45 -39 c25 -22 49 -40 54 -40z m1807 -238 c38 -59 39 -75 6 -90 -34 -16
-31 -17 -44 19 -13 38 -15 119 -2 119 5 0 23 -22 40 -48z m-464 -31 c120 -46
125 -51 118 -114 -3 -28 -8 -55 -12 -59 -16 -18 -370 143 -398 181 -10 13 -7
17 15 23 15 4 65 5 112 4 66 -3 103 -10 165 -35z m-2622 -256 c58 -28 69 -43
84 -105 19 -85 13 -90 -97 -90 -48 0 -142 -3 -208 -7 -105 -5 -122 -8 -122
-23 0 -9 9 -25 19 -35 17 -15 49 -18 215 -24 124 -4 200 -11 207 -18 7 -7 9
-23 5 -37 -5 -22 -12 -26 -40 -26 -25 0 -40 -7 -54 -25 -15 -18 -29 -25 -56
-25 -24 0 -39 -5 -43 -15 -3 -9 -20 -22 -37 -29 -17 -7 -62 -36 -99 -64 -37
-29 -72 -52 -77 -52 -5 0 -15 -10 -21 -22 -6 -13 -22 -34 -35 -48 -82 -88 -98
-108 -106 -138 -7 -24 -14 -32 -26 -28 -14 4 -316 61 -444 83 -22 4 -29 12
-34 39 -9 48 -1 69 54 152 186 279 418 443 747 527 109 28 128 29 168 10z
m437 -16 c41 -11 120 -40 175 -63 55 -24 108 -46 118 -50 9 -3 17 -9 17 -14 0
-9 -449 -36 -458 -27 -13 13 -14 127 -2 151 17 30 49 31 150 3z m8830 -79
c360 -91 623 -291 809 -616 40 -68 51 -98 51 -131 0 -39 -4 -45 -37 -66 -36
-23 -144 -67 -163 -67 -5 0 -18 20 -29 45 -63 143 -200 304 -327 384 -38 25
-92 59 -119 78 -28 18 -56 33 -62 33 -7 0 -27 9 -46 20 -19 11 -65 31 -103 44
l-69 24 -11 109 c-6 59 -14 116 -18 126 -12 25 1 49 21 43 10 -3 56 -15 103
-26z m-982 -204 c6 -14 22 -26 42 -29 26 -6 35 -16 55 -62 14 -31 25 -62 25
-69 0 -8 -21 -30 -48 -49 -26 -20 -56 -45 -66 -56 -28 -30 -79 -28 -100 4 -9
14 -25 25 -36 25 -28 0 -32 14 -16 62 8 24 17 62 21 86 6 36 14 49 53 77 26
19 50 35 53 35 3 0 11 -11 17 -24z m-7681 -31 c179 -20 182 -31 12 -40 -132
-7 -290 -8 -296 -1 -1 1 -4 13 -5 26 -5 41 33 43 289 15z m1498 -123 c66 -61
95 -102 95 -135 0 -31 -3 -34 -51 -46 -28 -8 -54 -9 -58 -5 -10 11 -71 185
-71 202 0 22 54 12 85 -16z m5952 -76 c-9 -12 -22 -46 -31 -74 -8 -29 -22 -62
-30 -74 -10 -15 -16 -45 -16 -84 0 -34 -3 -69 -6 -78 -11 -29 -104 -16 -126
18 -21 31 1 91 73 198 22 31 39 60 39 63 0 3 16 21 35 41 19 19 35 41 35 49 0
8 8 18 18 24 15 8 17 5 20 -25 2 -20 -3 -46 -11 -58z m-7417 61 c69 0 100 -2
70 -4 -30 -2 -59 -8 -64 -14 -6 -5 -39 -9 -74 -9 -35 0 -72 -5 -83 -10 -15 -9
-23 -7 -36 6 -16 15 -16 17 2 30 11 8 28 11 39 7 12 -3 77 -6 146 -6z m8673
-185 c77 -28 81 -40 40 -95 -33 -42 -49 -45 -105 -16 -32 16 -46 19 -59 11
-13 -9 -19 -6 -28 14 -6 15 -19 24 -33 24 -23 1 -23 1 -3 16 11 8 30 12 42 9
18 -4 24 0 29 22 11 52 13 55 32 48 9 -5 47 -19 85 -33z m-8058 -121 c-4 -21
-2 -30 9 -34 20 -8 21 -37 2 -37 -7 0 -34 -12 -60 -26 -25 -14 -52 -24 -58
-21 -7 2 3 11 22 19 41 18 66 43 51 53 -6 3 -19 2 -29 -4 -21 -11 -174 -51
-194 -51 -25 1 43 49 85 61 23 6 48 16 56 22 21 18 84 45 104 46 15 1 17 -4
12 -28z m8062 -128 c4 -11 -123 -50 -133 -40 -11 11 97 58 120 53 6 -1 11 -7
13 -13z m302 -63 c18 -38 31 -78 29 -87 -4 -21 -53 -47 -69 -37 -13 8 -69 123
-69 142 0 7 11 17 24 22 13 5 27 14 31 19 12 21 22 10 54 -59z m-10449 16 c52
-13 130 -34 173 -47 68 -21 77 -26 72 -44 -40 -138 -44 -245 -15 -376 23 -101
42 -145 106 -236 l43 -62 -90 -169 c-95 -180 -127 -222 -167 -222 -67 0 -252
273 -327 480 -61 172 -88 402 -66 561 12 85 13 86 54 112 51 34 92 34 217 3z
m10226 -21 c8 -20 -34 -132 -52 -139 -7 -3 -16 -2 -18 3 -5 8 26 119 38 140
10 16 26 14 32 -4z m-86 1 c0 -1 -5 -18 -11 -37 -6 -19 -13 -40 -15 -47 -3
-10 -9 -9 -29 4 -40 26 -30 64 20 77 29 7 35 7 35 3z m-1464 -61 c-6 -31 -3
-40 23 -64 17 -16 31 -38 31 -48 0 -43 -29 -115 -55 -135 -27 -21 -27 -24 -22
-100 6 -98 39 -168 104 -228 l46 -43 19 24 c16 19 21 21 25 9 4 -8 28 -58 55
-110 45 -87 73 -127 182 -255 35 -41 37 -47 24 -63 -8 -9 -33 -49 -56 -87 -72
-126 -97 -131 -182 -38 -145 159 -254 366 -301 573 -44 191 -31 519 22 576 15
16 33 24 57 24 34 0 34 0 28 -35z m1614 -37 c28 -46 25 -53 -19 -54 l-39 -1
15 43 c8 24 17 44 19 44 2 0 13 -15 24 -32z m744 -21 c9 -13 19 -66 25 -122
27 -295 -73 -633 -257 -871 -71 -91 -185 -204 -208 -204 -26 0 -154 123 -154
148 0 5 44 54 98 109 153 156 230 305 268 523 15 85 16 260 2 354 -2 14 14 26
72 52 90 40 133 43 154 11z m-7794 -88 c44 -45 80 -85 80 -90 0 -5 -9 -9 -20
-9 -11 0 -28 -4 -38 -10 -14 -8 -84 -28 -242 -71 -12 -3 -14 16 -15 116 0 118
0 120 25 132 14 6 49 12 78 12 l52 1 80 -81z m-1040 -94 c9 -11 11 -36 7 -83
-7 -90 -46 -253 -60 -256 -7 -2 -46 -13 -87 -25 -41 -11 -104 -28 -140 -37
-36 -8 -72 -17 -80 -19 -8 -2 -28 -8 -45 -14 -16 -5 -59 -17 -95 -26 -36 -9
-79 -21 -96 -26 -17 -5 -42 -9 -55 -9 -14 0 -30 -5 -36 -11 -16 -16 -33 -2
-33 25 0 33 23 50 49 37 29 -16 31 -15 31 30 l0 42 34 -6 35 -6 -2 42 c-2 40
-1 42 28 43 21 0 29 5 26 15 -2 8 -5 25 -5 39 -1 21 4 26 32 30 31 5 32 6 18
25 -19 24 -20 54 -3 59 52 16 51 15 32 36 -21 23 -12 40 23 41 15 0 106 15
202 34 210 39 204 39 220 20z m8215 -37 c5 -15 -19 -185 -28 -194 -3 -3 -11
-3 -18 1 -11 8 -8 87 7 173 6 32 30 44 39 20z m85 -93 c0 -49 -5 -68 -26 -98
-14 -21 -28 -37 -30 -34 -6 6 23 193 31 208 14 21 25 -14 25 -76z m-177 28
c-10 -78 -16 -82 -52 -33 -17 24 -31 46 -31 50 0 7 53 27 77 29 9 1 11 -12 6
-46z m-177 -98 c-10 -24 -24 -49 -33 -57 -10 -8 -6 6 11 39 14 29 26 60 27 70
0 12 2 13 6 5 3 -8 -2 -33 -11 -57z m114 -47 c0 -23 -18 -30 -59 -26 l-30 3
20 44 19 44 25 -23 c14 -13 25 -32 25 -42z m-890 -23 c36 -18 36 -19 9 -56
-24 -34 -35 -30 -56 19 -12 29 -12 36 -1 43 17 11 14 11 48 -6z m-118 -83 c19
-42 19 -44 1 -75 -38 -64 -85 -32 -118 78 l-14 44 28 -5 c18 -4 32 0 40 10 18
22 38 5 63 -52z m906 -59 c-30 -29 -32 -29 -42 5 -7 20 -4 22 31 22 l38 0 -27
-27z m133 11 c11 -13 4 -24 -48 -76 -60 -60 -61 -60 -73 -38 -11 20 -7 27 41
76 29 30 56 54 60 54 4 0 12 -7 20 -16z m-8178 -40 c7 -8 -60 -134 -116 -219
-94 -141 -178 -215 -230 -200 -89 26 -107 40 -199 153 -52 65 -87 117 -82 121
5 5 27 11 49 13 45 5 427 100 490 122 45 15 79 19 88 10z m8248 -22 c-34 -48
-116 -132 -129 -132 -26 0 -9 27 55 92 70 70 112 93 74 40z m-757 -38 c10 -45
-11 -60 -58 -40 -44 18 -45 36 -4 71 36 30 51 23 62 -31z m165 40 c2 -2 -9
-22 -25 -45 l-29 -42 -12 29 c-14 33 -16 58 -6 68 6 6 63 -1 72 -10z m81 -30
c0 -28 -40 -84 -61 -84 -27 0 -24 20 12 63 33 40 49 47 49 21z m92 -31 c26
-23 23 -31 -17 -39 -45 -8 -51 -2 -30 30 20 31 23 31 47 9z m-9277 -118 c85
-38 282 -64 363 -47 32 7 78 12 103 12 24 0 61 5 82 11 l38 10 142 -146 c78
-81 148 -161 155 -177 21 -50 8 -82 -47 -112 -27 -14 -57 -26 -68 -26 -10 0
-27 -6 -38 -14 -26 -17 -180 -53 -268 -62 -57 -6 -70 -4 -87 11 -11 10 -20 24
-20 31 0 18 -55 45 -74 38 -9 -3 -16 -16 -16 -28 0 -11 -12 -29 -26 -40 -24
-17 -33 -18 -112 -7 -169 24 -414 119 -432 167 -14 35 -12 92 4 136 7 20 51
96 96 167 l83 130 31 -13 c17 -8 58 -26 91 -41z m8827 28 c55 -21 88 -51 88
-79 0 -22 -17 -34 -47 -34 -16 0 -133 50 -133 57 0 4 44 73 47 73 2 0 22 -7
45 -17z m503 -3 c6 -10 -8 -15 -87 -29 -44 -8 -80 0 -66 15 20 19 143 31 153
14z m12 -97 c-15 -15 -113 -43 -154 -43 -18 0 -23 6 -23 25 0 14 6 25 13 26 6
0 48 6 92 13 81 12 100 6 72 -21z m-651 -217 c132 -66 204 -91 319 -111 203
-35 393 -7 618 90 11 5 17 3 17 -7 0 -8 19 -32 41 -53 42 -41 69 -89 69 -125
0 -55 -372 -180 -536 -180 -33 0 -66 29 -79 71 -4 10 -14 19 -22 19 -20 0 -53
-29 -53 -45 0 -61 -300 0 -500 100 -83 42 -104 64 -95 103 5 25 100 192 109
192 2 0 52 -24 112 -54z"/>
<path d="M2742 4298 c11 -53 59 -134 115 -195 24 -25 43 -54 43 -63 0 -9 11
-27 25 -40 27 -25 33 -56 13 -63 -7 -2 -10 -8 -6 -12 12 -13 48 25 48 50 0 25
-171 279 -194 288 -8 3 -20 22 -27 41 -18 50 -29 45 -17 -6z"/>
</g>
</svg>
