<?xml version="1.0" encoding="UTF-8"?>
<svg id="Capa_2" data-name="Capa 2" xmlns="http://www.w3.org/2000/svg" viewBox="0 0 64.59 64.69">
  <defs>
    <style>
      .cls-1 {
        fill: #3f3e4c;
      }
    </style>
  </defs>
  <g id="Layer_1" data-name="Layer 1">
    <g>
      <path class="cls-1" d="M63.96,37.34h0c-.41-1.4-1.08-2.72-1.83-4.2-2.1-4.12-5.03-9.88,.14-17.07l1.63-2.27-1.91-2.03L53.01,2.25l-2.13-2.25-2.43,1.92c-1.75,1.38-3.96,2.01-6.27,2.09-2.91,.1-5.92-.64-8.42-1.84l-1.46-.71h0s-1.46,.71-1.46,.71c-2.5,1.2-5.52,1.95-8.44,1.84-2.3-.08-4.52-.71-6.26-2.09l-2.43-1.92-2.13,2.25L2.6,11.77l-1.91,2.03,1.63,2.27c5.17,7.19,2.24,12.94,.14,17.07-.75,1.48-1.43,2.8-1.83,4.19H.62c-.38,1.3-.58,2.61-.62,3.9v.92c.09,2.84,.97,5.62,2.58,8.09,2.31,3.56,6.11,6.46,11.16,7.96,2.31,.68,4.53,.95,6.74,1.22,3.53,.43,7.03,.86,9.52,3.18l2.23,2.08,.07-.06,2.23-1.95c2.68-2.35,6.04-2.77,9.52-3.2,2.19-.27,4.41-.55,6.82-1.26,5.05-1.5,8.85-4.4,11.16-7.96,1.6-2.47,2.49-5.24,2.58-8.08v-.95c-.04-1.29-.25-2.59-.62-3.87Zm.06,4.79c-.08,2.74-.94,5.41-2.49,7.8-2.24,3.45-5.93,6.27-10.84,7.73-2.35,.7-4.56,.97-6.72,1.24-3.56,.45-7.01,.88-9.82,3.34l-1.85,1.63h0s-.06,.05-.06,.05l-1.86-1.74c-2.63-2.45-6.21-2.88-9.83-3.33-2.19-.27-4.39-.53-6.64-1.2-4.91-1.46-8.6-4.28-10.84-7.73-1.55-2.39-2.4-5.07-2.49-7.82v-.86c.04-1.25,.23-2.51,.6-3.76h0c.39-1.34,1.05-2.64,1.79-4.1,2.16-4.25,5.19-10.19-.18-17.65l-1.36-1.89,1.59-1.69L11.99,2.64l1.77-1.88,2.03,1.6c1.85,1.46,4.18,2.12,6.6,2.21,3.01,.11,6.12-.66,8.7-1.9l1.22-.58h0s0,0,0,0l1.22,.59c2.57,1.24,5.68,2,8.68,1.9,2.42-.08,4.75-.75,6.6-2.21l2.03-1.6,1.77,1.88,8.98,9.52,1.59,1.69-1.36,1.89c-5.37,7.47-2.35,13.4-.18,17.65,.74,1.46,1.4,2.76,1.79,4.09h0c.36,1.25,.56,2.5,.6,3.75v.9Z"/>
      <path class="cls-1" d="M62.23,37.83c-.35-1.21-.99-2.47-1.71-3.88-2.31-4.53-5.53-10.86,.28-18.94l.76-1.06-.89-.94L51.69,3.49l-.99-1.05-1.14,.9c-2.08,1.64-4.66,2.38-7.33,2.48-3.21,.11-6.52-.7-9.26-2.02l-.68-.33h0s0,0,0,0l-.68,.33c-2.74,1.32-6.06,2.13-9.27,2.02-2.67-.09-5.25-.83-7.32-2.47l-1.14-.9-.99,1.05L3.91,13.01l-.89,.94,.76,1.06c5.81,8.09,2.59,14.41,.28,18.94-.72,1.41-1.36,2.67-1.71,3.88h0c-.34,1.15-.52,2.31-.55,3.46v.78c.07,2.52,.86,4.99,2.28,7.19,2.08,3.21,5.54,5.84,10.15,7.21,2.15,.64,4.3,.9,6.44,1.16,3.83,.47,7.61,.93,10.53,3.65l1.04,.97,.03-.03h0s1.04-.91,1.04-.91c3.1-2.72,6.73-3.17,10.49-3.64,2.12-.27,4.28-.54,6.53-1.2,4.61-1.37,8.07-4,10.15-7.21,1.42-2.2,2.21-4.65,2.29-7.17v-.81c-.03-1.14-.22-2.3-.55-3.44h0ZM38.76,12.43v-1.51h7.09v1.51h-2.64v7.41h-1.8v-7.41h-2.65Zm-6.51,4.81c.08,.37,.26,.66,.55,.88,.29,.22,.69,.33,1.19,.33s.9-.1,1.16-.31c.26-.21,.42-.47,.47-.77,.05-.31,.08-.81,.08-1.52v-4.94h1.8v4.69c0,1.07-.05,1.83-.15,2.27-.1,.44-.28,.81-.54,1.12-.26,.3-.61,.55-1.05,.73-.44,.18-1.01,.27-1.72,.27-.85,0-1.5-.1-1.94-.3-.44-.2-.79-.45-1.04-.77-.26-.31-.42-.64-.5-.99-.12-.51-.18-1.27-.18-2.26v-4.76h1.8v4.83c0,.77,.02,1.27,.07,1.49Zm-11.51-4.1c.2-.45,.48-.86,.83-1.22,.35-.36,.74-.63,1.15-.8,.56-.24,1.2-.35,1.92-.35h0c1.31,0,2.36,.41,3.15,1.22,.79,.81,1.18,1.95,1.18,3.4s-.39,2.57-1.18,3.38c-.78,.81-1.83,1.22-3.14,1.22h-.02c-1.32,0-2.37-.41-3.15-1.21-.78-.81-1.17-1.93-1.17-3.34,0-.91,.13-1.67,.41-2.29Zm32.89-2.23v1.51h-4.81v1.98h4.48v1.5h-4.48v2.43h4.98v1.5h-6.79V10.92h6.62Zm-40.92,0h2.79c.95,0,1.65,.08,2.08,.24,.43,.16,.78,.44,1.04,.85,.26,.41,.39,.88,.39,1.41,0,.67-.2,1.22-.59,1.66-.39,.43-.98,.71-1.77,.82,.39,.23,.71,.48,.97,.75,.25,.27,.59,.75,1.02,1.45l1.09,1.74h-2.15l-1.3-1.94c-.46-.69-.77-1.12-.94-1.3h0c-.17-.19-.35-.31-.54-.38-.19-.07-.49-.1-.91-.1h-.36v3.73h-1.8V10.92h1.01Zm1.47-6.89c.18,.15,.37,.28,.56,.41,.4,.29,.81,.55,1.23,.79,.59,.33,1.21,.6,1.84,.83,4.65,1.67,10.22,.75,14.48-1.37h0s0,0,0,0c4.26,2.12,9.82,3.04,14.48,1.37,.63-.23,1.25-.5,1.84-.83,.42-.23,.83-.5,1.23-.79,.19-.14,.38-.26,.56-.41-.03,.03-.06,.06-.09,.09-.1,.11-.21,.22-.32,.33-.09,.09-.18,.18-.27,.26-1.18,1.08-2.54,1.77-3.98,2.18-.16,.05-.32,.09-.49,.12-.04,0-.09,.02-.13,.03-.76,.17-1.53,.27-2.3,.31-.13,0-.25,0-.38,.02-.09,0-.17,0-.26,0-3.95,.06-7.77-1.26-9.28-1.89-.13-.05-.24-.1-.33-.14-.09,.06-.19,.1-.28,.16h0c-4.32,2.5-11.28,3.14-18.16-.29l-7.91,7.64-.96,.93c2.62-2.87,6.13-6.71,8.78-9.61,.02-.02,.04-.04,.06-.07,.02-.02,.04-.04,.06-.06,0,0,.01-.01,.01-.02ZM49.9,54.95c-6.17,1.83-12.34,.56-17.6,5.17h0s0,0,0,0c-4.98-4.64-11.63-3.4-17.61-5.17-8.65-2.57-12.81-9.88-10.82-16.67,.99-3.37,5.05-8.22,4.8-14.62H55.91c-.25,6.4,3.82,11.25,4.8,14.62,1.99,6.79-2.17,14.11-10.82,16.67Z"/>
      <path class="cls-1" d="M24.66,18.46h.01c.72,0,1.31-.26,1.77-.78,.46-.52,.69-1.29,.69-2.33s-.22-1.78-.67-2.29c-.45-.5-1.04-.75-1.79-.75h-.01c-.74,0-1.33,.26-1.79,.76-.45,.51-.68,1.28-.68,2.3s.23,1.78,.7,2.3c.47,.52,1.05,.78,1.77,.78Z"/>
      <path class="cls-1" d="M15.32,14.69c.58-.01,.96-.05,1.13-.1,.21-.07,.38-.2,.5-.38,.12-.18,.18-.4,.18-.67,0-.3-.08-.54-.24-.73-.16-.18-.39-.3-.68-.35-.12-.01-.41-.02-.9-.03-.13,0-.26,0-.42,0h-1.4v2.26h1.33c.18,0,.34,0,.49,0Z"/>
      <path class="cls-1" d="M27.2,36.1c-.54,0-1.02,.05-1.45,.14-.87,.19-1.52,.58-1.96,1.16v-3.91c0-1.68,.12-2.82,.35-3.42,.23-.61,.72-.9,1.47-.9,.05,0,.09,0,.14,0,.66,.03,1.09,.31,1.26,.84,.19,.56,.28,1.67,.28,3.32v.56h3.9v-1.42c-.01-2.51-.44-4.29-1.29-5.35-.84-1.06-2.2-1.58-4.06-1.58h-.1c-1.39,.02-2.52,.28-3.4,.77-1.82,1.04-2.74,3.54-2.74,7.5v11.26c0,2.22,.24,3.98,.72,5.28,.41,1.12,1.11,1.94,2.07,2.49,.88,.5,1.99,.76,3.34,.77h.05c.32,0,.62-.02,.91-.04,1.81-.16,3.07-.79,3.79-1.91,.83-1.3,1.24-3.26,1.24-5.9v-1.51c0-2.83-.35-4.9-1.06-6.2-.71-1.3-1.87-1.95-3.49-1.95Zm.51,10.42c0,1.33-.13,2.23-.39,2.72-.27,.49-.77,.73-1.52,.73h-.05c-.72-.01-1.23-.32-1.52-.9-.29-.6-.44-1.58-.44-2.94v-4.95c.06-.41,.28-.75,.66-1.04,.33-.25,.77-.39,1.3-.42,.07,0,.14,0,.22,0,.63,0,1.08,.32,1.35,.95,.26,.63,.39,1.72,.39,3.25v2.6Z"/>
      <path class="cls-1" d="M38.77,53.41c.54,.12,1.14,.19,1.79,.19h.05c.16,0,.31-.01,.47-.02,.61-.03,1.17-.1,1.67-.23,.67-.17,1.24-.43,1.71-.79,.34-.26,.63-.56,.86-.92,.83-1.3,1.24-3.26,1.24-5.9v-1.51c0-2.83-.35-4.9-1.06-6.2-.71-1.3-1.87-1.95-3.49-1.95-.54,0-1.02,.05-1.45,.14-.87,.19-1.52,.58-1.96,1.16v-3.91c0-1.68,.12-2.82,.35-3.42,.23-.61,.72-.9,1.47-.9,.05,0,.09,0,.14,0,.66,.03,1.09,.31,1.26,.84,.19,.56,.28,1.67,.28,3.32v.56h3.9v-1.42c-.01-2.51-.44-4.29-1.29-5.35-.84-1.06-2.2-1.58-4.05-1.58h-.1c-1.39,.02-2.52,.28-3.4,.77-1.82,1.04-2.74,3.54-2.74,7.5v11.26c0,2.22,.24,3.98,.72,5.28,.61,1.65,1.82,2.67,3.63,3.06Zm-.17-12.23c.06-.41,.28-.75,.66-1.04,.33-.25,.77-.39,1.3-.42,.07,0,.14,0,.22,0,.63,0,1.08,.32,1.35,.95,.26,.63,.39,1.72,.39,3.25v2.6c0,1.33-.13,2.23-.39,2.72-.27,.49-.77,.73-1.52,.73h-.05c-.72-.01-1.23-.32-1.52-.9-.29-.6-.44-1.58-.44-2.94v-4.95Z"/>
      <polygon class="cls-1" points="11.97 37.31 11.23 39.59 8.84 39.59 10.78 40.99 10.04 43.26 11.97 41.85 13.9 43.26 13.16 40.99 15.1 39.59 12.7 39.59 11.97 37.31"/>
      <polygon class="cls-1" points="50.68 43.26 52.62 41.85 54.55 43.26 53.81 40.99 55.74 39.59 53.35 39.59 52.62 37.31 51.88 39.59 49.49 39.59 51.43 40.99 50.68 43.26"/>
      <path class="cls-1" d="M54.87,24.32c-.37,1.23-.33,2.61-.06,4.01,.73,3.9,3.23,8,3.71,9.71,1.79,6.39-2.6,12.75-10.38,15.17-2.25,.7-8.14,.82-12.43,3.01-1.3,.66-2.46,1.51-3.32,2.63,5.01-4.32,10.88-3.13,16.75-4.87,8.27-2.45,12.25-9.45,10.35-15.95-.93-3.18-4.72-7.72-4.6-13.7Z"/>
    </g>
  </g>
</svg>