<?xml version="1.0" standalone="no"?>
<!DOCTYPE svg PUBLIC "-//W3C//DTD SVG 20010904//EN"
 "http://www.w3.org/TR/2001/REC-SVG-20010904/DTD/svg10.dtd">
<svg version="1.0" xmlns="http://www.w3.org/2000/svg"
 width="1280.000000pt" height="1280.000000pt" viewBox="0 0 1280.000000 1280.000000"
 preserveAspectRatio="xMidYMid meet">
<metadata>
Created by potrace 1.15, written by Peter Selinger 2001-2017
</metadata>
<g transform="translate(0.000000,1280.000000) scale(0.100000,-0.100000)"
fill="#000000" stroke="none">
<path d="M6135 10663 c-33 -9 -65 -35 -81 -64 -11 -21 -14 -71 -14 -212 0
-173 -1 -186 -22 -212 -29 -38 -92 -62 -206 -80 -53 -9 -157 -29 -230 -45
-140 -32 -225 -37 -266 -19 -19 9 -36 37 -67 113 -111 268 -129 291 -212 291
-42 -1 -93 -18 -272 -93 -121 -51 -231 -100 -243 -108 -26 -17 -52 -70 -52
-105 0 -11 32 -98 71 -192 48 -117 68 -178 64 -194 -9 -39 -71 -99 -153 -149
-42 -26 -134 -87 -204 -136 -141 -98 -180 -118 -234 -118 -34 0 -48 11 -173
134 -205 201 -197 202 -453 -52 -265 -263 -264 -257 -62 -463 126 -128 134
-139 134 -175 -1 -53 -25 -102 -106 -214 -38 -53 -96 -139 -128 -193 -60 -100
-127 -172 -168 -182 -16 -4 -75 15 -183 61 -88 36 -174 68 -190 71 -39 6 -99
-18 -119 -50 -30 -45 -206 -484 -206 -513 0 -35 30 -87 62 -108 13 -8 93 -44
179 -81 123 -52 159 -71 168 -91 18 -40 13 -134 -13 -246 -14 -56 -33 -157
-45 -223 -21 -130 -46 -198 -81 -230 -20 -18 -40 -20 -219 -25 -225 -6 -238
-10 -266 -83 -14 -37 -16 -79 -13 -298 3 -244 4 -255 25 -285 39 -54 81 -64
274 -64 98 0 178 -4 190 -10 36 -20 69 -106 90 -233 11 -67 31 -171 45 -231
30 -129 34 -215 11 -249 -11 -17 -64 -44 -179 -91 -90 -37 -171 -75 -182 -84
-26 -24 -46 -66 -46 -98 0 -23 157 -421 197 -497 18 -36 69 -67 112 -67 18 0
84 21 147 46 62 25 118 42 125 38 7 -4 9 -3 6 3 -8 12 62 43 97 43 32 0 85
-38 119 -85 26 -36 188 -278 261 -391 19 -28 31 -62 34 -95 l5 -50 -136 -137
c-202 -205 -203 -198 47 -450 99 -101 193 -190 208 -198 36 -19 98 -18 126 2
12 8 26 13 30 10 5 -3 62 50 128 117 l119 122 -125 -120 -125 -120 125 128
c87 88 132 127 147 127 44 0 123 -38 220 -107 54 -38 145 -98 202 -134 106
-66 166 -121 176 -162 4 -16 -16 -78 -65 -197 -112 -272 -119 -262 261 -419
217 -90 258 -98 312 -59 18 13 35 23 39 23 3 0 10 4 15 9 5 6 2 6 -6 1 -10 -6
-13 -4 -9 6 30 72 131 317 135 326 14 36 119 42 231 14 87 -22 263 -56 337
-66 61 -8 137 -40 162 -67 16 -18 19 -45 23 -217 7 -292 -7 -281 367 -281 274
0 298 4 330 51 8 10 18 17 22 14 5 -2 9 89 10 202 2 197 8 243 33 243 6 0 5
-7 -3 -17 -13 -16 -12 -17 3 -4 10 7 15 17 12 22 -10 16 67 41 201 64 72 13
173 34 225 46 121 28 184 34 230 20 33 -10 41 -19 72 -88 20 -43 52 -118 73
-168 65 -159 118 -184 264 -125 44 17 85 28 92 24 7 -4 9 -3 6 3 -4 6 46 32
121 63 70 28 142 60 160 71 41 24 48 24 31 2 -13 -16 -12 -17 3 -4 10 7 15 17
12 22 -3 5 2 19 10 31 29 41 19 92 -49 258 -36 87 -65 169 -65 180 0 27 18 62
29 56 4 -3 23 11 42 31 19 20 27 33 19 29 -8 -4 -4 2 9 13 14 13 31 19 42 16
9 -3 20 -1 24 4 4 7 -1 9 -12 5 -16 -5 -16 -4 1 10 24 19 40 21 30 3 -4 -7 -3
-9 2 -4 5 5 9 14 9 20 0 5 6 12 14 15 9 3 11 0 6 -8 -5 -9 -4 -11 4 -6 6 4 9
11 6 15 -2 5 20 25 50 45 58 39 70 43 59 24 -4 -8 -3 -10 2 -5 5 5 9 14 9 20
0 5 6 12 14 15 9 3 11 0 6 -8 -6 -9 -4 -11 4 -6 7 5 10 11 7 14 -7 7 13 32 26
32 5 0 6 -6 2 -12 -4 -8 -3 -10 2 -5 5 5 9 14 9 20 0 5 6 12 14 15 9 3 11 0 6
-9 -5 -8 -4 -11 1 -6 5 5 9 14 9 20 0 17 86 58 134 64 40 6 41 5 173 -124 73
-72 143 -135 155 -142 12 -6 41 -11 65 -11 42 0 45 2 245 203 201 200 203 203
203 245 0 24 -5 53 -11 65 -7 12 -70 82 -140 155 -94 96 -129 139 -129 157 0
34 38 131 57 147 12 9 15 9 9 1 -11 -19 -1 -16 15 4 12 14 12 16 0 9 -9 -6
-12 -4 -9 5 3 8 10 14 16 14 6 0 17 7 24 15 11 12 11 12 -4 1 -11 -8 -18 -9
-18 -3 0 11 19 27 32 27 3 0 10 4 15 9 5 5 2 6 -6 1 -9 -5 -12 -3 -9 6 3 8 10
14 16 14 5 0 14 4 19 9 5 5 3 6 -4 2 -18 -10 -16 9 2 24 8 7 15 9 15 5 0 -4 7
-2 15 5 9 7 13 20 10 28 -6 17 33 84 45 77 5 -3 12 0 16 6 5 8 3 9 -6 4 -8 -5
-11 -3 -8 6 3 8 11 13 17 11 7 -1 10 2 6 8 -8 13 13 52 25 45 5 -3 12 0 16 6
4 8 3 9 -4 5 -18 -11 -14 10 5 25 15 12 16 12 8 -1 -4 -8 6 -2 23 14 17 16 29
33 26 37 -7 11 30 29 59 29 14 0 95 -29 180 -65 164 -69 208 -77 257 -48 37
22 53 52 154 297 99 241 105 274 56 330 -21 24 -58 45 -123 71 -195 78 -245
105 -256 138 -19 54 -10 186 11 155 6 -8 7 -4 3 12 -3 14 1 57 10 95 9 39 27
129 40 200 23 134 48 211 64 201 5 -3 14 1 21 9 7 8 22 16 34 16 18 1 18 2 3
6 -10 3 -27 -3 -38 -13 -10 -9 -19 -12 -19 -6 0 25 45 32 215 32 191 0 220 6
265 54 l25 28 3 271 c3 306 0 322 -68 362 -31 18 -56 20 -228 23 l-193 4 -23
36 c-30 47 -41 84 -61 207 -9 55 -30 156 -46 224 -31 132 -35 190 -18 239 9
26 23 36 97 67 47 19 92 33 99 30 8 -2 12 -1 9 4 -6 9 115 63 149 66 11 1 20
8 20 16 1 8 5 13 11 12 10 -2 11 2 20 82 5 46 -2 66 -74 240 -128 307 -134
317 -210 331 -29 6 -64 -5 -213 -65 l-177 -73 -35 17 c-46 22 -75 54 -137 155
-29 47 -89 137 -133 200 -79 112 -117 188 -117 233 0 15 39 60 127 147 l128
125 -120 -125 -120 -125 122 119 c67 66 120 123 117 128 -3 4 2 18 10 30 20
28 21 90 2 126 -8 15 -97 109 -198 209 -251 249 -248 249 -453 43 -119 -119
-133 -130 -166 -130 -52 0 -98 22 -205 98 -51 36 -144 98 -206 137 -118 75
-178 135 -178 181 0 13 28 90 61 171 34 82 64 166 66 189 6 47 -15 96 -51 119
-47 31 -478 205 -507 205 -34 0 -77 -20 -101 -46 -9 -11 -46 -91 -82 -179 -36
-88 -76 -168 -87 -177 -27 -22 -131 -24 -209 -4 -68 17 -242 52 -334 66 -76
12 -160 50 -176 79 -6 12 -10 93 -10 196 0 197 -7 227 -61 266 -34 24 -37 24
-294 26 -143 1 -269 -1 -280 -4z m665 -1108 c446 -61 836 -193 1205 -408 636
-370 1144 -977 1388 -1662 124 -345 175 -626 184 -1000 6 -250 -4 -413 -34
-584 l-17 -94 -17 59 c-24 85 -56 162 -90 217 -16 26 -26 53 -23 59 4 7 2 8
-4 4 -23 -14 -11 11 18 39 17 16 30 37 30 48 0 22 -142 172 -211 222 -121 90
-287 162 -434 191 -123 24 -301 22 -425 -5 -52 -11 -98 -21 -102 -21 -4 0 -57
101 -118 225 -118 242 -113 237 -202 248 -56 8 -61 2 -77 -77 -6 -33 -13 -61
-15 -63 -2 -2 -58 -11 -125 -20 l-121 -16 -57 42 c-115 83 -221 151 -239 151
-10 0 -88 -38 -173 -84 -86 -47 -204 -107 -263 -134 l-106 -50 8 26 c4 15 43
137 85 272 50 157 78 261 78 290 0 25 -14 87 -31 139 -18 52 -30 96 -29 97 1
2 22 -6 46 -17 24 -10 49 -19 56 -19 14 0 42 52 72 135 l19 50 59 3 c33 2 65
8 72 13 11 10 14 74 14 382 1 82 -9 96 -95 139 -86 43 -146 59 -234 60 -133 2
-252 -50 -282 -121 -7 -17 -24 -104 -39 -193 l-26 -161 -68 -28 c-131 -52
-227 -133 -397 -329 -65 -76 -136 -151 -158 -168 -21 -17 -131 -83 -243 -148
-112 -64 -239 -141 -283 -173 -196 -140 -281 -300 -254 -478 10 -72 10 -73
-22 -130 -57 -102 -59 -103 -173 -103 l-99 0 19 33 c11 17 24 32 30 32 6 0 15
4 20 9 5 5 2 6 -6 1 -9 -5 -12 -3 -9 6 3 8 10 14 16 14 5 0 14 4 19 9 5 5 3 6
-4 2 -18 -10 -17 -5 18 60 27 52 30 67 27 121 -3 49 -9 68 -28 89 -65 69 -33
67 -911 34 -152 -6 -291 -15 -309 -20 -51 -15 -80 -47 -80 -91 0 -41 38 -96
124 -179 25 -24 46 -49 46 -55 0 -5 -35 -30 -77 -55 -99 -58 -226 -179 -283
-270 -69 -110 -66 -107 -146 -114 l-70 -7 -12 143 c-53 626 88 1266 399 1820
34 60 65 106 69 103 5 -3 12 0 16 6 5 8 3 9 -6 4 -8 -5 -11 -3 -8 6 3 8 10 14
16 14 5 0 14 4 19 9 5 5 2 6 -6 1 -9 -5 -12 -3 -9 6 3 8 10 14 16 14 5 0 14 4
19 9 5 5 2 6 -6 1 -9 -5 -12 -3 -9 6 3 8 10 14 16 14 5 0 14 4 19 9 5 5 2 6
-6 1 -9 -5 -12 -3 -9 6 3 8 10 14 16 14 5 0 14 4 19 9 5 5 2 6 -6 1 -9 -5 -12
-3 -9 6 3 8 10 14 16 14 5 0 14 4 19 9 5 5 3 6 -4 2 -7 -4 -13 -3 -13 2 0 13
25 33 32 26 3 -3 9 0 14 7 5 8 3 10 -6 4 -8 -5 -11 -3 -8 6 3 8 10 13 16 12 5
-1 16 5 24 15 12 15 11 16 -4 3 -26 -20 -22 2 4 25 12 10 18 13 14 7 -10 -19
-1 -16 15 4 10 11 10 14 2 9 -7 -4 -13 -3 -13 2 0 13 25 33 32 26 3 -3 9 0 14
7 4 8 3 10 -4 5 -23 -14 -12 11 15 35 15 13 21 16 14 7 -21 -28 -7 -21 20 9
13 15 16 21 7 14 -10 -7 -18 -9 -18 -4 0 13 45 55 52 48 2 -3 15 7 29 22 22
25 22 26 2 9 -13 -11 -23 -15 -23 -10 0 11 144 156 151 152 2 -2 3 -1 1 1 -4
7 91 101 102 101 5 0 1 -9 -9 -20 -10 -11 -16 -20 -13 -20 2 0 17 14 34 32 16
18 20 26 9 18 -11 -8 -7 0 9 18 29 31 60 46 36 17 -22 -26 -4 -16 21 12 18 21
19 24 4 13 -15 -11 -14 -8 4 13 27 30 52 38 30 10 -13 -16 -12 -17 4 -4 9 8
15 16 12 19 -7 7 25 42 38 42 5 0 3 -8 -4 -17 -13 -16 -12 -17 4 -4 9 8 15 16
12 19 -6 7 15 32 27 32 5 0 6 -5 2 -12 -4 -7 -3 -8 5 -4 6 4 9 11 6 16 -3 5 8
18 24 29 33 24 45 27 35 9 -4 -8 -3 -10 2 -5 5 5 9 14 9 20 0 7 8 11 18 11 9
-1 15 2 12 6 -3 5 5 16 17 24 27 19 42 21 32 4 -4 -8 -3 -10 2 -5 5 5 9 14 9
19 0 6 6 13 14 16 9 3 11 0 6 -8 -5 -9 -4 -11 4 -6 6 4 9 11 6 16 -3 5 14 20
38 34 43 25 77 36 47 15 -13 -9 -13 -10 0 -6 8 2 15 10 15 18 0 17 279 160
415 212 293 113 572 181 875 212 165 18 545 12 705 -10z m1118 -2792 c37 -53
103 -196 95 -204 -12 -12 -918 -25 -925 -13 -6 9 76 157 90 162 4 1 67 -18
141 -43 146 -49 163 -52 181 -30 7 9 40 39 73 67 l60 52 126 17 c69 9 129 17
133 18 4 1 15 -11 26 -26z m-625 -627 c-7 -13 -134 -153 -332 -366 -35 -38
-51 -49 -51 -37 0 66 23 363 28 369 9 9 245 42 330 46 26 2 31 -1 25 -12z
m337 -110 c-57 -133 -87 -347 -70 -497 6 -51 16 -99 22 -106 6 -7 30 -13 53
-13 l43 0 28 -72 c62 -166 130 -273 241 -379 118 -113 245 -188 400 -236 82
-25 101 -27 273 -27 184 -1 186 -1 278 32 105 36 106 36 96 20 -4 -7 -3 -8 5
-4 6 4 9 11 7 15 -3 4 11 15 30 24 41 20 48 21 38 5 -4 -7 -3 -8 5 -4 6 4 9
11 6 16 -8 12 30 31 48 24 8 -3 18 -1 22 5 4 7 -1 9 -12 5 -12 -4 -10 0 7 15
41 34 41 25 -2 -51 -215 -385 -567 -765 -953 -1027 -403 -275 -839 -445 -1335
-523 -126 -19 -184 -22 -450 -23 -202 0 -337 4 -400 13 -690 97 -1273 368
-1765 821 -243 224 -484 532 -630 806 -45 84 -46 88 -19 64 138 -124 359 -217
566 -239 99 -11 128 -11 211 3 107 18 194 46 279 88 64 32 72 35 62 17 -4 -8
-3 -10 2 -5 5 5 9 12 9 17 0 8 91 80 102 80 3 0 -2 -10 -13 -22 l-19 -22 26
20 c15 10 23 21 18 24 -5 4 17 31 48 60 32 30 49 45 39 33 -27 -32 -15 -29 15
4 13 14 18 23 12 19 -7 -4 -13 -5 -13 -2 0 10 72 101 80 101 5 0 12 4 17 9 5
5 3 6 -4 2 -19 -11 -16 -2 21 72 19 37 44 101 57 142 l22 74 147 -151 147
-151 94 -7 c52 -4 335 -5 629 -3 578 3 564 2 614 57 10 11 22 18 26 16 4 -3
14 3 21 13 13 15 12 16 -3 3 -26 -20 -22 2 4 25 12 10 18 13 14 7 -12 -21 -1
-15 25 14 l24 28 -24 -20 c-50 -41 -12 7 87 114 57 61 108 109 113 105 5 -3 8
-1 7 4 -5 16 483 523 496 515 6 -3 8 -2 3 2 -7 8 83 109 90 101 2 -2 -6 -24
-17 -50z m1123 10 c180 -64 296 -229 297 -422 0 -187 -81 -319 -247 -401 -76
-37 -79 -38 -193 -38 -112 0 -117 1 -190 36 -190 91 -284 263 -259 472 8 69
44 162 58 152 5 -3 13 0 17 6 5 8 3 9 -6 4 -8 -5 -11 -3 -8 6 3 8 10 14 16 14
5 0 14 4 19 9 5 5 3 6 -4 2 -7 -4 -13 -3 -13 2 0 12 25 33 32 27 2 -3 15 7 29
23 l24 27 -27 -24 c-16 -14 -28 -21 -28 -16 0 13 32 45 45 45 11 0 75 -104
111 -182 16 -34 16 -39 0 -77 -44 -112 0 -221 109 -267 72 -30 158 -11 209 45
10 11 22 18 27 16 4 -3 11 0 15 6 4 8 3 9 -4 5 -15 -9 -15 -6 4 40 34 81 0
174 -84 234 -50 36 -59 49 -108 155 -30 63 -54 117 -54 120 0 3 33 5 73 5 50
0 93 -8 140 -24z m-4349 -51 c33 -17 61 -36 64 -43 2 -7 -34 -51 -80 -98 -83
-84 -83 -84 -118 -74 -75 22 -164 -12 -202 -76 -28 -47 -50 -54 -170 -54
l-101 0 6 45 c5 53 66 181 84 178 6 -1 17 5 25 15 12 15 11 16 -4 3 -25 -19
-22 -2 4 26 25 27 47 31 27 6 -13 -16 -12 -17 3 -4 10 7 15 17 13 22 -8 12 63
55 121 73 35 11 81 15 159 13 99 -2 116 -5 169 -32z m1671 -57 c-12 -38 -168
-338 -176 -338 -4 0 -16 12 -27 28 -23 33 -172 305 -172 314 0 8 84 13 258 16
l123 2 -6 -22z m-1472 -130 c37 -65 48 -107 49 -199 1 -57 -5 -102 -17 -139
-50 -152 -181 -263 -342 -289 -76 -12 -188 2 -251 31 -99 47 -203 176 -226
280 -8 33 -2 35 135 42 l97 4 33 -35 c67 -70 151 -90 224 -53 46 23 48 24 39
8 -4 -7 2 -5 14 6 12 10 19 22 17 26 -3 4 4 29 16 54 15 34 19 58 14 89 -5 42
-5 43 78 130 45 48 85 87 89 87 3 0 17 -19 31 -42z m5082 -1248 c-10 -11 -20
-18 -23 -15 -7 6 18 35 31 35 5 0 2 -9 -8 -20z m-163 -242 c-7 -7 -12 -8 -12
-2 0 14 12 26 19 19 2 -3 -1 -11 -7 -17z m-1262 -1183 c-13 -14 -26 -23 -28
-20 -7 7 29 45 41 45 6 0 0 -11 -13 -25z"/>
<path d="M5015 9250 c-3 -6 1 -7 9 -4 18 7 21 14 7 14 -6 0 -13 -4 -16 -10z"/>
<path d="M4854 9164 c-18 -14 -18 -15 4 -4 12 6 22 13 22 15 0 8 -5 6 -26 -11z"/>
<path d="M4734 9094 c-18 -14 -18 -15 4 -4 12 6 22 13 22 15 0 8 -5 6 -26 -11z"/>
<path d="M4144 8628 l-19 -23 23 19 c21 18 27 26 19 26 -2 0 -12 -10 -23 -22z"/>
<path d="M3656 7983 c-6 -14 -5 -15 5 -6 7 7 10 15 7 18 -3 3 -9 -2 -12 -12z"/>
<path d="M3630 7940 c-6 -11 -8 -20 -6 -20 3 0 10 9 16 20 6 11 8 20 6 20 -3
0 -10 -9 -16 -20z"/>
<path d="M3545 7779 c-4 -6 -5 -12 -2 -15 2 -3 7 2 10 11 7 17 1 20 -8 4z"/>
<path d="M7066 7753 c-6 -14 -5 -15 5 -6 7 7 10 15 7 18 -3 3 -9 -2 -12 -12z"/>
<path d="M3506 7695 c-9 -26 -7 -32 5 -12 6 10 9 21 6 23 -2 3 -7 -2 -11 -11z"/>
<path d="M4950 6520 c-6 -11 -8 -20 -6 -20 3 0 10 9 16 20 6 11 8 20 6 20 -3
0 -10 -9 -16 -20z"/>
<path d="M4880 6415 c-7 -9 -11 -17 -9 -20 3 -2 10 5 17 15 14 24 10 26 -8 5z"/>
<path d="M7575 6688 l-50 -53 55 50 c30 28 57 51 59 53 2 1 0 2 -5 2 -5 0 -32
-24 -59 -52z"/>
<path d="M7130 6614 c-17 -31 -30 -58 -28 -60 2 -2 19 24 37 56 18 33 30 60
28 60 -3 0 -19 -25 -37 -56z"/>
<path d="M6944 6085 c-3 -8 -4 -20 -1 -27 3 -7 6 -3 6 9 1 12 7 24 14 26 9 4
9 6 -1 6 -7 1 -15 -6 -18 -14z"/>
<path d="M7605 6019 c-4 -6 -5 -12 -2 -15 2 -3 7 2 10 11 7 17 1 20 -8 4z"/>
<path d="M7390 5805 c-41 -41 -72 -75 -69 -75 2 0 38 34 79 75 41 41 72 75 69
75 -2 0 -38 -34 -79 -75z"/>
<path d="M7145 5548 l-80 -83 83 80 c45 44 82 81 82 82 0 8 -11 -3 -85 -79z"/>
<path d="M5135 5359 c-4 -6 -5 -12 -2 -15 2 -3 7 2 10 11 7 17 1 20 -8 4z"/>
<path d="M6925 5318 l-40 -43 43 40 c39 36 47 45 39 45 -2 0 -21 -19 -42 -42z"/>
<path d="M5000 5070 c-6 -11 -8 -20 -6 -20 3 0 10 9 16 20 6 11 8 20 6 20 -3
0 -10 -9 -16 -20z"/>
<path d="M4759 4829 l-24 -20 28 17 c15 9 27 18 27 20 0 8 -8 4 -31 -17z"/>
<path d="M9035 4770 c-3 -6 1 -7 9 -4 18 7 21 14 7 14 -6 0 -13 -4 -16 -10z"/>
<path d="M8560 6040 c0 -5 7 -7 15 -4 8 4 15 8 15 10 0 2 -7 4 -15 4 -8 0 -15
-4 -15 -10z"/>
<path d="M8206 5805 c-9 -26 -7 -32 5 -12 6 10 9 21 6 23 -2 3 -7 -2 -11 -11z"/>
<path d="M4008 5964 c-39 -21 -35 -28 5 -8 37 19 44 24 31 24 -5 -1 -21 -8
-36 -16z"/>
<path d="M3845 5789 c-4 -6 -5 -12 -2 -15 2 -3 7 2 10 11 7 17 1 20 -8 4z"/>
<path d="M3811 5684 c0 -11 3 -14 6 -6 3 7 2 16 -1 19 -3 4 -6 -2 -5 -13z"/>
<path d="M5714 5921 c3 -5 15 -7 26 -4 28 7 25 13 -6 13 -14 0 -23 -4 -20 -9z"/>
<path d="M3831 5484 c0 -11 3 -14 6 -6 3 7 2 16 -1 19 -3 4 -6 -2 -5 -13z"/>
<path d="M8266 9915 c-9 -26 -7 -32 5 -12 6 10 9 21 6 23 -2 3 -7 -2 -11 -11z"/>
<path d="M8246 9865 c-9 -26 -7 -32 5 -12 6 10 9 21 6 23 -2 3 -7 -2 -11 -11z"/>
<path d="M8211 9764 c0 -11 3 -14 6 -6 3 7 2 16 -1 19 -3 4 -6 -2 -5 -13z"/>
<path d="M10073 7510 c-13 -5 -23 -11 -23 -14 0 -7 40 6 46 15 6 10 6 10 -23
-1z"/>
<path d="M10146 5955 c-9 -26 -7 -32 5 -12 6 10 9 21 6 23 -2 3 -7 -2 -11 -11z"/>
<path d="M10406 4885 c-9 -26 -7 -32 5 -12 6 10 9 21 6 23 -2 3 -7 -2 -11 -11z"/>
<path d="M10386 4835 c-9 -26 -7 -32 5 -12 6 10 9 21 6 23 -2 3 -7 -2 -11 -11z"/>
<path d="M10305 4639 c-4 -6 -5 -12 -2 -15 2 -3 7 2 10 11 7 17 1 20 -8 4z"/>
<path d="M10286 4595 c-9 -26 -7 -32 5 -12 6 10 9 21 6 23 -2 3 -7 -2 -11 -11z"/>
<path d="M9726 4581 c-3 -4 6 -6 19 -3 14 2 25 6 25 8 0 8 -39 4 -44 -5z"/>
<path d="M9372 4085 c-17 -37 -14 -45 4 -12 9 16 14 31 11 33 -2 2 -9 -7 -15
-21z"/>
<path d="M9420 3363 l-165 -168 168 165 c92 91 167 166 167 167 0 8 -17 -9
-170 -164z"/>
<path d="M8720 3430 c-8 -5 -10 -10 -5 -10 6 0 17 5 25 10 8 5 11 10 5 10 -5
0 -17 -5 -25 -10z"/>
<path d="M8680 3410 c-9 -6 -10 -10 -3 -10 6 0 15 5 18 10 8 12 4 12 -15 0z"/>
<path d="M8454 3254 c-18 -14 -18 -15 4 -4 12 6 22 13 22 15 0 8 -5 6 -26 -11z"/>
<path d="M8211 3044 c0 -11 3 -14 6 -6 3 7 2 16 -1 19 -3 4 -6 -2 -5 -13z"/>
<path d="M5295 2739 c-4 -6 -5 -12 -2 -15 2 -3 7 2 10 11 7 17 1 20 -8 4z"/>
<path d="M6840 2650 c-8 -5 -10 -10 -5 -10 6 0 17 5 25 10 8 5 11 10 5 10 -5
0 -17 -5 -25 -10z"/>
<path d="M5245 2619 c-4 -6 -5 -12 -2 -15 2 -3 7 2 10 11 7 17 1 20 -8 4z"/>
<path d="M6782 2570 c0 -19 2 -27 5 -17 2 9 2 25 0 35 -3 9 -5 1 -5 -18z"/>
<path d="M5226 2575 c-9 -26 -7 -32 5 -12 6 10 9 21 6 23 -2 3 -7 -2 -11 -11z"/>
<path d="M5206 2525 c-9 -26 -7 -32 5 -12 6 10 9 21 6 23 -2 3 -7 -2 -11 -11z"/>
<path d="M8200 2510 c-9 -6 -10 -10 -3 -10 6 0 15 5 18 10 8 12 4 12 -15 0z"/>
<path d="M5186 2475 c-9 -26 -7 -32 5 -12 6 10 9 21 6 23 -2 3 -7 -2 -11 -11z"/>
</g>
</svg>
